%FSLAX34Y34*%
%MOMM*%
%LNSOLDERMASK_TOP*%
G71*
G01*
%ADD10C,2.540*%
%LPD*%
G36*
X449441Y-218011D02*
X457046Y-225616D01*
X457046Y-236406D01*
X449441Y-244011D01*
X438651Y-244011D01*
X431046Y-236406D01*
X431046Y-225616D01*
X438651Y-218011D01*
X449441Y-218011D01*
G37*
G36*
X500241Y-218011D02*
X507846Y-225616D01*
X507846Y-236406D01*
X500241Y-244011D01*
X489451Y-244011D01*
X481846Y-236406D01*
X481846Y-225616D01*
X489451Y-218011D01*
X500241Y-218011D01*
G37*
G36*
X448819Y-321111D02*
X455546Y-327838D01*
X455546Y-337384D01*
X448819Y-344111D01*
X439273Y-344111D01*
X432546Y-337384D01*
X432546Y-327838D01*
X439273Y-321111D01*
X448819Y-321111D01*
G37*
G36*
X500241Y-319611D02*
X507846Y-327216D01*
X507846Y-338006D01*
X500241Y-345611D01*
X489451Y-345611D01*
X481846Y-338006D01*
X481846Y-327216D01*
X489451Y-319611D01*
X500241Y-319611D01*
G37*
G36*
X448819Y-295711D02*
X455546Y-302438D01*
X455546Y-311984D01*
X448819Y-318711D01*
X439273Y-318711D01*
X432546Y-311984D01*
X432546Y-302438D01*
X439273Y-295711D01*
X448819Y-295711D01*
G37*
G36*
X500241Y-294211D02*
X507846Y-301816D01*
X507846Y-312606D01*
X500241Y-320211D01*
X489451Y-320211D01*
X481846Y-312606D01*
X481846Y-301816D01*
X489451Y-294211D01*
X500241Y-294211D01*
G37*
G36*
X500241Y-268811D02*
X507846Y-276416D01*
X507846Y-287206D01*
X500241Y-294811D01*
X489451Y-294811D01*
X481846Y-287206D01*
X481846Y-276416D01*
X489451Y-268811D01*
X500241Y-268811D01*
G37*
G36*
X449441Y-268811D02*
X457046Y-276416D01*
X457046Y-287206D01*
X449441Y-294811D01*
X438651Y-294811D01*
X431046Y-287206D01*
X431046Y-276416D01*
X438651Y-268811D01*
X449441Y-268811D01*
G37*
G36*
X754241Y-218011D02*
X761846Y-225616D01*
X761846Y-236406D01*
X754241Y-244011D01*
X743451Y-244011D01*
X735846Y-236406D01*
X735846Y-225616D01*
X743451Y-218011D01*
X754241Y-218011D01*
G37*
G36*
X805041Y-218011D02*
X812646Y-225616D01*
X812646Y-236406D01*
X805041Y-244011D01*
X794251Y-244011D01*
X786646Y-236406D01*
X786646Y-225616D01*
X794251Y-218011D01*
X805041Y-218011D01*
G37*
G36*
X754241Y-319611D02*
X761846Y-327216D01*
X761846Y-338006D01*
X754241Y-345611D01*
X743451Y-345611D01*
X735846Y-338006D01*
X735846Y-327216D01*
X743451Y-319611D01*
X754241Y-319611D01*
G37*
G36*
X805041Y-319611D02*
X812646Y-327216D01*
X812646Y-338006D01*
X805041Y-345611D01*
X794251Y-345611D01*
X786646Y-338006D01*
X786646Y-327216D01*
X794251Y-319611D01*
X805041Y-319611D01*
G37*
G36*
X754241Y-294211D02*
X761846Y-301816D01*
X761846Y-312606D01*
X754241Y-320211D01*
X743451Y-320211D01*
X735846Y-312606D01*
X735846Y-301816D01*
X743451Y-294211D01*
X754241Y-294211D01*
G37*
G36*
X805041Y-294211D02*
X812646Y-301816D01*
X812646Y-312606D01*
X805041Y-320211D01*
X794251Y-320211D01*
X786646Y-312606D01*
X786646Y-301816D01*
X794251Y-294211D01*
X805041Y-294211D01*
G37*
G36*
X805041Y-268811D02*
X812646Y-276416D01*
X812646Y-287206D01*
X805041Y-294811D01*
X794251Y-294811D01*
X786646Y-287206D01*
X786646Y-276416D01*
X794251Y-268811D01*
X805041Y-268811D01*
G37*
G36*
X754241Y-268811D02*
X761846Y-276416D01*
X761846Y-287206D01*
X754241Y-294811D01*
X743451Y-294811D01*
X735846Y-287206D01*
X735846Y-276416D01*
X743451Y-268811D01*
X754241Y-268811D01*
G37*
G36*
X347841Y-218011D02*
X355446Y-225616D01*
X355446Y-236406D01*
X347841Y-244011D01*
X337051Y-244011D01*
X329446Y-236406D01*
X329446Y-225616D01*
X337051Y-218011D01*
X347841Y-218011D01*
G37*
G36*
X398641Y-218011D02*
X406246Y-225616D01*
X406246Y-236406D01*
X398641Y-244011D01*
X387851Y-244011D01*
X380246Y-236406D01*
X380246Y-225616D01*
X387851Y-218011D01*
X398641Y-218011D01*
G37*
G36*
X347841Y-319611D02*
X355446Y-327216D01*
X355446Y-338006D01*
X347841Y-345611D01*
X337051Y-345611D01*
X329446Y-338006D01*
X329446Y-327216D01*
X337051Y-319611D01*
X347841Y-319611D01*
G37*
G36*
X398641Y-319611D02*
X406246Y-327216D01*
X406246Y-338006D01*
X398641Y-345611D01*
X387851Y-345611D01*
X380246Y-338006D01*
X380246Y-327216D01*
X387851Y-319611D01*
X398641Y-319611D01*
G37*
G36*
X347841Y-294211D02*
X355446Y-301816D01*
X355446Y-312606D01*
X347841Y-320211D01*
X337051Y-320211D01*
X329446Y-312606D01*
X329446Y-301816D01*
X337051Y-294211D01*
X347841Y-294211D01*
G37*
G36*
X398641Y-294211D02*
X406246Y-301816D01*
X406246Y-312606D01*
X398641Y-320211D01*
X387851Y-320211D01*
X380246Y-312606D01*
X380246Y-301816D01*
X387851Y-294211D01*
X398641Y-294211D01*
G37*
G36*
X398641Y-268811D02*
X406246Y-276416D01*
X406246Y-287206D01*
X398641Y-294811D01*
X387851Y-294811D01*
X380246Y-287206D01*
X380246Y-276416D01*
X387851Y-268811D01*
X398641Y-268811D01*
G37*
G36*
X347841Y-268811D02*
X355446Y-276416D01*
X355446Y-287206D01*
X347841Y-294811D01*
X337051Y-294811D01*
X329446Y-287206D01*
X329446Y-276416D01*
X337051Y-268811D01*
X347841Y-268811D01*
G37*
G36*
X788926Y-466568D02*
X779858Y-475636D01*
X766994Y-475636D01*
X757926Y-466568D01*
X757926Y-453704D01*
X766994Y-444636D01*
X779858Y-444636D01*
X788926Y-453704D01*
X788926Y-466568D01*
G37*
G36*
X738126Y-466568D02*
X729058Y-475636D01*
X716194Y-475636D01*
X707126Y-466568D01*
X707126Y-453704D01*
X716194Y-444636D01*
X729058Y-444636D01*
X738126Y-453704D01*
X738126Y-466568D01*
G37*
G36*
X743450Y-141306D02*
X734382Y-132238D01*
X734382Y-119374D01*
X743450Y-110306D01*
X756314Y-110306D01*
X765382Y-119374D01*
X765382Y-132238D01*
X756314Y-141306D01*
X743450Y-141306D01*
G37*
G36*
X743450Y-90506D02*
X734382Y-81438D01*
X734382Y-68574D01*
X743450Y-59506D01*
X756314Y-59506D01*
X765382Y-68574D01*
X765382Y-81438D01*
X756314Y-90506D01*
X743450Y-90506D01*
G37*
G36*
X7000Y-20455D02*
X20455Y-7000D01*
X39545Y-7000D01*
X53000Y-20455D01*
X53000Y-39545D01*
X39545Y-53000D01*
X20455Y-53000D01*
X7000Y-39545D01*
X7000Y-20455D01*
G37*
G36*
X797000Y-20455D02*
X810455Y-7000D01*
X829545Y-7000D01*
X843000Y-20455D01*
X843000Y-39545D01*
X829545Y-53000D01*
X810455Y-53000D01*
X797000Y-39545D01*
X797000Y-20455D01*
G37*
G36*
X7000Y-530455D02*
X20455Y-517000D01*
X39545Y-517000D01*
X53000Y-530455D01*
X53000Y-549545D01*
X39545Y-563000D01*
X20455Y-563000D01*
X7000Y-549545D01*
X7000Y-530455D01*
G37*
G36*
X797000Y-530455D02*
X810455Y-517000D01*
X829545Y-517000D01*
X843000Y-530455D01*
X843000Y-549545D01*
X829545Y-563000D01*
X810455Y-563000D01*
X797000Y-549545D01*
X797000Y-530455D01*
G37*
G36*
X424189Y-373320D02*
X434719Y-383850D01*
X434719Y-398790D01*
X424189Y-409320D01*
X409249Y-409320D01*
X398719Y-398790D01*
X398719Y-383850D01*
X409249Y-373320D01*
X424189Y-373320D01*
G37*
G36*
X424189Y-525720D02*
X434719Y-536250D01*
X434719Y-551190D01*
X424189Y-561720D01*
X409249Y-561720D01*
X398719Y-551190D01*
X398719Y-536250D01*
X409249Y-525720D01*
X424189Y-525720D01*
G37*
G36*
X294094Y-386546D02*
X300821Y-379819D01*
X310367Y-379819D01*
X317094Y-386546D01*
X317094Y-396092D01*
X310367Y-402819D01*
X300821Y-402819D01*
X294094Y-396092D01*
X294094Y-386546D01*
G37*
G36*
X294094Y-411946D02*
X300821Y-405219D01*
X310367Y-405219D01*
X317094Y-411946D01*
X317094Y-421492D01*
X310367Y-428219D01*
X300821Y-428219D01*
X294094Y-421492D01*
X294094Y-411946D01*
G37*
G36*
X294094Y-437346D02*
X300821Y-430619D01*
X310367Y-430619D01*
X317094Y-437346D01*
X317094Y-446892D01*
X310367Y-453619D01*
X300821Y-453619D01*
X294094Y-446892D01*
X294094Y-437346D01*
G37*
G36*
X294094Y-462746D02*
X300821Y-456019D01*
X310367Y-456019D01*
X317094Y-462746D01*
X317094Y-472292D01*
X310367Y-479019D01*
X300821Y-479019D01*
X294094Y-472292D01*
X294094Y-462746D01*
G37*
G36*
X370294Y-386546D02*
X377021Y-379819D01*
X386567Y-379819D01*
X393294Y-386546D01*
X393294Y-396092D01*
X386567Y-402819D01*
X377021Y-402819D01*
X370294Y-396092D01*
X370294Y-386546D01*
G37*
G36*
X370294Y-411946D02*
X377021Y-405219D01*
X386567Y-405219D01*
X393294Y-411946D01*
X393294Y-421492D01*
X386567Y-428219D01*
X377021Y-428219D01*
X370294Y-421492D01*
X370294Y-411946D01*
G37*
G36*
X370294Y-437346D02*
X377021Y-430619D01*
X386567Y-430619D01*
X393294Y-437346D01*
X393294Y-446892D01*
X386567Y-453619D01*
X377021Y-453619D01*
X370294Y-446892D01*
X370294Y-437346D01*
G37*
G36*
X370294Y-462746D02*
X377021Y-456019D01*
X386567Y-456019D01*
X393294Y-462746D01*
X393294Y-472292D01*
X386567Y-479019D01*
X377021Y-479019D01*
X370294Y-472292D01*
X370294Y-462746D01*
G37*
G36*
X309938Y-519824D02*
X319006Y-510756D01*
X331870Y-510756D01*
X340938Y-519824D01*
X340938Y-532688D01*
X331870Y-541756D01*
X319006Y-541756D01*
X309938Y-532688D01*
X309938Y-519824D01*
G37*
G36*
X349938Y-519824D02*
X359006Y-510756D01*
X371870Y-510756D01*
X380938Y-519824D01*
X380938Y-532688D01*
X371870Y-541756D01*
X359006Y-541756D01*
X349938Y-532688D01*
X349938Y-519824D01*
G37*
G36*
X276803Y-504919D02*
X269783Y-497899D01*
X269783Y-487939D01*
X276803Y-480919D01*
X286763Y-480919D01*
X293783Y-487939D01*
X293783Y-497899D01*
X286763Y-504919D01*
X276803Y-504919D01*
G37*
G36*
X276803Y-454119D02*
X269783Y-447099D01*
X269783Y-437139D01*
X276803Y-430119D01*
X286763Y-430119D01*
X293783Y-437139D01*
X293783Y-447099D01*
X286763Y-454119D01*
X276803Y-454119D01*
G37*
G36*
X188301Y-506687D02*
X197369Y-515755D01*
X197369Y-528619D01*
X188301Y-537687D01*
X175437Y-537687D01*
X166369Y-528619D01*
X166369Y-515755D01*
X175437Y-506687D01*
X188301Y-506687D01*
G37*
G36*
X188301Y-456681D02*
X197369Y-465749D01*
X197369Y-478613D01*
X188301Y-487681D01*
X175437Y-487681D01*
X166369Y-478613D01*
X166369Y-465749D01*
X175437Y-456681D01*
X188301Y-456681D01*
G37*
G36*
X84464Y-364588D02*
X94994Y-375118D01*
X94994Y-390058D01*
X84464Y-400588D01*
X69524Y-400588D01*
X58994Y-390058D01*
X58994Y-375118D01*
X69524Y-364588D01*
X84464Y-364588D01*
G37*
G36*
X84464Y-415388D02*
X94994Y-425918D01*
X94994Y-440858D01*
X84464Y-451388D01*
X69524Y-451388D01*
X58994Y-440858D01*
X58994Y-425918D01*
X69524Y-415388D01*
X84464Y-415388D01*
G37*
G36*
X135264Y-389988D02*
X145794Y-400518D01*
X145794Y-415458D01*
X135264Y-425988D01*
X120324Y-425988D01*
X109794Y-415458D01*
X109794Y-400518D01*
X120324Y-389988D01*
X135264Y-389988D01*
G37*
G36*
X70563Y-527781D02*
X61495Y-518713D01*
X61495Y-505849D01*
X70563Y-496781D01*
X83427Y-496781D01*
X92495Y-505849D01*
X92495Y-518713D01*
X83427Y-527781D01*
X70563Y-527781D01*
G37*
G36*
X70563Y-487781D02*
X61495Y-478713D01*
X61495Y-465849D01*
X70563Y-456781D01*
X83427Y-456781D01*
X92495Y-465849D01*
X92495Y-478713D01*
X83427Y-487781D01*
X70563Y-487781D01*
G37*
G36*
X255012Y-465044D02*
X262032Y-472064D01*
X262032Y-482024D01*
X255012Y-489044D01*
X245052Y-489044D01*
X238032Y-482024D01*
X238032Y-472064D01*
X245052Y-465044D01*
X255012Y-465044D01*
G37*
G36*
X255012Y-541244D02*
X262032Y-548264D01*
X262032Y-558224D01*
X255012Y-565244D01*
X245052Y-565244D01*
X238032Y-558224D01*
X238032Y-548264D01*
X245052Y-541244D01*
X255012Y-541244D01*
G37*
G36*
X652641Y-218011D02*
X660246Y-225616D01*
X660246Y-236406D01*
X652641Y-244011D01*
X641851Y-244011D01*
X634246Y-236406D01*
X634246Y-225616D01*
X641851Y-218011D01*
X652641Y-218011D01*
G37*
G36*
X703441Y-218011D02*
X711046Y-225616D01*
X711046Y-236406D01*
X703441Y-244011D01*
X692651Y-244011D01*
X685046Y-236406D01*
X685046Y-225616D01*
X692651Y-218011D01*
X703441Y-218011D01*
G37*
G36*
X652641Y-319611D02*
X660246Y-327216D01*
X660246Y-338006D01*
X652641Y-345611D01*
X641851Y-345611D01*
X634246Y-338006D01*
X634246Y-327216D01*
X641851Y-319611D01*
X652641Y-319611D01*
G37*
G36*
X703441Y-319611D02*
X711046Y-327216D01*
X711046Y-338006D01*
X703441Y-345611D01*
X692651Y-345611D01*
X685046Y-338006D01*
X685046Y-327216D01*
X692651Y-319611D01*
X703441Y-319611D01*
G37*
G36*
X652641Y-294211D02*
X660246Y-301816D01*
X660246Y-312606D01*
X652641Y-320211D01*
X641851Y-320211D01*
X634246Y-312606D01*
X634246Y-301816D01*
X641851Y-294211D01*
X652641Y-294211D01*
G37*
G36*
X703441Y-294211D02*
X711046Y-301816D01*
X711046Y-312606D01*
X703441Y-320211D01*
X692651Y-320211D01*
X685046Y-312606D01*
X685046Y-301816D01*
X692651Y-294211D01*
X703441Y-294211D01*
G37*
G36*
X703441Y-268811D02*
X711046Y-276416D01*
X711046Y-287206D01*
X703441Y-294811D01*
X692651Y-294811D01*
X685046Y-287206D01*
X685046Y-276416D01*
X692651Y-268811D01*
X703441Y-268811D01*
G37*
G36*
X652641Y-268811D02*
X660246Y-276416D01*
X660246Y-287206D01*
X652641Y-294811D01*
X641851Y-294811D01*
X634246Y-287206D01*
X634246Y-276416D01*
X641851Y-268811D01*
X652641Y-268811D01*
G37*
G36*
X551041Y-218011D02*
X558646Y-225616D01*
X558646Y-236406D01*
X551041Y-244011D01*
X540251Y-244011D01*
X532646Y-236406D01*
X532646Y-225616D01*
X540251Y-218011D01*
X551041Y-218011D01*
G37*
G36*
X601841Y-218011D02*
X609446Y-225616D01*
X609446Y-236406D01*
X601841Y-244011D01*
X591051Y-244011D01*
X583446Y-236406D01*
X583446Y-225616D01*
X591051Y-218011D01*
X601841Y-218011D01*
G37*
G36*
X551041Y-319611D02*
X558646Y-327216D01*
X558646Y-338006D01*
X551041Y-345611D01*
X540251Y-345611D01*
X532646Y-338006D01*
X532646Y-327216D01*
X540251Y-319611D01*
X551041Y-319611D01*
G37*
G36*
X601841Y-319611D02*
X609446Y-327216D01*
X609446Y-338006D01*
X601841Y-345611D01*
X591051Y-345611D01*
X583446Y-338006D01*
X583446Y-327216D01*
X591051Y-319611D01*
X601841Y-319611D01*
G37*
G36*
X551041Y-294211D02*
X558646Y-301816D01*
X558646Y-312606D01*
X551041Y-320211D01*
X540251Y-320211D01*
X532646Y-312606D01*
X532646Y-301816D01*
X540251Y-294211D01*
X551041Y-294211D01*
G37*
G36*
X601841Y-294211D02*
X609446Y-301816D01*
X609446Y-312606D01*
X601841Y-320211D01*
X591051Y-320211D01*
X583446Y-312606D01*
X583446Y-301816D01*
X591051Y-294211D01*
X601841Y-294211D01*
G37*
G36*
X601841Y-268811D02*
X609446Y-276416D01*
X609446Y-287206D01*
X601841Y-294811D01*
X591051Y-294811D01*
X583446Y-287206D01*
X583446Y-276416D01*
X591051Y-268811D01*
X601841Y-268811D01*
G37*
G36*
X551041Y-268811D02*
X558646Y-276416D01*
X558646Y-287206D01*
X551041Y-294811D01*
X540251Y-294811D01*
X532646Y-287206D01*
X532646Y-276416D01*
X540251Y-268811D01*
X551041Y-268811D01*
G37*
G36*
X291101Y-268876D02*
X283496Y-276480D01*
X272706Y-276480D01*
X265101Y-268876D01*
X265101Y-258086D01*
X272706Y-250480D01*
X283496Y-250480D01*
X291101Y-258086D01*
X291101Y-268876D01*
G37*
G36*
X291101Y-243476D02*
X283496Y-251080D01*
X272706Y-251080D01*
X265101Y-243476D01*
X265101Y-232686D01*
X272706Y-225080D01*
X283496Y-225080D01*
X291101Y-232686D01*
X291101Y-243476D01*
G37*
G36*
X291101Y-218076D02*
X283496Y-225680D01*
X272706Y-225680D01*
X265101Y-218076D01*
X265101Y-207286D01*
X272706Y-199680D01*
X283496Y-199680D01*
X291101Y-207286D01*
X291101Y-218076D01*
G37*
G36*
X291101Y-192676D02*
X283496Y-200280D01*
X272706Y-200280D01*
X265101Y-192676D01*
X265101Y-181886D01*
X272706Y-174280D01*
X283496Y-174280D01*
X291101Y-181886D01*
X291101Y-192676D01*
G37*
G36*
X291101Y-167276D02*
X283496Y-174880D01*
X272706Y-174880D01*
X265101Y-167276D01*
X265101Y-156486D01*
X272706Y-148880D01*
X283496Y-148880D01*
X291101Y-156486D01*
X291101Y-167276D01*
G37*
G36*
X289601Y-141254D02*
X282874Y-147980D01*
X273328Y-147980D01*
X266601Y-141254D01*
X266601Y-131708D01*
X273328Y-124980D01*
X282874Y-124980D01*
X289601Y-131708D01*
X289601Y-141254D01*
G37*
G36*
X289601Y-115854D02*
X282874Y-122580D01*
X273328Y-122580D01*
X266601Y-115854D01*
X266601Y-106308D01*
X273328Y-99580D01*
X282874Y-99580D01*
X289601Y-106308D01*
X289601Y-115854D01*
G37*
G36*
X291101Y-91076D02*
X283496Y-98680D01*
X272706Y-98680D01*
X265101Y-91076D01*
X265101Y-80286D01*
X272706Y-72680D01*
X283496Y-72680D01*
X291101Y-80286D01*
X291101Y-91076D01*
G37*
G36*
X62501Y-268876D02*
X54896Y-276480D01*
X44106Y-276480D01*
X36501Y-268876D01*
X36501Y-258086D01*
X44106Y-250480D01*
X54896Y-250480D01*
X62501Y-258086D01*
X62501Y-268876D01*
G37*
G36*
X62501Y-243476D02*
X54896Y-251080D01*
X44106Y-251080D01*
X36501Y-243476D01*
X36501Y-232686D01*
X44106Y-225080D01*
X54896Y-225080D01*
X62501Y-232686D01*
X62501Y-243476D01*
G37*
G36*
X62501Y-218076D02*
X54896Y-225680D01*
X44106Y-225680D01*
X36501Y-218076D01*
X36501Y-207286D01*
X44106Y-199680D01*
X54896Y-199680D01*
X62501Y-207286D01*
X62501Y-218076D01*
G37*
G36*
X62501Y-192676D02*
X54896Y-200280D01*
X44106Y-200280D01*
X36501Y-192676D01*
X36501Y-181886D01*
X44106Y-174280D01*
X54896Y-174280D01*
X62501Y-181886D01*
X62501Y-192676D01*
G37*
G36*
X62501Y-167276D02*
X54896Y-174880D01*
X44106Y-174880D01*
X36501Y-167276D01*
X36501Y-156486D01*
X44106Y-148880D01*
X54896Y-148880D01*
X62501Y-156486D01*
X62501Y-167276D01*
G37*
G36*
X62501Y-141876D02*
X54896Y-149480D01*
X44106Y-149480D01*
X36501Y-141876D01*
X36501Y-131086D01*
X44106Y-123480D01*
X54896Y-123480D01*
X62501Y-131086D01*
X62501Y-141876D01*
G37*
G36*
X62501Y-116476D02*
X54896Y-124080D01*
X44106Y-124080D01*
X36501Y-116476D01*
X36501Y-105686D01*
X44106Y-98080D01*
X54896Y-98080D01*
X62501Y-105686D01*
X62501Y-116476D01*
G37*
G36*
X62501Y-91076D02*
X54896Y-98680D01*
X44106Y-98680D01*
X36501Y-91076D01*
X36501Y-80286D01*
X44106Y-72680D01*
X54896Y-72680D01*
X62501Y-80286D01*
X62501Y-91076D01*
G37*
G36*
X667244Y-200186D02*
X674849Y-192581D01*
X685639Y-192581D01*
X693244Y-200186D01*
X693244Y-210976D01*
X685639Y-218581D01*
X674849Y-218581D01*
X667244Y-210976D01*
X667244Y-200186D01*
G37*
G36*
X735506Y-200186D02*
X743111Y-192581D01*
X753901Y-192581D01*
X761506Y-200186D01*
X761506Y-210976D01*
X753901Y-218581D01*
X743111Y-218581D01*
X735506Y-210976D01*
X735506Y-200186D01*
G37*
G36*
X215212Y-268328D02*
X208485Y-275055D01*
X198939Y-275055D01*
X192212Y-268328D01*
X192212Y-258782D01*
X198939Y-252055D01*
X208485Y-252055D01*
X215212Y-258782D01*
X215212Y-268328D01*
G37*
G36*
X215212Y-242928D02*
X208485Y-249655D01*
X198939Y-249655D01*
X192212Y-242928D01*
X192212Y-233382D01*
X198939Y-226655D01*
X208485Y-226655D01*
X215212Y-233382D01*
X215212Y-242928D01*
G37*
G36*
X215212Y-217528D02*
X208485Y-224255D01*
X198939Y-224255D01*
X192212Y-217528D01*
X192212Y-207982D01*
X198939Y-201255D01*
X208485Y-201255D01*
X215212Y-207982D01*
X215212Y-217528D01*
G37*
G36*
X215212Y-192128D02*
X208485Y-198855D01*
X198939Y-198855D01*
X192212Y-192128D01*
X192212Y-182582D01*
X198939Y-175855D01*
X208485Y-175855D01*
X215212Y-182582D01*
X215212Y-192128D01*
G37*
G36*
X140012Y-268743D02*
X132700Y-276055D01*
X122324Y-276055D01*
X115012Y-268743D01*
X115012Y-258367D01*
X122324Y-251055D01*
X132700Y-251055D01*
X140012Y-258367D01*
X140012Y-268743D01*
G37*
G36*
X140012Y-243343D02*
X132700Y-250655D01*
X122324Y-250655D01*
X115012Y-243343D01*
X115012Y-232967D01*
X122324Y-225655D01*
X132700Y-225655D01*
X140012Y-232967D01*
X140012Y-243343D01*
G37*
G36*
X140012Y-217943D02*
X132700Y-225255D01*
X122324Y-225255D01*
X115012Y-217943D01*
X115012Y-207567D01*
X122324Y-200255D01*
X132700Y-200255D01*
X140012Y-207567D01*
X140012Y-217943D01*
G37*
G36*
X140012Y-192543D02*
X132700Y-199855D01*
X122324Y-199855D01*
X115012Y-192543D01*
X115012Y-182167D01*
X122324Y-174855D01*
X132700Y-174855D01*
X140012Y-182167D01*
X140012Y-192543D01*
G37*
G36*
X214712Y-166520D02*
X208277Y-172955D01*
X199147Y-172955D01*
X192712Y-166520D01*
X192712Y-157390D01*
X199147Y-150955D01*
X208277Y-150955D01*
X214712Y-157390D01*
X214712Y-166520D01*
G37*
G36*
X138512Y-166520D02*
X132077Y-172955D01*
X122947Y-172955D01*
X116512Y-166520D01*
X116512Y-157390D01*
X122947Y-150955D01*
X132077Y-150955D01*
X138512Y-157390D01*
X138512Y-166520D01*
G37*
G36*
X214712Y-141120D02*
X208277Y-147555D01*
X199147Y-147555D01*
X192712Y-141120D01*
X192712Y-131990D01*
X199147Y-125555D01*
X208277Y-125555D01*
X214712Y-131990D01*
X214712Y-141120D01*
G37*
G36*
X216212Y-116343D02*
X208900Y-123655D01*
X198524Y-123655D01*
X191212Y-116343D01*
X191212Y-105967D01*
X198524Y-98655D01*
X208900Y-98655D01*
X216212Y-105967D01*
X216212Y-116343D01*
G37*
G36*
X139012Y-141328D02*
X132285Y-148055D01*
X122739Y-148055D01*
X116012Y-141328D01*
X116012Y-131782D01*
X122739Y-125055D01*
X132285Y-125055D01*
X139012Y-131782D01*
X139012Y-141328D01*
G37*
G36*
X138512Y-115720D02*
X132077Y-122155D01*
X122947Y-122155D01*
X116512Y-115720D01*
X116512Y-106590D01*
X122947Y-100155D01*
X132077Y-100155D01*
X138512Y-106590D01*
X138512Y-115720D01*
G37*
G36*
X216212Y-90943D02*
X208900Y-98255D01*
X198524Y-98255D01*
X191212Y-90943D01*
X191212Y-80567D01*
X198524Y-73255D01*
X208900Y-73255D01*
X216212Y-80567D01*
X216212Y-90943D01*
G37*
G36*
X138512Y-90320D02*
X132077Y-96755D01*
X122947Y-96755D01*
X116512Y-90320D01*
X116512Y-81190D01*
X122947Y-74755D01*
X132077Y-74755D01*
X138512Y-81190D01*
X138512Y-90320D01*
G37*
G36*
X644363Y-124080D02*
X651968Y-131685D01*
X651968Y-142475D01*
X644363Y-150080D01*
X633573Y-150080D01*
X625968Y-142475D01*
X625968Y-131685D01*
X633573Y-124080D01*
X644363Y-124080D01*
G37*
G36*
X618963Y-124080D02*
X626568Y-131685D01*
X626568Y-142475D01*
X618963Y-150080D01*
X608173Y-150080D01*
X600568Y-142475D01*
X600568Y-131685D01*
X608173Y-124080D01*
X618963Y-124080D01*
G37*
G36*
X593563Y-124080D02*
X601168Y-131685D01*
X601168Y-142475D01*
X593563Y-150080D01*
X582773Y-150080D01*
X575168Y-142475D01*
X575168Y-131685D01*
X582773Y-124080D01*
X593563Y-124080D01*
G37*
G36*
X568163Y-124080D02*
X575768Y-131685D01*
X575768Y-142475D01*
X568163Y-150080D01*
X557373Y-150080D01*
X549768Y-142475D01*
X549768Y-131685D01*
X557373Y-124080D01*
X568163Y-124080D01*
G37*
G36*
X429269Y-80952D02*
X435996Y-74225D01*
X445542Y-74225D01*
X452269Y-80952D01*
X452269Y-90498D01*
X445542Y-97225D01*
X435996Y-97225D01*
X429269Y-90498D01*
X429269Y-80952D01*
G37*
G36*
X524281Y-80952D02*
X531008Y-74225D01*
X540554Y-74225D01*
X547281Y-80952D01*
X547281Y-90498D01*
X540554Y-97225D01*
X531008Y-97225D01*
X524281Y-90498D01*
X524281Y-80952D01*
G37*
G36*
X439588Y-106352D02*
X446315Y-99625D01*
X455861Y-99625D01*
X462588Y-106352D01*
X462588Y-115898D01*
X455861Y-122625D01*
X446315Y-122625D01*
X439588Y-115898D01*
X439588Y-106352D01*
G37*
G36*
X524281Y-106352D02*
X531008Y-99625D01*
X540554Y-99625D01*
X547281Y-106352D01*
X547281Y-115898D01*
X540554Y-122625D01*
X531008Y-122625D01*
X524281Y-115898D01*
X524281Y-106352D01*
G37*
G36*
X439509Y-131752D02*
X446236Y-125025D01*
X455782Y-125025D01*
X462509Y-131752D01*
X462509Y-141298D01*
X455782Y-148025D01*
X446236Y-148025D01*
X439509Y-141298D01*
X439509Y-131752D01*
G37*
G36*
X524281Y-131752D02*
X531008Y-125025D01*
X540554Y-125025D01*
X547281Y-131752D01*
X547281Y-141298D01*
X540554Y-148025D01*
X531008Y-148025D01*
X524281Y-141298D01*
X524281Y-131752D01*
G37*
G36*
X423634Y-153977D02*
X430361Y-147250D01*
X439907Y-147250D01*
X446634Y-153977D01*
X446634Y-163523D01*
X439907Y-170250D01*
X430361Y-170250D01*
X423634Y-163523D01*
X423634Y-153977D01*
G37*
G36*
X512296Y-153977D02*
X519023Y-147250D01*
X528569Y-147250D01*
X535296Y-153977D01*
X535296Y-163523D01*
X528569Y-170250D01*
X519023Y-170250D01*
X512296Y-163523D01*
X512296Y-153977D01*
G37*
G36*
X174113Y-388568D02*
X166508Y-396174D01*
X155718Y-396174D01*
X148113Y-388568D01*
X148113Y-377778D01*
X155718Y-370174D01*
X166508Y-370174D01*
X174113Y-377778D01*
X174113Y-388568D01*
G37*
G36*
X174113Y-363568D02*
X166508Y-371174D01*
X155718Y-371174D01*
X148113Y-363568D01*
X148113Y-352778D01*
X155718Y-345174D01*
X166508Y-345174D01*
X174113Y-352778D01*
X174113Y-363568D01*
G37*
G36*
X31831Y-427162D02*
X40606Y-418388D01*
X53056Y-418388D01*
X61831Y-427162D01*
X61831Y-439612D01*
X53056Y-448388D01*
X40606Y-448388D01*
X31831Y-439612D01*
X31831Y-427162D01*
G37*
G36*
X31038Y-355725D02*
X39812Y-346950D01*
X52262Y-346950D01*
X61038Y-355725D01*
X61038Y-368175D01*
X52262Y-376950D01*
X39812Y-376950D01*
X31038Y-368175D01*
X31038Y-355725D01*
G37*
G36*
X625175Y-378224D02*
X632780Y-370619D01*
X643570Y-370619D01*
X651175Y-378224D01*
X651175Y-389014D01*
X643570Y-396619D01*
X632780Y-396619D01*
X625175Y-389014D01*
X625175Y-378224D01*
G37*
G36*
X679150Y-378304D02*
X686755Y-370699D01*
X697545Y-370699D01*
X705150Y-378304D01*
X705150Y-389094D01*
X697545Y-396699D01*
X686755Y-396699D01*
X679150Y-389094D01*
X679150Y-378304D01*
G37*
G36*
X625175Y-405768D02*
X632780Y-398162D01*
X643570Y-398162D01*
X651175Y-405768D01*
X651175Y-416558D01*
X643570Y-424162D01*
X632780Y-424162D01*
X625175Y-416558D01*
X625175Y-405768D01*
G37*
G36*
X679150Y-405768D02*
X686755Y-398162D01*
X697545Y-398162D01*
X705150Y-405768D01*
X705150Y-416558D01*
X697545Y-424162D01*
X686755Y-424162D01*
X679150Y-416558D01*
X679150Y-405768D01*
G37*
G36*
X490283Y-535019D02*
X483556Y-528292D01*
X483556Y-518746D01*
X490283Y-512019D01*
X499829Y-512019D01*
X506556Y-518746D01*
X506556Y-528292D01*
X499829Y-535019D01*
X490283Y-535019D01*
G37*
G36*
X490283Y-509619D02*
X483556Y-502892D01*
X483556Y-493346D01*
X490283Y-486619D01*
X499829Y-486619D01*
X506556Y-493346D01*
X506556Y-502892D01*
X499829Y-509619D01*
X490283Y-509619D01*
G37*
G36*
X515683Y-535019D02*
X508956Y-528292D01*
X508956Y-518746D01*
X515683Y-512019D01*
X525229Y-512019D01*
X531956Y-518746D01*
X531956Y-528292D01*
X525229Y-535019D01*
X515683Y-535019D01*
G37*
G36*
X515683Y-509619D02*
X508956Y-502892D01*
X508956Y-493346D01*
X515683Y-486619D01*
X525229Y-486619D01*
X531956Y-493346D01*
X531956Y-502892D01*
X525229Y-509619D01*
X515683Y-509619D01*
G37*
G36*
X541083Y-535019D02*
X534356Y-528292D01*
X534356Y-518746D01*
X541083Y-512019D01*
X550629Y-512019D01*
X557356Y-518746D01*
X557356Y-528292D01*
X550629Y-535019D01*
X541083Y-535019D01*
G37*
G36*
X541083Y-509619D02*
X534356Y-502892D01*
X534356Y-493346D01*
X541083Y-486619D01*
X550629Y-486619D01*
X557356Y-493346D01*
X557356Y-502892D01*
X550629Y-509619D01*
X541083Y-509619D01*
G37*
G36*
X566483Y-535019D02*
X559756Y-528292D01*
X559756Y-518746D01*
X566483Y-512019D01*
X576029Y-512019D01*
X582756Y-518746D01*
X582756Y-528292D01*
X576029Y-535019D01*
X566483Y-535019D01*
G37*
G36*
X566483Y-509619D02*
X559756Y-502892D01*
X559756Y-493346D01*
X566483Y-486619D01*
X576029Y-486619D01*
X582756Y-493346D01*
X582756Y-502892D01*
X576029Y-509619D01*
X566483Y-509619D01*
G37*
G36*
X591883Y-535019D02*
X585156Y-528292D01*
X585156Y-518746D01*
X591883Y-512019D01*
X601429Y-512019D01*
X608156Y-518746D01*
X608156Y-528292D01*
X601429Y-535019D01*
X591883Y-535019D01*
G37*
G36*
X585156Y-509619D02*
X585156Y-486619D01*
X608156Y-486619D01*
X608156Y-509619D01*
X585156Y-509619D01*
G37*
G36*
X424496Y-123524D02*
X432100Y-131130D01*
X432100Y-141920D01*
X424496Y-149524D01*
X413706Y-149524D01*
X406100Y-141920D01*
X406100Y-131130D01*
X413706Y-123524D01*
X424496Y-123524D01*
G37*
G36*
X399096Y-123524D02*
X406700Y-131130D01*
X406700Y-141920D01*
X399096Y-149524D01*
X388306Y-149524D01*
X380700Y-141920D01*
X380700Y-131130D01*
X388306Y-123524D01*
X399096Y-123524D01*
G37*
G36*
X373696Y-123524D02*
X381300Y-131130D01*
X381300Y-141920D01*
X373696Y-149524D01*
X362906Y-149524D01*
X355300Y-141920D01*
X355300Y-131130D01*
X362906Y-123524D01*
X373696Y-123524D01*
G37*
G36*
X348296Y-123524D02*
X355900Y-131130D01*
X355900Y-141920D01*
X348296Y-149524D01*
X337506Y-149524D01*
X329900Y-141920D01*
X329900Y-131130D01*
X337506Y-123524D01*
X348296Y-123524D01*
G37*
G36*
X322896Y-123524D02*
X330500Y-131130D01*
X330500Y-141920D01*
X322896Y-149524D01*
X312106Y-149524D01*
X304500Y-141920D01*
X304500Y-131130D01*
X312106Y-123524D01*
X322896Y-123524D01*
G37*
G36*
X270284Y-393124D02*
X263264Y-400144D01*
X253304Y-400144D01*
X246284Y-393124D01*
X246284Y-383164D01*
X253304Y-376144D01*
X263264Y-376144D01*
X270284Y-383164D01*
X270284Y-393124D01*
G37*
G36*
X230284Y-393124D02*
X223264Y-400144D01*
X213304Y-400144D01*
X206284Y-393124D01*
X206284Y-383164D01*
X213304Y-376144D01*
X223264Y-376144D01*
X230284Y-383164D01*
X230284Y-393124D01*
G37*
G36*
X99784Y-246052D02*
X106511Y-239325D01*
X116057Y-239325D01*
X122784Y-246052D01*
X122784Y-255598D01*
X116057Y-262325D01*
X106511Y-262325D01*
X99784Y-255598D01*
X99784Y-246052D01*
G37*
G36*
X99704Y-324633D02*
X106431Y-317906D01*
X115977Y-317906D01*
X122704Y-324633D01*
X122704Y-334179D01*
X115977Y-340906D01*
X106431Y-340906D01*
X99704Y-334179D01*
X99704Y-324633D01*
G37*
G36*
X219481Y-115083D02*
X226208Y-108356D01*
X235754Y-108356D01*
X242481Y-115083D01*
X242481Y-124629D01*
X235754Y-131356D01*
X226208Y-131356D01*
X219481Y-124629D01*
X219481Y-115083D01*
G37*
G36*
X218688Y-278596D02*
X225414Y-271869D01*
X234960Y-271869D01*
X241688Y-278596D01*
X241688Y-288142D01*
X234960Y-294869D01*
X225414Y-294869D01*
X218688Y-288142D01*
X218688Y-278596D01*
G37*
M02*
