%FSLAX34Y34*%
%MOMM*%
%LNCOPPER_BOTTOM*%
G71*
G01*
%ADD10R,2.700X3.200*%
%ADD11R,4.400X2.900*%
%ADD12C,2.200*%
%ADD13R,3.200X2.700*%
%ADD14C,2.800*%
%ADD15C,1.800*%
%ADD16C,3.300*%
%ADD17C,3.700*%
%ADD18C,2.000*%
%ADD19C,3.100*%
%ADD20C,2.400*%
%ADD21C,1.638*%
%ADD22C,1.718*%
%ADD23C,1.797*%
%ADD24C,1.686*%
%ADD25C,1.500*%
%ADD26R,2.500X2.500*%
%ADD27C,1.600*%
%ADD28R,1.300X1.800*%
%ADD29R,3.000X1.500*%
%ADD30C,0.800*%
%ADD31R,1.800X1.300*%
%ADD32C,1.400*%
%ADD33C,0.400*%
%ADD34C,1.900*%
%ADD35C,2.300*%
%ADD36C,0.600*%
%ADD37C,1.700*%
%ADD38C,1.000*%
%ADD39C,0.238*%
%ADD40C,0.318*%
%ADD41C,0.397*%
%ADD42C,0.286*%
%ADD43C,0.100*%
%ADD44R,1.100X1.100*%
%ADD45C,0.200*%
%LPD*%
G36*
X0Y0D02*
X850000Y0D01*
X850000Y-570000D01*
X0Y-570000D01*
X0Y0D01*
G37*
%LPC*%
G36*
X451101Y-214011D02*
X461046Y-223956D01*
X461046Y-238066D01*
X451101Y-248011D01*
X436991Y-248011D01*
X427046Y-238066D01*
X427046Y-223956D01*
X436991Y-214011D01*
X451101Y-214011D01*
G37*
G36*
X501901Y-214011D02*
X511846Y-223956D01*
X511846Y-238066D01*
X501901Y-248011D01*
X487791Y-248011D01*
X477846Y-238066D01*
X477846Y-223956D01*
X487791Y-214011D01*
X501901Y-214011D01*
G37*
G36*
X450478Y-317111D02*
X459546Y-326179D01*
X459546Y-339043D01*
X450478Y-348111D01*
X437614Y-348111D01*
X428546Y-339043D01*
X428546Y-326179D01*
X437614Y-317111D01*
X450478Y-317111D01*
G37*
G36*
X501901Y-315611D02*
X511846Y-325556D01*
X511846Y-339666D01*
X501901Y-349611D01*
X487791Y-349611D01*
X477846Y-339666D01*
X477846Y-325556D01*
X487791Y-315611D01*
X501901Y-315611D01*
G37*
G36*
X450478Y-291711D02*
X459546Y-300779D01*
X459546Y-313643D01*
X450478Y-322711D01*
X437614Y-322711D01*
X428546Y-313643D01*
X428546Y-300779D01*
X437614Y-291711D01*
X450478Y-291711D01*
G37*
G36*
X501901Y-290211D02*
X511846Y-300156D01*
X511846Y-314266D01*
X501901Y-324211D01*
X487791Y-324211D01*
X477846Y-314266D01*
X477846Y-300156D01*
X487791Y-290211D01*
X501901Y-290211D01*
G37*
G36*
X501901Y-264811D02*
X511846Y-274756D01*
X511846Y-288866D01*
X501901Y-298811D01*
X487791Y-298811D01*
X477846Y-288866D01*
X477846Y-274756D01*
X487791Y-264811D01*
X501901Y-264811D01*
G37*
G36*
X451101Y-264811D02*
X461046Y-274756D01*
X461046Y-288866D01*
X451101Y-298811D01*
X436991Y-298811D01*
X427046Y-288866D01*
X427046Y-274756D01*
X436991Y-264811D01*
X451101Y-264811D01*
G37*
G36*
X755901Y-214011D02*
X765846Y-223956D01*
X765846Y-238066D01*
X755901Y-248011D01*
X741791Y-248011D01*
X731846Y-238066D01*
X731846Y-223956D01*
X741791Y-214011D01*
X755901Y-214011D01*
G37*
G36*
X806701Y-214011D02*
X816646Y-223956D01*
X816646Y-238066D01*
X806701Y-248011D01*
X792591Y-248011D01*
X782646Y-238066D01*
X782646Y-223956D01*
X792591Y-214011D01*
X806701Y-214011D01*
G37*
G36*
X755901Y-315611D02*
X765846Y-325556D01*
X765846Y-339666D01*
X755901Y-349611D01*
X741791Y-349611D01*
X731846Y-339666D01*
X731846Y-325556D01*
X741791Y-315611D01*
X755901Y-315611D01*
G37*
G36*
X806701Y-315611D02*
X816646Y-325556D01*
X816646Y-339666D01*
X806701Y-349611D01*
X792591Y-349611D01*
X782646Y-339666D01*
X782646Y-325556D01*
X792591Y-315611D01*
X806701Y-315611D01*
G37*
G36*
X755901Y-290211D02*
X765846Y-300156D01*
X765846Y-314266D01*
X755901Y-324211D01*
X741791Y-324211D01*
X731846Y-314266D01*
X731846Y-300156D01*
X741791Y-290211D01*
X755901Y-290211D01*
G37*
G36*
X806701Y-290211D02*
X816646Y-300156D01*
X816646Y-314266D01*
X806701Y-324211D01*
X792591Y-324211D01*
X782646Y-314266D01*
X782646Y-300156D01*
X792591Y-290211D01*
X806701Y-290211D01*
G37*
G36*
X806701Y-264811D02*
X816646Y-274756D01*
X816646Y-288866D01*
X806701Y-298811D01*
X792591Y-298811D01*
X782646Y-288866D01*
X782646Y-274756D01*
X792591Y-264811D01*
X806701Y-264811D01*
G37*
G36*
X755901Y-264811D02*
X765846Y-274756D01*
X765846Y-288866D01*
X755901Y-298811D01*
X741791Y-298811D01*
X731846Y-288866D01*
X731846Y-274756D01*
X741791Y-264811D01*
X755901Y-264811D01*
G37*
G36*
X349501Y-214011D02*
X359446Y-223956D01*
X359446Y-238066D01*
X349501Y-248011D01*
X335391Y-248011D01*
X325446Y-238066D01*
X325446Y-223956D01*
X335391Y-214011D01*
X349501Y-214011D01*
G37*
G36*
X400301Y-214011D02*
X410246Y-223956D01*
X410246Y-238066D01*
X400301Y-248011D01*
X386191Y-248011D01*
X376246Y-238066D01*
X376246Y-223956D01*
X386191Y-214011D01*
X400301Y-214011D01*
G37*
G36*
X349501Y-315611D02*
X359446Y-325556D01*
X359446Y-339666D01*
X349501Y-349611D01*
X335391Y-349611D01*
X325446Y-339666D01*
X325446Y-325556D01*
X335391Y-315611D01*
X349501Y-315611D01*
G37*
G36*
X400301Y-315611D02*
X410246Y-325556D01*
X410246Y-339666D01*
X400301Y-349611D01*
X386191Y-349611D01*
X376246Y-339666D01*
X376246Y-325556D01*
X386191Y-315611D01*
X400301Y-315611D01*
G37*
G36*
X349501Y-290211D02*
X359446Y-300156D01*
X359446Y-314266D01*
X349501Y-324211D01*
X335391Y-324211D01*
X325446Y-314266D01*
X325446Y-300156D01*
X335391Y-290211D01*
X349501Y-290211D01*
G37*
G36*
X400301Y-290211D02*
X410246Y-300156D01*
X410246Y-314266D01*
X400301Y-324211D01*
X386191Y-324211D01*
X376246Y-314266D01*
X376246Y-300156D01*
X386191Y-290211D01*
X400301Y-290211D01*
G37*
G36*
X400301Y-264811D02*
X410246Y-274756D01*
X410246Y-288866D01*
X400301Y-298811D01*
X386191Y-298811D01*
X376246Y-288866D01*
X376246Y-274756D01*
X386191Y-264811D01*
X400301Y-264811D01*
G37*
G36*
X349501Y-264811D02*
X359446Y-274756D01*
X359446Y-288866D01*
X349501Y-298811D01*
X335391Y-298811D01*
X325446Y-288866D01*
X325446Y-274756D01*
X335391Y-264811D01*
X349501Y-264811D01*
G37*
X615906Y-412850D02*
G54D10*
D03*
X583406Y-412750D02*
G54D10*
D03*
X615906Y-383481D02*
G54D10*
D03*
X583406Y-383381D02*
G54D10*
D03*
X631774Y-430262D02*
G54D11*
D03*
X631774Y-468262D02*
G54D11*
D03*
G54D12*
X583406Y-383381D02*
X583406Y-365125D01*
X577850Y-359569D01*
X577850Y-287338D01*
X583406Y-281781D01*
X596416Y-281781D01*
X596446Y-281811D01*
G54D12*
X615906Y-383481D02*
X615906Y-315075D01*
X608012Y-307181D01*
X596476Y-307181D01*
X596446Y-307211D01*
X544988Y-376971D02*
G54D11*
D03*
X544988Y-414971D02*
G54D11*
D03*
G36*
X792926Y-468228D02*
X781518Y-479636D01*
X765334Y-479636D01*
X753926Y-468228D01*
X753926Y-452044D01*
X765334Y-440636D01*
X781518Y-440636D01*
X792926Y-452044D01*
X792926Y-468228D01*
G37*
G36*
X742126Y-468228D02*
X730718Y-479636D01*
X714534Y-479636D01*
X703126Y-468228D01*
X703126Y-452044D01*
X714534Y-440636D01*
X730718Y-440636D01*
X742126Y-452044D01*
X742126Y-468228D01*
G37*
G54D12*
X659606Y-478631D02*
X659606Y-372269D01*
X651669Y-364331D01*
X635794Y-364331D01*
X628650Y-357188D01*
X628650Y-288925D01*
X635794Y-281781D01*
X647216Y-281781D01*
X647246Y-281811D01*
X722000Y-106399D02*
G54D13*
D03*
X722100Y-73899D02*
G54D13*
D03*
X722000Y-158786D02*
G54D13*
D03*
X722100Y-126286D02*
G54D13*
D03*
G36*
X741790Y-145306D02*
X730382Y-133898D01*
X730382Y-117714D01*
X741790Y-106306D01*
X757974Y-106306D01*
X769382Y-117714D01*
X769382Y-133898D01*
X757974Y-145306D01*
X741790Y-145306D01*
G37*
G36*
X741790Y-94506D02*
X730382Y-83098D01*
X730382Y-66914D01*
X741790Y-55506D01*
X757974Y-55506D01*
X769382Y-66914D01*
X769382Y-83098D01*
X757974Y-94506D01*
X741790Y-94506D01*
G37*
G54D12*
X722100Y-73899D02*
X749882Y-73418D01*
G54D12*
X722000Y-158786D02*
X740400Y-158786D01*
X749881Y-149305D01*
X749882Y-124218D01*
G36*
X3000Y-18795D02*
X18795Y-3000D01*
X41205Y-3000D01*
X57000Y-18795D01*
X57000Y-41205D01*
X41205Y-57000D01*
X18795Y-57000D01*
X3000Y-41205D01*
X3000Y-18795D01*
G37*
G36*
X793000Y-18795D02*
X808795Y-3000D01*
X831205Y-3000D01*
X847000Y-18795D01*
X847000Y-41205D01*
X831205Y-57000D01*
X808795Y-57000D01*
X793000Y-41205D01*
X793000Y-18795D01*
G37*
G36*
X3000Y-528795D02*
X18795Y-513000D01*
X41205Y-513000D01*
X57000Y-528795D01*
X57000Y-551205D01*
X41205Y-567000D01*
X18795Y-567000D01*
X3000Y-551205D01*
X3000Y-528795D01*
G37*
G36*
X793000Y-528795D02*
X808795Y-513000D01*
X831205Y-513000D01*
X847000Y-528795D01*
X847000Y-551205D01*
X831205Y-567000D01*
X808795Y-567000D01*
X793000Y-551205D01*
X793000Y-528795D01*
G37*
G36*
X425849Y-369320D02*
X438719Y-382190D01*
X438719Y-400450D01*
X425849Y-413320D01*
X407589Y-413320D01*
X394719Y-400450D01*
X394719Y-382190D01*
X407589Y-369320D01*
X425849Y-369320D01*
G37*
G36*
X425849Y-521720D02*
X438719Y-534590D01*
X438719Y-552850D01*
X425849Y-565720D01*
X407589Y-565720D01*
X394719Y-552850D01*
X394719Y-534590D01*
X407589Y-521720D01*
X425849Y-521720D01*
G37*
G36*
X290094Y-384887D02*
X299162Y-375819D01*
X312026Y-375819D01*
X321094Y-384887D01*
X321094Y-397751D01*
X312026Y-406819D01*
X299162Y-406819D01*
X290094Y-397751D01*
X290094Y-384887D01*
G37*
G36*
X290094Y-410287D02*
X299162Y-401219D01*
X312026Y-401219D01*
X321094Y-410287D01*
X321094Y-423151D01*
X312026Y-432219D01*
X299162Y-432219D01*
X290094Y-423151D01*
X290094Y-410287D01*
G37*
G36*
X290094Y-435687D02*
X299162Y-426619D01*
X312026Y-426619D01*
X321094Y-435687D01*
X321094Y-448551D01*
X312026Y-457619D01*
X299162Y-457619D01*
X290094Y-448551D01*
X290094Y-435687D01*
G37*
G36*
X290094Y-461087D02*
X299162Y-452019D01*
X312026Y-452019D01*
X321094Y-461087D01*
X321094Y-473951D01*
X312026Y-483019D01*
X299162Y-483019D01*
X290094Y-473951D01*
X290094Y-461087D01*
G37*
G36*
X366294Y-384887D02*
X375362Y-375819D01*
X388226Y-375819D01*
X397294Y-384887D01*
X397294Y-397751D01*
X388226Y-406819D01*
X375362Y-406819D01*
X366294Y-397751D01*
X366294Y-384887D01*
G37*
G36*
X366294Y-410287D02*
X375362Y-401219D01*
X388226Y-401219D01*
X397294Y-410287D01*
X397294Y-423151D01*
X388226Y-432219D01*
X375362Y-432219D01*
X366294Y-423151D01*
X366294Y-410287D01*
G37*
G36*
X366294Y-435687D02*
X375362Y-426619D01*
X388226Y-426619D01*
X397294Y-435687D01*
X397294Y-448551D01*
X388226Y-457619D01*
X375362Y-457619D01*
X366294Y-448551D01*
X366294Y-435687D01*
G37*
G36*
X366294Y-461087D02*
X375362Y-452019D01*
X388226Y-452019D01*
X397294Y-461087D01*
X397294Y-473951D01*
X388226Y-483019D01*
X375362Y-483019D01*
X366294Y-473951D01*
X366294Y-461087D01*
G37*
G54D12*
X305594Y-391319D02*
X381794Y-391319D01*
G54D12*
X381794Y-416719D02*
X381794Y-391319D01*
G36*
X305938Y-518164D02*
X317346Y-506756D01*
X333530Y-506756D01*
X344938Y-518164D01*
X344938Y-534348D01*
X333530Y-545756D01*
X317346Y-545756D01*
X305938Y-534348D01*
X305938Y-518164D01*
G37*
G36*
X345938Y-518164D02*
X357346Y-506756D01*
X373530Y-506756D01*
X384938Y-518164D01*
X384938Y-534348D01*
X373530Y-545756D01*
X357346Y-545756D01*
X345938Y-534348D01*
X345938Y-518164D01*
G37*
G36*
X275143Y-508919D02*
X265783Y-499559D01*
X265783Y-486279D01*
X275143Y-476919D01*
X288423Y-476919D01*
X297783Y-486279D01*
X297783Y-499559D01*
X288423Y-508919D01*
X275143Y-508919D01*
G37*
G36*
X275143Y-458119D02*
X265783Y-448759D01*
X265783Y-435479D01*
X275143Y-426119D01*
X288423Y-426119D01*
X297783Y-435479D01*
X297783Y-448759D01*
X288423Y-458119D01*
X275143Y-458119D01*
G37*
X396009Y-517950D02*
G54D13*
D03*
X396109Y-485450D02*
G54D13*
D03*
G54D12*
X416719Y-391320D02*
X381794Y-391319D01*
G54D14*
X416719Y-543720D02*
X382902Y-543720D01*
X365438Y-526256D01*
X340151Y-434650D02*
G54D13*
D03*
X340051Y-467150D02*
G54D13*
D03*
G54D15*
X372269Y-429419D02*
X390525Y-429419D01*
G54D12*
X340151Y-434650D02*
X345281Y-429419D01*
X369094Y-429419D01*
G54D12*
X381794Y-467519D02*
X397669Y-467519D01*
X402431Y-462756D01*
X402431Y-434181D01*
X397669Y-429419D01*
X392906Y-429419D01*
G36*
X189961Y-502687D02*
X201369Y-514095D01*
X201369Y-530279D01*
X189961Y-541687D01*
X173777Y-541687D01*
X162369Y-530279D01*
X162369Y-514095D01*
X173777Y-502687D01*
X189961Y-502687D01*
G37*
G36*
X189961Y-452681D02*
X201369Y-464089D01*
X201369Y-480273D01*
X189961Y-491681D01*
X173777Y-491681D01*
X162369Y-480273D01*
X162369Y-464089D01*
X173777Y-452681D01*
X189961Y-452681D01*
G37*
G54D16*
X181869Y-472181D02*
X76995Y-472281D01*
G54D17*
X76995Y-512281D02*
X76994Y-546894D01*
X84138Y-554038D01*
X337344Y-553244D01*
G36*
X86124Y-360588D02*
X98994Y-373458D01*
X98994Y-391718D01*
X86124Y-404588D01*
X67864Y-404588D01*
X54994Y-391718D01*
X54994Y-373458D01*
X67864Y-360588D01*
X86124Y-360588D01*
G37*
G36*
X86124Y-411388D02*
X98994Y-424258D01*
X98994Y-442518D01*
X86124Y-455388D01*
X67864Y-455388D01*
X54994Y-442518D01*
X54994Y-424258D01*
X67864Y-411388D01*
X86124Y-411388D01*
G37*
G36*
X136924Y-385988D02*
X149794Y-398858D01*
X149794Y-417118D01*
X136924Y-429988D01*
X118664Y-429988D01*
X105794Y-417118D01*
X105794Y-398858D01*
X118664Y-385988D01*
X136924Y-385988D01*
G37*
X164306Y-407988D02*
G54D10*
D03*
X196806Y-408088D02*
G54D10*
D03*
G54D15*
X294481Y-404019D02*
X319881Y-404019D01*
G54D12*
X319881Y-404019D02*
X334962Y-404019D01*
X341312Y-410369D01*
X341312Y-428625D01*
G54D12*
X76995Y-472281D02*
X76994Y-433388D01*
X108275Y-510568D02*
G54D13*
D03*
X108375Y-478068D02*
G54D13*
D03*
G54D12*
X76994Y-382588D02*
X102394Y-382588D01*
X127794Y-407988D01*
G54D12*
X322264Y-525462D02*
X297656Y-525462D01*
X292894Y-530225D01*
X270670Y-530224D01*
G54D12*
X305594Y-467519D02*
X280976Y-467519D01*
X275433Y-473062D01*
X275433Y-500062D01*
G36*
X68903Y-531781D02*
X57495Y-520373D01*
X57495Y-504189D01*
X68903Y-492781D01*
X85087Y-492781D01*
X96495Y-504189D01*
X96495Y-520373D01*
X85087Y-531781D01*
X68903Y-531781D01*
G37*
G36*
X68903Y-491781D02*
X57495Y-480373D01*
X57495Y-464189D01*
X68903Y-452781D01*
X85087Y-452781D01*
X96495Y-464189D01*
X96495Y-480373D01*
X85087Y-491781D01*
X68903Y-491781D01*
G37*
G54D18*
X76994Y-472281D02*
X48419Y-472281D01*
X42862Y-477838D01*
G36*
X270670Y-549276D02*
X278606Y-557212D01*
X338931Y-557212D01*
X345281Y-550862D01*
X345281Y-473075D01*
X339725Y-467519D01*
X275431Y-467519D01*
X270669Y-472281D01*
X270670Y-549276D01*
G37*
G54D12*
X270670Y-549276D02*
X278606Y-557212D01*
X338931Y-557212D01*
X345281Y-550862D01*
X345281Y-473075D01*
X339725Y-467519D01*
X275431Y-467519D01*
X270669Y-472281D01*
X270670Y-549276D01*
G36*
X256672Y-461044D02*
X266032Y-470404D01*
X266032Y-483684D01*
X256672Y-493044D01*
X243392Y-493044D01*
X234032Y-483684D01*
X234032Y-470404D01*
X243392Y-461044D01*
X256672Y-461044D01*
G37*
G36*
X256672Y-537244D02*
X266032Y-546604D01*
X266032Y-559884D01*
X256672Y-569244D01*
X243392Y-569244D01*
X234032Y-559884D01*
X234032Y-546604D01*
X243392Y-537244D01*
X256672Y-537244D01*
G37*
G54D19*
X181869Y-522187D02*
X242194Y-522187D01*
X250031Y-514350D01*
X250032Y-477044D01*
G54D20*
X250032Y-480219D02*
X250032Y-424656D01*
X257969Y-416719D01*
X305594Y-416719D01*
G54D20*
X281783Y-442119D02*
X305594Y-442119D01*
G36*
X654301Y-214011D02*
X664246Y-223956D01*
X664246Y-238066D01*
X654301Y-248011D01*
X640191Y-248011D01*
X630246Y-238066D01*
X630246Y-223956D01*
X640191Y-214011D01*
X654301Y-214011D01*
G37*
G36*
X705101Y-214011D02*
X715046Y-223956D01*
X715046Y-238066D01*
X705101Y-248011D01*
X690991Y-248011D01*
X681046Y-238066D01*
X681046Y-223956D01*
X690991Y-214011D01*
X705101Y-214011D01*
G37*
G36*
X654301Y-315611D02*
X664246Y-325556D01*
X664246Y-339666D01*
X654301Y-349611D01*
X640191Y-349611D01*
X630246Y-339666D01*
X630246Y-325556D01*
X640191Y-315611D01*
X654301Y-315611D01*
G37*
G36*
X705101Y-315611D02*
X715046Y-325556D01*
X715046Y-339666D01*
X705101Y-349611D01*
X690991Y-349611D01*
X681046Y-339666D01*
X681046Y-325556D01*
X690991Y-315611D01*
X705101Y-315611D01*
G37*
G36*
X654301Y-290211D02*
X664246Y-300156D01*
X664246Y-314266D01*
X654301Y-324211D01*
X640191Y-324211D01*
X630246Y-314266D01*
X630246Y-300156D01*
X640191Y-290211D01*
X654301Y-290211D01*
G37*
G36*
X705101Y-290211D02*
X715046Y-300156D01*
X715046Y-314266D01*
X705101Y-324211D01*
X690991Y-324211D01*
X681046Y-314266D01*
X681046Y-300156D01*
X690991Y-290211D01*
X705101Y-290211D01*
G37*
G36*
X705101Y-264811D02*
X715046Y-274756D01*
X715046Y-288866D01*
X705101Y-298811D01*
X690991Y-298811D01*
X681046Y-288866D01*
X681046Y-274756D01*
X690991Y-264811D01*
X705101Y-264811D01*
G37*
G36*
X654301Y-264811D02*
X664246Y-274756D01*
X664246Y-288866D01*
X654301Y-298811D01*
X640191Y-298811D01*
X630246Y-288866D01*
X630246Y-274756D01*
X640191Y-264811D01*
X654301Y-264811D01*
G37*
G36*
X552701Y-214011D02*
X562646Y-223956D01*
X562646Y-238066D01*
X552701Y-248011D01*
X538591Y-248011D01*
X528646Y-238066D01*
X528646Y-223956D01*
X538591Y-214011D01*
X552701Y-214011D01*
G37*
G36*
X603501Y-214011D02*
X613446Y-223956D01*
X613446Y-238066D01*
X603501Y-248011D01*
X589391Y-248011D01*
X579446Y-238066D01*
X579446Y-223956D01*
X589391Y-214011D01*
X603501Y-214011D01*
G37*
G36*
X552701Y-315611D02*
X562646Y-325556D01*
X562646Y-339666D01*
X552701Y-349611D01*
X538591Y-349611D01*
X528646Y-339666D01*
X528646Y-325556D01*
X538591Y-315611D01*
X552701Y-315611D01*
G37*
G36*
X603501Y-315611D02*
X613446Y-325556D01*
X613446Y-339666D01*
X603501Y-349611D01*
X589391Y-349611D01*
X579446Y-339666D01*
X579446Y-325556D01*
X589391Y-315611D01*
X603501Y-315611D01*
G37*
G36*
X552701Y-290211D02*
X562646Y-300156D01*
X562646Y-314266D01*
X552701Y-324211D01*
X538591Y-324211D01*
X528646Y-314266D01*
X528646Y-300156D01*
X538591Y-290211D01*
X552701Y-290211D01*
G37*
G36*
X603501Y-290211D02*
X613446Y-300156D01*
X613446Y-314266D01*
X603501Y-324211D01*
X589391Y-324211D01*
X579446Y-314266D01*
X579446Y-300156D01*
X589391Y-290211D01*
X603501Y-290211D01*
G37*
G36*
X603501Y-264811D02*
X613446Y-274756D01*
X613446Y-288866D01*
X603501Y-298811D01*
X589391Y-298811D01*
X579446Y-288866D01*
X579446Y-274756D01*
X589391Y-264811D01*
X603501Y-264811D01*
G37*
G36*
X552701Y-264811D02*
X562646Y-274756D01*
X562646Y-288866D01*
X552701Y-298811D01*
X538591Y-298811D01*
X528646Y-288866D01*
X528646Y-274756D01*
X538591Y-264811D01*
X552701Y-264811D01*
G37*
G36*
X295101Y-270536D02*
X285156Y-280480D01*
X271046Y-280480D01*
X261101Y-270536D01*
X261101Y-256426D01*
X271046Y-246480D01*
X285156Y-246480D01*
X295101Y-256426D01*
X295101Y-270536D01*
G37*
G36*
X295101Y-245136D02*
X285156Y-255080D01*
X271046Y-255080D01*
X261101Y-245136D01*
X261101Y-231026D01*
X271046Y-221080D01*
X285156Y-221080D01*
X295101Y-231026D01*
X295101Y-245136D01*
G37*
G36*
X295101Y-219736D02*
X285156Y-229680D01*
X271046Y-229680D01*
X261101Y-219736D01*
X261101Y-205626D01*
X271046Y-195680D01*
X285156Y-195680D01*
X295101Y-205626D01*
X295101Y-219736D01*
G37*
G36*
X295101Y-194336D02*
X285156Y-204280D01*
X271046Y-204280D01*
X261101Y-194336D01*
X261101Y-180226D01*
X271046Y-170280D01*
X285156Y-170280D01*
X295101Y-180226D01*
X295101Y-194336D01*
G37*
G36*
X295101Y-168936D02*
X285156Y-178880D01*
X271046Y-178880D01*
X261101Y-168936D01*
X261101Y-154826D01*
X271046Y-144880D01*
X285156Y-144880D01*
X295101Y-154826D01*
X295101Y-168936D01*
G37*
G36*
X293601Y-142912D02*
X284533Y-151980D01*
X271669Y-151980D01*
X262601Y-142912D01*
X262601Y-130048D01*
X271669Y-120980D01*
X284533Y-120980D01*
X293601Y-130048D01*
X293601Y-142912D01*
G37*
G36*
X293601Y-117512D02*
X284533Y-126580D01*
X271669Y-126580D01*
X262601Y-117512D01*
X262601Y-104648D01*
X271669Y-95580D01*
X284533Y-95580D01*
X293601Y-104648D01*
X293601Y-117512D01*
G37*
G36*
X295101Y-92736D02*
X285156Y-102680D01*
X271046Y-102680D01*
X261101Y-92736D01*
X261101Y-78626D01*
X271046Y-68680D01*
X285156Y-68680D01*
X295101Y-78626D01*
X295101Y-92736D01*
G37*
G36*
X66501Y-270536D02*
X56556Y-280480D01*
X42446Y-280480D01*
X32501Y-270536D01*
X32501Y-256426D01*
X42446Y-246480D01*
X56556Y-246480D01*
X66501Y-256426D01*
X66501Y-270536D01*
G37*
G36*
X66501Y-245136D02*
X56556Y-255080D01*
X42446Y-255080D01*
X32501Y-245136D01*
X32501Y-231026D01*
X42446Y-221080D01*
X56556Y-221080D01*
X66501Y-231026D01*
X66501Y-245136D01*
G37*
G36*
X66501Y-219736D02*
X56556Y-229680D01*
X42446Y-229680D01*
X32501Y-219736D01*
X32501Y-205626D01*
X42446Y-195680D01*
X56556Y-195680D01*
X66501Y-205626D01*
X66501Y-219736D01*
G37*
G36*
X66501Y-194336D02*
X56556Y-204280D01*
X42446Y-204280D01*
X32501Y-194336D01*
X32501Y-180226D01*
X42446Y-170280D01*
X56556Y-170280D01*
X66501Y-180226D01*
X66501Y-194336D01*
G37*
G36*
X66501Y-168936D02*
X56556Y-178880D01*
X42446Y-178880D01*
X32501Y-168936D01*
X32501Y-154826D01*
X42446Y-144880D01*
X56556Y-144880D01*
X66501Y-154826D01*
X66501Y-168936D01*
G37*
G36*
X66501Y-143536D02*
X56556Y-153480D01*
X42446Y-153480D01*
X32501Y-143536D01*
X32501Y-129426D01*
X42446Y-119480D01*
X56556Y-119480D01*
X66501Y-129426D01*
X66501Y-143536D01*
G37*
G36*
X66501Y-118136D02*
X56556Y-128080D01*
X42446Y-128080D01*
X32501Y-118136D01*
X32501Y-104026D01*
X42446Y-94080D01*
X56556Y-94080D01*
X66501Y-104026D01*
X66501Y-118136D01*
G37*
G36*
X66501Y-92736D02*
X56556Y-102680D01*
X42446Y-102680D01*
X32501Y-92736D01*
X32501Y-78626D01*
X42446Y-68680D01*
X56556Y-68680D01*
X66501Y-78626D01*
X66501Y-92736D01*
G37*
G54D12*
X721306Y-126286D02*
X722000Y-106399D01*
G36*
X663244Y-198526D02*
X673189Y-188581D01*
X687299Y-188581D01*
X697244Y-198526D01*
X697244Y-212636D01*
X687299Y-222581D01*
X673189Y-222581D01*
X663244Y-212636D01*
X663244Y-198526D01*
G37*
G36*
X731506Y-198526D02*
X741451Y-188581D01*
X755561Y-188581D01*
X765506Y-198526D01*
X765506Y-212636D01*
X755561Y-222581D01*
X741451Y-222581D01*
X731506Y-212636D01*
X731506Y-198526D01*
G37*
G54D12*
X748846Y-281811D02*
X766732Y-281811D01*
X773112Y-275431D01*
X773112Y-183356D01*
G54D12*
X748846Y-231011D02*
X748846Y-205921D01*
X748506Y-205581D01*
G54D12*
X748846Y-307211D02*
X737424Y-307211D01*
X729456Y-299244D01*
X729456Y-175419D01*
X722312Y-168275D01*
X722000Y-158786D01*
G54D12*
X545646Y-307211D02*
X560358Y-307211D01*
X564356Y-303212D01*
X564356Y-269875D01*
X569912Y-264319D01*
X710406Y-264319D01*
X716756Y-257969D01*
X716756Y-184150D01*
X703262Y-170656D01*
X703262Y-79375D01*
X708819Y-73819D01*
X722020Y-73819D01*
X722100Y-73899D01*
G36*
X219212Y-269987D02*
X210144Y-279055D01*
X197280Y-279055D01*
X188212Y-269987D01*
X188212Y-257123D01*
X197280Y-248055D01*
X210144Y-248055D01*
X219212Y-257123D01*
X219212Y-269987D01*
G37*
G36*
X219212Y-244587D02*
X210144Y-253655D01*
X197280Y-253655D01*
X188212Y-244587D01*
X188212Y-231723D01*
X197280Y-222655D01*
X210144Y-222655D01*
X219212Y-231723D01*
X219212Y-244587D01*
G37*
G36*
X219212Y-219187D02*
X210144Y-228255D01*
X197280Y-228255D01*
X188212Y-219187D01*
X188212Y-206323D01*
X197280Y-197255D01*
X210144Y-197255D01*
X219212Y-206323D01*
X219212Y-219187D01*
G37*
G36*
X219212Y-193787D02*
X210144Y-202855D01*
X197280Y-202855D01*
X188212Y-193787D01*
X188212Y-180923D01*
X197280Y-171855D01*
X210144Y-171855D01*
X219212Y-180923D01*
X219212Y-193787D01*
G37*
G36*
X144012Y-270403D02*
X134360Y-280055D01*
X120664Y-280055D01*
X111012Y-270403D01*
X111012Y-256707D01*
X120664Y-247055D01*
X134360Y-247055D01*
X144012Y-256707D01*
X144012Y-270403D01*
G37*
G36*
X144012Y-245003D02*
X134360Y-254655D01*
X120664Y-254655D01*
X111012Y-245003D01*
X111012Y-231307D01*
X120664Y-221655D01*
X134360Y-221655D01*
X144012Y-231307D01*
X144012Y-245003D01*
G37*
G36*
X144012Y-219603D02*
X134360Y-229255D01*
X120664Y-229255D01*
X111012Y-219603D01*
X111012Y-205907D01*
X120664Y-196255D01*
X134360Y-196255D01*
X144012Y-205907D01*
X144012Y-219603D01*
G37*
G36*
X144012Y-194203D02*
X134360Y-203855D01*
X120664Y-203855D01*
X111012Y-194203D01*
X111012Y-180507D01*
X120664Y-170855D01*
X134360Y-170855D01*
X144012Y-180507D01*
X144012Y-194203D01*
G37*
G36*
X218712Y-168180D02*
X209937Y-176955D01*
X197487Y-176955D01*
X188712Y-168180D01*
X188712Y-155730D01*
X197487Y-146955D01*
X209937Y-146955D01*
X218712Y-155730D01*
X218712Y-168180D01*
G37*
G36*
X142512Y-168180D02*
X133737Y-176955D01*
X121287Y-176955D01*
X112512Y-168180D01*
X112512Y-155730D01*
X121287Y-146955D01*
X133737Y-146955D01*
X142512Y-155730D01*
X142512Y-168180D01*
G37*
G36*
X218712Y-142780D02*
X209937Y-151555D01*
X197487Y-151555D01*
X188712Y-142780D01*
X188712Y-130330D01*
X197487Y-121555D01*
X209937Y-121555D01*
X218712Y-130330D01*
X218712Y-142780D01*
G37*
G36*
X220212Y-118003D02*
X210560Y-127655D01*
X196864Y-127655D01*
X187212Y-118003D01*
X187212Y-104307D01*
X196864Y-94655D01*
X210560Y-94655D01*
X220212Y-104307D01*
X220212Y-118003D01*
G37*
G36*
X143012Y-142987D02*
X133944Y-152055D01*
X121080Y-152055D01*
X112012Y-142987D01*
X112012Y-130123D01*
X121080Y-121055D01*
X133944Y-121055D01*
X143012Y-130123D01*
X143012Y-142987D01*
G37*
G36*
X142512Y-117380D02*
X133737Y-126155D01*
X121287Y-126155D01*
X112512Y-117380D01*
X112512Y-104930D01*
X121287Y-96155D01*
X133737Y-96155D01*
X142512Y-104930D01*
X142512Y-117380D01*
G37*
G36*
X220212Y-92603D02*
X210560Y-102255D01*
X196864Y-102255D01*
X187212Y-92603D01*
X187212Y-78907D01*
X196864Y-69255D01*
X210560Y-69255D01*
X220212Y-78907D01*
X220212Y-92603D01*
G37*
G36*
X142512Y-91980D02*
X133737Y-100755D01*
X121287Y-100755D01*
X112512Y-91980D01*
X112512Y-79530D01*
X121287Y-70755D01*
X133737Y-70755D01*
X142512Y-79530D01*
X142512Y-91980D01*
G37*
G54D12*
X748846Y-281811D02*
X766732Y-281811D01*
X773112Y-275431D01*
X773112Y-104775D01*
X766762Y-98425D01*
X736974Y-98425D01*
X729800Y-105599D01*
X25725Y-493344D02*
G54D13*
D03*
X25825Y-460844D02*
G54D13*
D03*
G54D12*
X25825Y-460844D02*
X26194Y-117475D01*
X32544Y-111125D01*
X49456Y-111125D01*
X49501Y-111080D01*
G54D18*
X127512Y-263555D02*
X167452Y-263555D01*
X170656Y-260350D01*
X170656Y-150019D01*
X179388Y-141288D01*
X179388Y-61912D01*
X184944Y-56356D01*
X460375Y-56356D01*
X466725Y-62706D01*
X466725Y-184150D01*
X460375Y-190500D01*
X398462Y-190500D01*
X393700Y-195262D01*
X393700Y-230558D01*
X393246Y-231011D01*
G54D18*
X127512Y-238155D02*
X158720Y-238155D01*
X161131Y-235744D01*
X161131Y-145256D01*
X169862Y-136525D01*
X169862Y-51594D01*
X174625Y-46831D01*
X471488Y-46831D01*
X477044Y-52388D01*
X477044Y-198438D01*
X495300Y-216694D01*
X495300Y-230558D01*
X494846Y-231011D01*
G54D18*
X127512Y-212755D02*
X148402Y-212755D01*
X151606Y-209550D01*
X151606Y-140494D01*
X160338Y-131762D01*
X160338Y-42069D01*
X165100Y-37306D01*
X481806Y-37306D01*
X487362Y-42862D01*
X487362Y-188119D01*
X493712Y-194469D01*
X590550Y-194469D01*
X596106Y-200025D01*
X596106Y-230671D01*
X596446Y-231011D01*
G54D18*
X127794Y-187325D02*
X138906Y-187325D01*
X142081Y-184150D01*
X142081Y-135731D01*
X150812Y-127000D01*
X150812Y-33338D01*
X156369Y-27781D01*
X492919Y-27781D01*
X497681Y-32544D01*
X497681Y-178594D01*
X504031Y-184944D01*
X690562Y-184944D01*
X697706Y-192088D01*
X697706Y-230981D01*
G54D18*
X127512Y-161955D02*
X116711Y-161955D01*
X111125Y-156369D01*
X111125Y-104775D01*
X117475Y-98425D01*
G54D18*
X137319Y-98425D02*
X141288Y-94456D01*
X141288Y-23812D01*
X146844Y-18256D01*
X502444Y-18256D01*
X508000Y-23812D01*
X508000Y-169862D01*
X513556Y-175419D01*
X667544Y-175419D01*
X671512Y-171450D01*
X671512Y-57944D01*
X676275Y-53181D01*
X793750Y-53181D01*
X799306Y-58738D01*
X799306Y-230671D01*
X799646Y-231011D01*
G54D15*
X117475Y-98425D02*
X137319Y-98425D01*
G36*
X646023Y-120080D02*
X655968Y-130025D01*
X655968Y-144135D01*
X646023Y-154080D01*
X631913Y-154080D01*
X621968Y-144135D01*
X621968Y-130025D01*
X631913Y-120080D01*
X646023Y-120080D01*
G37*
G36*
X620623Y-120080D02*
X630568Y-130025D01*
X630568Y-144135D01*
X620623Y-154080D01*
X606513Y-154080D01*
X596568Y-144135D01*
X596568Y-130025D01*
X606513Y-120080D01*
X620623Y-120080D01*
G37*
G36*
X595223Y-120080D02*
X605168Y-130025D01*
X605168Y-144135D01*
X595223Y-154080D01*
X581113Y-154080D01*
X571168Y-144135D01*
X571168Y-130025D01*
X581113Y-120080D01*
X595223Y-120080D01*
G37*
G36*
X569823Y-120080D02*
X579768Y-130025D01*
X579768Y-144135D01*
X569823Y-154080D01*
X555713Y-154080D01*
X545768Y-144135D01*
X545768Y-130025D01*
X555713Y-120080D01*
X569823Y-120080D01*
G37*
G36*
X425269Y-79293D02*
X434337Y-70225D01*
X447201Y-70225D01*
X456269Y-79293D01*
X456269Y-92157D01*
X447201Y-101225D01*
X434337Y-101225D01*
X425269Y-92157D01*
X425269Y-79293D01*
G37*
G54D12*
X278101Y-85680D02*
X440769Y-85725D01*
G36*
X520281Y-79293D02*
X529349Y-70225D01*
X542213Y-70225D01*
X551281Y-79293D01*
X551281Y-92157D01*
X542213Y-101225D01*
X529349Y-101225D01*
X520281Y-92157D01*
X520281Y-79293D01*
G37*
G36*
X435588Y-104693D02*
X444656Y-95625D01*
X457520Y-95625D01*
X466588Y-104693D01*
X466588Y-117557D01*
X457520Y-126625D01*
X444656Y-126625D01*
X435588Y-117557D01*
X435588Y-104693D01*
G37*
G36*
X520281Y-104693D02*
X529349Y-95625D01*
X542213Y-95625D01*
X551281Y-104693D01*
X551281Y-117557D01*
X542213Y-126625D01*
X529349Y-126625D01*
X520281Y-117557D01*
X520281Y-104693D01*
G37*
G54D18*
X203994Y-85725D02*
X203994Y-69850D01*
X207962Y-65881D01*
X451644Y-65881D01*
X456406Y-70644D01*
X456406Y-92869D01*
X450850Y-98425D01*
X450850Y-111125D01*
G36*
X435509Y-130093D02*
X444577Y-121025D01*
X457441Y-121025D01*
X466509Y-130093D01*
X466509Y-142957D01*
X457441Y-152025D01*
X444577Y-152025D01*
X435509Y-142957D01*
X435509Y-130093D01*
G37*
G36*
X520281Y-130093D02*
X529349Y-121025D01*
X542213Y-121025D01*
X551281Y-130093D01*
X551281Y-142957D01*
X542213Y-152025D01*
X529349Y-152025D01*
X520281Y-142957D01*
X520281Y-130093D01*
G37*
G36*
X419634Y-152318D02*
X428702Y-143250D01*
X441566Y-143250D01*
X450634Y-152318D01*
X450634Y-165182D01*
X441566Y-174250D01*
X428702Y-174250D01*
X419634Y-165182D01*
X419634Y-152318D01*
G37*
G36*
X508296Y-152318D02*
X517364Y-143250D01*
X530228Y-143250D01*
X539296Y-152318D01*
X539296Y-165182D01*
X530228Y-174250D01*
X517364Y-174250D01*
X508296Y-165182D01*
X508296Y-152318D01*
G37*
G54D21*
X644679Y-42097D02*
X644679Y-50430D01*
X645346Y-52097D01*
X646679Y-52930D01*
X648013Y-52930D01*
X649346Y-52097D01*
X650013Y-50430D01*
X650013Y-42097D01*
X649346Y-40430D01*
X648013Y-39597D01*
X646679Y-39597D01*
X645346Y-40430D01*
X644679Y-42097D01*
G54D21*
X640013Y-39597D02*
X640013Y-52930D01*
X635346Y-52930D01*
G54D21*
X626012Y-52930D02*
X630679Y-52930D01*
X630679Y-39597D01*
X626012Y-39597D01*
G54D21*
X630679Y-46264D02*
X626012Y-46264D01*
G54D21*
X621345Y-52930D02*
X621345Y-39597D01*
X618011Y-39597D01*
X616678Y-40430D01*
X616011Y-42097D01*
X616011Y-50430D01*
X616678Y-52097D01*
X618011Y-52930D01*
X621345Y-52930D01*
G54D21*
X611345Y-47097D02*
X606011Y-47097D01*
G54D21*
X601345Y-52930D02*
X601345Y-39597D01*
X598011Y-39597D01*
X596678Y-40430D01*
X596011Y-42097D01*
X596011Y-50430D01*
X596678Y-52097D01*
X598011Y-52930D01*
X601345Y-52930D01*
G54D21*
X591345Y-52930D02*
X591345Y-45430D01*
G54D21*
X591345Y-42930D02*
X591345Y-42930D01*
G54D21*
X586678Y-52097D02*
X585344Y-52930D01*
X584011Y-52930D01*
X582678Y-52097D01*
X582678Y-50430D01*
X583344Y-49597D01*
X586011Y-48764D01*
X586678Y-47930D01*
X586678Y-46264D01*
X585344Y-45430D01*
X584011Y-45430D01*
X582678Y-46264D01*
G54D21*
X578011Y-45430D02*
X578011Y-56264D01*
G54D21*
X578011Y-50430D02*
X577344Y-52597D01*
X576011Y-52930D01*
X574677Y-52597D01*
X574011Y-50930D01*
X574011Y-47597D01*
X574677Y-45930D01*
X576011Y-45430D01*
X577344Y-45930D01*
X578011Y-47930D01*
G54D21*
X569344Y-52930D02*
X569344Y-39597D01*
G54D21*
X564677Y-46264D02*
X563343Y-45430D01*
X561743Y-45430D01*
X560677Y-47097D01*
X560677Y-52930D01*
G54D21*
X560677Y-50430D02*
X561343Y-48764D01*
X562677Y-48430D01*
X564010Y-48764D01*
X564677Y-50430D01*
X564410Y-52097D01*
X563343Y-52930D01*
X562677Y-52930D01*
X562410Y-52930D01*
X561343Y-52097D01*
X560677Y-50430D01*
G54D21*
X556010Y-45430D02*
X553343Y-52930D01*
X550676Y-45430D01*
G54D21*
X553343Y-52930D02*
X554010Y-55430D01*
X554676Y-56264D01*
X555343Y-56264D01*
G54D22*
X780256Y-73185D02*
X773145Y-73185D01*
G54D22*
X776701Y-68740D02*
X776701Y-77629D01*
G54D22*
X708819Y-478791D02*
X701708Y-478791D01*
G54D22*
X705263Y-474346D02*
X705263Y-483235D01*
G54D22*
X61912Y-455772D02*
X54801Y-455772D01*
G54D22*
X58357Y-451328D02*
X58357Y-460217D01*
X78906Y-115518D02*
G54D13*
D03*
X79006Y-83018D02*
G54D13*
D03*
G54D23*
X817526Y-223157D02*
X839748Y-223157D01*
G54D23*
X817526Y-214268D02*
X839748Y-214268D01*
G54D23*
X828637Y-223157D02*
X828637Y-214268D01*
G54D23*
X817526Y-206490D02*
X839748Y-206490D01*
X839748Y-200934D01*
X838359Y-198712D01*
X835582Y-197601D01*
X832804Y-197601D01*
X830026Y-198712D01*
X828637Y-200934D01*
X827248Y-198712D01*
X824470Y-197601D01*
X821693Y-197601D01*
X818915Y-198712D01*
X817526Y-200934D01*
X817526Y-206490D01*
G54D23*
X828637Y-206490D02*
X828637Y-200934D01*
G54D23*
X820859Y-183156D02*
X826415Y-183156D01*
X829193Y-184267D01*
X830026Y-186490D01*
X829193Y-188712D01*
X826415Y-189823D01*
X820859Y-189823D01*
X818082Y-188712D01*
X817526Y-186490D01*
X818082Y-184267D01*
X820859Y-183156D01*
G54D23*
X818915Y-175378D02*
X817526Y-173156D01*
X817526Y-170934D01*
X818915Y-168711D01*
X821693Y-168711D01*
X823082Y-169822D01*
X824470Y-174267D01*
X825859Y-175378D01*
X828637Y-175378D01*
X830026Y-173156D01*
X830026Y-170934D01*
X828637Y-168711D01*
G54D23*
X818915Y-154266D02*
X817526Y-156044D01*
X817526Y-158266D01*
X818915Y-160489D01*
X821693Y-160933D01*
X826415Y-160933D01*
X829193Y-159822D01*
X830026Y-157600D01*
X829193Y-155377D01*
X827248Y-154266D01*
X824470Y-154266D01*
X824470Y-160933D01*
G54D23*
X817526Y-129599D02*
X817526Y-138488D01*
X818915Y-138488D01*
X821693Y-137377D01*
X830026Y-130710D01*
X832804Y-129599D01*
X835582Y-129599D01*
X838359Y-130710D01*
X839748Y-132932D01*
X839748Y-135155D01*
X838359Y-137377D01*
X835582Y-138488D01*
G54D23*
X835582Y-112932D02*
X821693Y-112932D01*
X818915Y-114043D01*
X817526Y-116265D01*
X817526Y-118488D01*
X818915Y-120710D01*
X821693Y-121821D01*
X835582Y-121821D01*
X838359Y-120710D01*
X839748Y-118488D01*
X839748Y-116265D01*
X838359Y-114043D01*
X835582Y-112932D01*
G54D23*
X817526Y-96265D02*
X817526Y-105154D01*
X818915Y-105154D01*
X821693Y-104043D01*
X830026Y-97376D01*
X832804Y-96265D01*
X835582Y-96265D01*
X838359Y-97376D01*
X839748Y-99598D01*
X839748Y-101821D01*
X838359Y-104043D01*
X835582Y-105154D01*
G54D23*
X817526Y-81820D02*
X839748Y-81820D01*
X825859Y-88487D01*
X823082Y-88487D01*
X823082Y-79598D01*
G54D24*
X820970Y-506086D02*
X836970Y-502086D01*
X820970Y-498086D01*
G54D24*
X826970Y-504486D02*
X826970Y-499686D01*
G54D24*
X836970Y-492486D02*
X836970Y-486086D01*
X834970Y-486886D01*
X831970Y-488486D01*
X827970Y-490086D01*
X824970Y-490886D01*
X820970Y-490886D01*
G54D24*
X836970Y-480486D02*
X836970Y-474086D01*
X834970Y-474886D01*
X831970Y-476486D01*
X827970Y-478086D01*
X824970Y-478886D01*
X820970Y-478886D01*
G54D24*
X836970Y-462726D02*
X820970Y-462726D01*
X830970Y-458726D01*
X820970Y-454726D01*
X836970Y-454726D01*
G54D24*
X836970Y-449126D02*
X820970Y-449126D01*
X820970Y-443526D01*
G54D24*
X820970Y-437926D02*
X836970Y-433926D01*
X820970Y-429926D01*
G54D24*
X826970Y-436326D02*
X826970Y-431526D01*
G54D24*
X820970Y-424326D02*
X836970Y-424326D01*
X820970Y-417926D01*
X836970Y-417926D01*
G54D24*
X820970Y-406566D02*
X836970Y-406566D01*
X836970Y-400966D01*
G54D24*
X828970Y-406566D02*
X828970Y-400966D01*
G54D24*
X821970Y-390566D02*
X820970Y-391846D01*
X820970Y-393446D01*
X821970Y-395046D01*
X823970Y-395366D01*
X827370Y-395366D01*
X829370Y-394566D01*
X829970Y-392966D01*
X829370Y-391366D01*
X827970Y-390566D01*
X825970Y-390566D01*
X825970Y-395366D01*
G54D24*
X820970Y-384966D02*
X829970Y-384966D01*
G54D24*
X827970Y-384966D02*
X829970Y-383366D01*
X829970Y-381766D01*
G54D24*
X820970Y-376166D02*
X829970Y-376166D01*
G54D24*
X827970Y-376166D02*
X829370Y-375366D01*
X829970Y-373766D01*
X829370Y-372166D01*
X827970Y-371366D01*
X820970Y-371366D01*
G54D24*
X820970Y-365766D02*
X836970Y-365766D01*
G54D24*
X827370Y-365766D02*
X829370Y-364966D01*
X829970Y-363366D01*
X829370Y-361766D01*
X827370Y-360966D01*
X823370Y-360966D01*
X821370Y-361766D01*
X820970Y-363366D01*
X821370Y-364966D01*
X823370Y-365766D01*
G54D24*
X821970Y-350566D02*
X820970Y-351846D01*
X820970Y-353446D01*
X821970Y-355046D01*
X823970Y-355366D01*
X827370Y-355366D01*
X829370Y-354566D01*
X829970Y-352966D01*
X829370Y-351366D01*
X827970Y-350566D01*
X825970Y-350566D01*
X825970Y-355366D01*
G54D24*
X820970Y-340166D02*
X836970Y-340166D01*
G54D24*
X827370Y-340166D02*
X829370Y-340966D01*
X829970Y-342566D01*
X829370Y-344166D01*
X827370Y-344966D01*
X823370Y-344966D01*
X821370Y-344166D01*
X820970Y-342566D01*
X821370Y-340966D01*
X823370Y-340166D01*
G54D24*
X820970Y-334566D02*
X829970Y-334566D01*
G54D24*
X832970Y-334566D02*
X832970Y-334566D01*
G54D24*
X821970Y-324166D02*
X820970Y-325446D01*
X820970Y-327046D01*
X821970Y-328646D01*
X823970Y-328966D01*
X827370Y-328966D01*
X829370Y-328166D01*
X829970Y-326566D01*
X829370Y-324966D01*
X827970Y-324166D01*
X825970Y-324166D01*
X825970Y-328966D01*
G54D24*
X820970Y-318566D02*
X829970Y-318566D01*
G54D24*
X827970Y-318566D02*
X829370Y-317766D01*
X829970Y-316166D01*
X829370Y-314566D01*
X827970Y-313766D01*
X820970Y-313766D01*
G54D24*
X829970Y-303366D02*
X820970Y-303366D01*
G54D24*
X822970Y-303366D02*
X821370Y-304166D01*
X820970Y-305766D01*
X821370Y-307366D01*
X822970Y-308166D01*
X829970Y-308166D01*
G54D24*
X820970Y-297766D02*
X829970Y-297766D01*
G54D24*
X827970Y-297766D02*
X829370Y-296966D01*
X829970Y-295366D01*
X829370Y-293766D01*
X827970Y-292966D01*
X820970Y-292966D01*
G54D24*
X817970Y-287366D02*
X816970Y-285766D01*
X816970Y-284646D01*
X817970Y-283046D01*
X819970Y-282566D01*
X829970Y-282566D01*
G54D24*
X827370Y-282566D02*
X829370Y-283366D01*
X829970Y-284966D01*
X829370Y-286566D01*
X827370Y-287366D01*
X823370Y-287366D01*
X821370Y-286566D01*
X820970Y-284966D01*
X821370Y-283366D01*
X823370Y-282566D01*
G54D24*
X836970Y-271206D02*
X820970Y-267206D01*
X836970Y-263206D01*
G54D24*
X820970Y-257606D02*
X820970Y-257606D01*
G54D24*
X830970Y-252006D02*
X836970Y-248006D01*
X820970Y-248006D01*
G54D24*
X820970Y-242406D02*
X836970Y-242406D01*
G54D24*
X827370Y-242406D02*
X829370Y-241606D01*
X829970Y-240006D01*
X829370Y-238406D01*
X827370Y-237606D01*
X823370Y-237606D01*
X821370Y-238406D01*
X820970Y-240006D01*
X821370Y-241606D01*
X823370Y-242406D01*
G54D12*
X203712Y-263555D02*
X213489Y-263555D01*
X264319Y-212725D01*
X278850Y-212725D01*
X278895Y-212680D01*
G54D12*
X205299Y-238155D02*
X215077Y-238155D01*
X265906Y-187325D01*
X280438Y-187325D01*
X280482Y-187280D01*
G54D12*
X278101Y-161880D02*
X266847Y-161917D01*
X216017Y-212746D01*
X203712Y-212755D01*
G54D21*
X756667Y-529346D02*
X758000Y-529346D01*
X759333Y-528512D01*
X760000Y-526846D01*
X760000Y-525179D01*
X759333Y-523512D01*
X758000Y-522679D01*
X756667Y-522679D01*
X755333Y-523512D01*
X754667Y-525179D01*
X754667Y-526846D01*
X755333Y-528512D01*
X756667Y-529346D01*
X755333Y-530179D01*
X754667Y-531846D01*
X754667Y-533512D01*
X755333Y-535179D01*
X756667Y-536012D01*
X758000Y-536012D01*
X759333Y-535179D01*
X760000Y-533512D01*
X760000Y-531846D01*
X759333Y-530179D01*
X758000Y-529346D01*
G54D21*
X744667Y-522679D02*
X750000Y-522679D01*
X750000Y-528512D01*
X749333Y-528512D01*
X748000Y-527679D01*
X746667Y-527679D01*
X745333Y-528512D01*
X744667Y-530179D01*
X744667Y-533512D01*
X745333Y-535179D01*
X746667Y-536012D01*
X748000Y-536012D01*
X749333Y-535179D01*
X750000Y-533512D01*
G54D21*
X740000Y-528512D02*
X734667Y-536012D01*
G54D21*
X740000Y-536012D02*
X734667Y-528512D01*
G54D21*
X724667Y-522679D02*
X730000Y-522679D01*
X730000Y-528512D01*
X729333Y-528512D01*
X728000Y-527679D01*
X726667Y-527679D01*
X725333Y-528512D01*
X724667Y-530179D01*
X724667Y-533512D01*
X725333Y-535179D01*
X726667Y-536012D01*
X728000Y-536012D01*
X729333Y-535179D01*
X730000Y-533512D01*
G54D21*
X720000Y-522679D02*
X714667Y-522679D01*
X715333Y-524346D01*
X716667Y-526846D01*
X718000Y-530179D01*
X718667Y-532679D01*
X718667Y-536012D01*
G54D21*
X710000Y-536012D02*
X710000Y-528512D01*
G54D21*
X710000Y-529846D02*
X708667Y-528512D01*
X707333Y-529012D01*
X706667Y-530179D01*
X706667Y-536012D01*
G54D21*
X706667Y-529846D02*
X705333Y-528512D01*
X704000Y-529012D01*
X703333Y-530179D01*
X703333Y-536012D01*
G54D21*
X698666Y-536012D02*
X698666Y-528512D01*
G54D21*
X698666Y-529846D02*
X697333Y-528512D01*
X695999Y-529012D01*
X695333Y-530179D01*
X695333Y-536012D01*
G54D21*
X695333Y-529846D02*
X693999Y-528512D01*
X692666Y-529012D01*
X691999Y-530179D01*
X691999Y-536012D01*
G36*
X178113Y-390228D02*
X168168Y-400174D01*
X154058Y-400174D01*
X144113Y-390228D01*
X144113Y-376118D01*
X154058Y-366174D01*
X168168Y-366174D01*
X178113Y-376118D01*
X178113Y-390228D01*
G37*
G36*
X178113Y-365228D02*
X168168Y-375174D01*
X154058Y-375174D01*
X144113Y-365228D01*
X144113Y-351118D01*
X154058Y-341174D01*
X168168Y-341174D01*
X178113Y-351118D01*
X178113Y-365228D01*
G37*
X139232Y-359994D02*
G54D13*
D03*
X139332Y-327494D02*
G54D13*
D03*
G54D12*
X419100Y-136524D02*
X419100Y-117474D01*
X425450Y-111125D01*
X451088Y-111125D01*
G54D18*
X278101Y-263480D02*
X302463Y-263480D01*
X306388Y-259556D01*
X306388Y-166688D01*
X311150Y-161925D01*
X388144Y-161925D01*
X393700Y-156369D01*
X393700Y-136524D01*
G54D18*
X278101Y-238080D02*
X291351Y-238080D01*
X296862Y-232569D01*
X296862Y-157162D01*
X301625Y-152400D01*
X361950Y-152400D01*
X368300Y-146050D01*
X368300Y-136524D01*
G54D12*
X535781Y-85725D02*
X582612Y-85725D01*
X588169Y-91281D01*
X588168Y-137080D01*
G54D12*
X535781Y-111125D02*
X557212Y-111125D01*
X562769Y-116681D01*
X562768Y-137080D01*
G54D18*
X535781Y-136525D02*
X535781Y-150019D01*
X542131Y-156369D01*
X608012Y-156369D01*
X613569Y-150812D01*
X613568Y-137080D01*
G54D18*
X523796Y-158750D02*
X523875Y-158750D01*
X531019Y-165894D01*
X633412Y-165894D01*
X638969Y-160338D01*
X638968Y-137080D01*
G36*
X27831Y-425502D02*
X38946Y-414388D01*
X54716Y-414388D01*
X65831Y-425502D01*
X65831Y-441272D01*
X54716Y-452388D01*
X38946Y-452388D01*
X27831Y-441272D01*
X27831Y-425502D01*
G37*
G54D12*
X46831Y-433388D02*
X76994Y-433388D01*
G36*
X27038Y-354065D02*
X38152Y-342950D01*
X53922Y-342950D01*
X65038Y-354065D01*
X65038Y-369835D01*
X53922Y-380950D01*
X38152Y-380950D01*
X27038Y-369835D01*
X27038Y-354065D01*
G37*
G54D18*
X42069Y-477838D02*
X14288Y-477044D01*
X9525Y-473075D01*
X9525Y-65088D01*
X15081Y-59531D01*
X67469Y-59531D01*
X86519Y-40481D01*
X103981Y-40481D01*
G54D18*
X26194Y-117475D02*
X26194Y-76994D01*
X34131Y-69056D01*
X77788Y-69056D01*
X89694Y-57150D01*
X127000Y-57150D01*
X131762Y-52388D01*
X131762Y-14288D01*
X137319Y-8731D01*
X512762Y-8731D01*
X517525Y-13494D01*
X517525Y-106362D01*
X522288Y-111125D01*
X535781Y-111125D01*
G54D18*
X78906Y-115518D02*
X67893Y-115518D01*
X63500Y-111125D01*
X49546Y-111125D01*
X49501Y-111080D01*
G54D18*
X49212Y-187325D02*
X71438Y-187325D01*
X77788Y-193675D01*
X77788Y-296862D01*
X83344Y-302419D01*
X310356Y-302419D01*
X315912Y-296862D01*
X315912Y-176212D01*
X320675Y-171450D01*
X422275Y-171450D01*
X434975Y-158750D01*
G54D18*
X49501Y-212680D02*
X61868Y-212680D01*
X67469Y-218281D01*
X67469Y-306388D01*
X73819Y-312738D01*
X319881Y-312738D01*
X325438Y-307181D01*
X325438Y-185738D01*
X330200Y-180975D01*
X444500Y-180975D01*
X450850Y-174625D01*
X450850Y-136684D01*
X451009Y-136525D01*
G54D12*
X76995Y-512281D02*
X106561Y-512281D01*
X108275Y-510568D01*
G54D12*
X25725Y-493344D02*
X68058Y-493344D01*
X76995Y-502281D01*
X76995Y-512281D01*
G54D12*
X647246Y-231011D02*
X647246Y-211591D01*
X653256Y-205581D01*
X680244Y-205581D01*
G36*
X621175Y-376564D02*
X631120Y-366619D01*
X645230Y-366619D01*
X655175Y-376564D01*
X655175Y-390674D01*
X645230Y-400619D01*
X631120Y-400619D01*
X621175Y-390674D01*
X621175Y-376564D01*
G37*
G36*
X675150Y-376644D02*
X685095Y-366699D01*
X699205Y-366699D01*
X709150Y-376644D01*
X709150Y-390754D01*
X699205Y-400699D01*
X685095Y-400699D01*
X675150Y-390754D01*
X675150Y-376644D01*
G37*
G54D12*
X692150Y-383381D02*
X765175Y-383381D01*
X773112Y-391319D01*
X773112Y-460375D01*
G54D20*
X615906Y-383481D02*
X638175Y-383619D01*
G36*
X621175Y-404108D02*
X631120Y-394162D01*
X645230Y-394162D01*
X655175Y-404108D01*
X655175Y-418218D01*
X645230Y-428162D01*
X631120Y-428162D01*
X621175Y-418218D01*
X621175Y-404108D01*
G37*
G36*
X675150Y-404108D02*
X685095Y-394162D01*
X699205Y-394162D01*
X709150Y-404108D01*
X709150Y-418218D01*
X699205Y-428162D01*
X685095Y-428162D01*
X675150Y-418218D01*
X675150Y-404108D01*
G37*
G54D12*
X691356Y-411162D02*
X713581Y-411162D01*
X722312Y-419894D01*
X722312Y-459823D01*
X722626Y-460136D01*
G36*
X488624Y-539019D02*
X479556Y-529951D01*
X479556Y-517087D01*
X488624Y-508019D01*
X501488Y-508019D01*
X510556Y-517087D01*
X510556Y-529951D01*
X501488Y-539019D01*
X488624Y-539019D01*
G37*
G36*
X488624Y-513619D02*
X479556Y-504551D01*
X479556Y-491687D01*
X488624Y-482619D01*
X501488Y-482619D01*
X510556Y-491687D01*
X510556Y-504551D01*
X501488Y-513619D01*
X488624Y-513619D01*
G37*
G36*
X514024Y-539019D02*
X504956Y-529951D01*
X504956Y-517087D01*
X514024Y-508019D01*
X526888Y-508019D01*
X535956Y-517087D01*
X535956Y-529951D01*
X526888Y-539019D01*
X514024Y-539019D01*
G37*
G36*
X514024Y-513619D02*
X504956Y-504551D01*
X504956Y-491687D01*
X514024Y-482619D01*
X526888Y-482619D01*
X535956Y-491687D01*
X535956Y-504551D01*
X526888Y-513619D01*
X514024Y-513619D01*
G37*
G36*
X539424Y-539019D02*
X530356Y-529951D01*
X530356Y-517087D01*
X539424Y-508019D01*
X552288Y-508019D01*
X561356Y-517087D01*
X561356Y-529951D01*
X552288Y-539019D01*
X539424Y-539019D01*
G37*
G36*
X539424Y-513619D02*
X530356Y-504551D01*
X530356Y-491687D01*
X539424Y-482619D01*
X552288Y-482619D01*
X561356Y-491687D01*
X561356Y-504551D01*
X552288Y-513619D01*
X539424Y-513619D01*
G37*
G36*
X564824Y-539019D02*
X555756Y-529951D01*
X555756Y-517087D01*
X564824Y-508019D01*
X577688Y-508019D01*
X586756Y-517087D01*
X586756Y-529951D01*
X577688Y-539019D01*
X564824Y-539019D01*
G37*
G36*
X564824Y-513619D02*
X555756Y-504551D01*
X555756Y-491687D01*
X564824Y-482619D01*
X577688Y-482619D01*
X586756Y-491687D01*
X586756Y-504551D01*
X577688Y-513619D01*
X564824Y-513619D01*
G37*
G36*
X590224Y-539019D02*
X581156Y-529951D01*
X581156Y-517087D01*
X590224Y-508019D01*
X603088Y-508019D01*
X612156Y-517087D01*
X612156Y-529951D01*
X603088Y-539019D01*
X590224Y-539019D01*
G37*
G36*
X581156Y-513619D02*
X581156Y-482619D01*
X612156Y-482619D01*
X612156Y-513619D01*
X581156Y-513619D01*
G37*
G54D12*
X596656Y-498119D02*
X654406Y-498119D01*
X659606Y-492919D01*
X659606Y-478631D01*
G54D12*
X571256Y-498119D02*
X571256Y-488400D01*
X577850Y-481806D01*
X627062Y-481806D01*
X631825Y-477044D01*
X631774Y-465087D01*
G54D15*
X571256Y-523519D02*
X571144Y-523519D01*
X558800Y-511175D01*
X558800Y-484981D01*
G54D12*
X558800Y-484981D02*
X558800Y-473869D01*
X562769Y-469900D01*
X595312Y-469900D01*
X600075Y-465138D01*
X600075Y-346869D01*
X596900Y-343694D01*
X596900Y-333065D01*
X596446Y-332611D01*
G54D15*
X520456Y-498119D02*
X520456Y-498231D01*
X532606Y-510381D01*
X532606Y-534988D01*
G54D12*
X416719Y-543720D02*
X427832Y-543720D01*
X441325Y-557212D01*
X525462Y-557212D01*
X532606Y-550069D01*
X532606Y-537369D01*
G54D12*
X342106Y-501650D02*
X412750Y-501650D01*
X454025Y-542925D01*
X515144Y-542925D01*
X519906Y-538162D01*
X519906Y-524068D01*
X520456Y-523519D01*
G54D18*
X495056Y-523519D02*
X475894Y-523519D01*
X468312Y-515938D01*
X468312Y-368300D01*
X460375Y-360362D01*
X399256Y-360362D01*
X393700Y-354806D01*
X393700Y-333065D01*
X393246Y-332611D01*
G54D12*
X583406Y-383381D02*
X583406Y-412750D01*
G36*
X649288Y-401638D02*
X609600Y-401638D01*
X609600Y-421481D01*
X649288Y-421481D01*
X649288Y-401638D01*
G37*
G54D25*
X649288Y-401638D02*
X609600Y-401638D01*
X609600Y-421481D01*
X649288Y-421481D01*
X649288Y-401638D01*
G54D12*
X596656Y-523519D02*
X664725Y-523519D01*
X670719Y-517525D01*
X670719Y-311944D01*
X665956Y-307181D01*
X647276Y-307181D01*
X647246Y-307211D01*
G54D12*
X545856Y-523519D02*
X545856Y-550618D01*
X552450Y-557212D01*
X766762Y-557212D01*
X773906Y-550069D01*
X773906Y-506412D01*
X779462Y-500856D01*
X793750Y-500856D01*
X798512Y-496094D01*
X798512Y-377031D01*
X792956Y-371475D01*
X752475Y-371475D01*
X748506Y-367506D01*
X748506Y-332951D01*
X748846Y-332611D01*
G36*
X426156Y-119524D02*
X436100Y-129470D01*
X436100Y-143580D01*
X426156Y-153524D01*
X412046Y-153524D01*
X402100Y-143580D01*
X402100Y-129470D01*
X412046Y-119524D01*
X426156Y-119524D01*
G37*
G36*
X400756Y-119524D02*
X410700Y-129470D01*
X410700Y-143580D01*
X400756Y-153524D01*
X386646Y-153524D01*
X376700Y-143580D01*
X376700Y-129470D01*
X386646Y-119524D01*
X400756Y-119524D01*
G37*
G36*
X375356Y-119524D02*
X385300Y-129470D01*
X385300Y-143580D01*
X375356Y-153524D01*
X361246Y-153524D01*
X351300Y-143580D01*
X351300Y-129470D01*
X361246Y-119524D01*
X375356Y-119524D01*
G37*
G36*
X349956Y-119524D02*
X359900Y-129470D01*
X359900Y-143580D01*
X349956Y-153524D01*
X335846Y-153524D01*
X325900Y-143580D01*
X325900Y-129470D01*
X335846Y-119524D01*
X349956Y-119524D01*
G37*
G36*
X324556Y-119524D02*
X334500Y-129470D01*
X334500Y-143580D01*
X324556Y-153524D01*
X310446Y-153524D01*
X300500Y-143580D01*
X300500Y-129470D01*
X310446Y-119524D01*
X324556Y-119524D01*
G37*
G54D12*
X342900Y-136524D02*
X342900Y-94456D01*
X351631Y-85725D01*
X230512Y-101786D02*
G54D13*
D03*
X230612Y-69286D02*
G54D13*
D03*
G54D12*
X230512Y-101786D02*
X245082Y-101786D01*
X261144Y-85725D01*
X278056Y-85725D01*
X278101Y-85680D01*
X218318Y-349213D02*
G54D26*
D03*
X237318Y-349213D02*
G54D26*
D03*
X227818Y-327013D02*
G54D26*
D03*
X259593Y-349213D02*
G54D26*
D03*
X278593Y-349213D02*
G54D26*
D03*
X269093Y-327013D02*
G54D26*
D03*
G54D12*
X227818Y-327013D02*
X268299Y-327013D01*
G54D12*
X237318Y-349213D02*
X259593Y-349213D01*
G54D18*
X76995Y-472280D02*
X103188Y-446088D01*
X173038Y-446088D01*
X180975Y-438150D01*
X180975Y-392906D01*
X185738Y-388144D01*
X218284Y-388144D01*
G54D18*
X269093Y-327013D02*
X311932Y-327013D01*
X318294Y-333375D01*
X318294Y-344488D01*
X324644Y-350838D01*
X353219Y-350838D01*
X359569Y-344488D01*
X359569Y-256381D01*
X365125Y-250825D01*
X235701Y-367606D02*
G54D10*
D03*
X203201Y-367506D02*
G54D10*
D03*
G54D12*
X46038Y-361950D02*
X30956Y-361950D01*
X26194Y-366712D01*
G54D12*
X161113Y-383174D02*
X127586Y-383174D01*
X101600Y-357188D01*
X66675Y-357188D01*
X61912Y-361950D01*
X46038Y-361950D01*
G54D12*
X203201Y-367506D02*
X188780Y-367506D01*
X173113Y-383174D01*
X161113Y-383174D01*
G54D18*
X235701Y-367606D02*
X272156Y-367606D01*
X278606Y-361156D01*
X278593Y-349213D01*
G36*
X274284Y-394784D02*
X264924Y-404144D01*
X251644Y-404144D01*
X242284Y-394784D01*
X242284Y-381504D01*
X251644Y-372144D01*
X264924Y-372144D01*
X274284Y-381504D01*
X274284Y-394784D01*
G37*
G36*
X234284Y-394784D02*
X224924Y-404144D01*
X211644Y-404144D01*
X202284Y-394784D01*
X202284Y-381504D01*
X211644Y-372144D01*
X224924Y-372144D01*
X234284Y-381504D01*
X234284Y-394784D01*
G37*
G54D18*
X258284Y-388144D02*
X258284Y-375128D01*
X264319Y-369094D01*
G54D18*
X49501Y-161880D02*
X67424Y-161880D01*
X87312Y-181769D01*
X87312Y-286544D01*
X92869Y-292100D01*
X183356Y-292100D01*
X188912Y-286544D01*
X188912Y-166688D01*
X193675Y-161925D01*
X203682Y-161925D01*
X203712Y-161955D01*
G54D18*
X49501Y-85680D02*
X61957Y-85680D01*
X65088Y-82550D01*
X78538Y-82550D01*
G36*
X95784Y-244393D02*
X104852Y-235325D01*
X117716Y-235325D01*
X126784Y-244393D01*
X126784Y-257257D01*
X117716Y-266325D01*
X104852Y-266325D01*
X95784Y-257257D01*
X95784Y-244393D01*
G37*
G54D18*
X111284Y-250825D02*
X111284Y-171609D01*
X100806Y-161131D01*
X100806Y-91281D01*
X106362Y-85725D01*
X127482Y-85725D01*
X127512Y-85755D01*
G54D18*
X79006Y-83018D02*
X80494Y-83018D01*
X90488Y-73025D01*
X103632Y-73025D01*
X103668Y-73061D01*
G36*
X95704Y-322974D02*
X104772Y-313906D01*
X117636Y-313906D01*
X126704Y-322974D01*
X126704Y-335838D01*
X117636Y-344906D01*
X104772Y-344906D01*
X95704Y-335838D01*
X95704Y-322974D01*
G37*
G54D18*
X227818Y-327013D02*
X133362Y-327013D01*
X130969Y-329406D01*
X110490Y-329406D01*
G54D18*
X139232Y-359994D02*
X149594Y-359994D01*
X151606Y-357981D01*
X160921Y-357981D01*
X161113Y-358174D01*
G54D12*
X127794Y-407988D02*
X164306Y-407988D01*
G54D18*
X196806Y-408088D02*
X234056Y-408088D01*
X238125Y-404019D01*
X296862Y-404019D01*
G54D18*
X218318Y-349213D02*
X218284Y-388144D01*
G54D18*
X342446Y-231011D02*
X342446Y-245609D01*
X346869Y-250031D01*
X642144Y-250031D01*
X646906Y-245269D01*
X646906Y-231351D01*
X647246Y-231011D01*
G54D18*
X545646Y-231011D02*
X545646Y-243341D01*
X539750Y-249238D01*
G54D18*
X444046Y-231011D02*
X444046Y-244135D01*
X438150Y-250031D01*
X57944Y-329405D02*
G54D10*
D03*
X90444Y-329505D02*
G54D10*
D03*
G54D18*
X90444Y-329505D02*
X110391Y-329505D01*
X110490Y-329406D01*
G54D18*
X57944Y-329405D02*
X50801Y-329405D01*
X46038Y-334169D01*
X46038Y-361950D01*
X103613Y-40154D02*
G54D13*
D03*
X103513Y-72654D02*
G54D13*
D03*
X277925Y-283080D02*
G54D10*
D03*
X245425Y-282980D02*
G54D10*
D03*
G54D12*
X277925Y-283080D02*
X277925Y-263656D01*
X278101Y-263480D01*
G36*
X215481Y-113424D02*
X224549Y-104356D01*
X237413Y-104356D01*
X246481Y-113424D01*
X246481Y-126288D01*
X237413Y-135356D01*
X224549Y-135356D01*
X215481Y-126288D01*
X215481Y-113424D01*
G37*
G36*
X214688Y-276937D02*
X223756Y-267869D01*
X236620Y-267869D01*
X245688Y-276937D01*
X245688Y-289801D01*
X236620Y-298869D01*
X223756Y-298869D01*
X214688Y-289801D01*
X214688Y-276937D01*
G37*
G54D12*
X230188Y-283369D02*
X245036Y-283369D01*
X245425Y-282980D01*
G54D12*
X230981Y-119856D02*
X230981Y-102255D01*
X230512Y-101786D01*
G54D12*
X631774Y-430262D02*
X631774Y-417563D01*
X638175Y-411162D01*
G54D18*
X396109Y-485450D02*
X367181Y-485450D01*
X360362Y-478631D01*
X360362Y-448469D01*
X366712Y-442119D01*
X381794Y-442119D01*
G36*
X415925Y-564356D02*
X357981Y-564356D01*
X354012Y-560388D01*
X354012Y-516731D01*
X357981Y-512762D01*
X411956Y-512762D01*
X420688Y-521494D01*
X420688Y-559594D01*
X415925Y-564356D01*
G37*
G54D27*
X415925Y-564356D02*
X357981Y-564356D01*
X354012Y-560388D01*
X354012Y-516731D01*
X357981Y-512762D01*
X411956Y-512762D01*
X420688Y-521494D01*
X420688Y-559594D01*
X415925Y-564356D01*
G54D18*
X454025Y-542925D02*
X454025Y-377031D01*
X446881Y-369888D01*
X378619Y-369888D01*
X372269Y-363538D01*
X372269Y-315119D01*
X380206Y-307181D01*
X393216Y-307181D01*
X393246Y-307211D01*
G54D12*
X495056Y-498119D02*
X495056Y-332821D01*
X494846Y-332611D01*
G54D12*
X544988Y-376971D02*
X544988Y-333269D01*
X545646Y-332611D01*
G54D12*
X545856Y-498119D02*
X545856Y-415838D01*
X544988Y-414971D01*
G54D18*
X393246Y-307211D02*
X410399Y-307211D01*
X419100Y-315912D01*
X419100Y-345281D01*
X424656Y-350838D01*
X463550Y-350838D01*
X468312Y-346075D01*
X468312Y-315179D01*
X476280Y-307211D01*
X494846Y-307211D01*
G54D12*
X278101Y-136480D02*
X266847Y-136517D01*
X216017Y-187346D01*
X203712Y-187355D01*
%LPD*%
G36*
X448196Y-221011D02*
X454046Y-226861D01*
X454046Y-235161D01*
X448196Y-241011D01*
X439896Y-241011D01*
X434046Y-235161D01*
X434046Y-226861D01*
X439896Y-221011D01*
X448196Y-221011D01*
G37*
G36*
X498996Y-221011D02*
X504846Y-226861D01*
X504846Y-235161D01*
X498996Y-241011D01*
X490696Y-241011D01*
X484846Y-235161D01*
X484846Y-226861D01*
X490696Y-221011D01*
X498996Y-221011D01*
G37*
G36*
X447574Y-324111D02*
X452546Y-329083D01*
X452546Y-336139D01*
X447574Y-341111D01*
X440518Y-341111D01*
X435546Y-336139D01*
X435546Y-329083D01*
X440518Y-324111D01*
X447574Y-324111D01*
G37*
G36*
X498996Y-322611D02*
X504846Y-328461D01*
X504846Y-336761D01*
X498996Y-342611D01*
X490696Y-342611D01*
X484846Y-336761D01*
X484846Y-328461D01*
X490696Y-322611D01*
X498996Y-322611D01*
G37*
G36*
X447574Y-298711D02*
X452546Y-303683D01*
X452546Y-310739D01*
X447574Y-315711D01*
X440518Y-315711D01*
X435546Y-310739D01*
X435546Y-303683D01*
X440518Y-298711D01*
X447574Y-298711D01*
G37*
G36*
X498996Y-297211D02*
X504846Y-303061D01*
X504846Y-311361D01*
X498996Y-317211D01*
X490696Y-317211D01*
X484846Y-311361D01*
X484846Y-303061D01*
X490696Y-297211D01*
X498996Y-297211D01*
G37*
G36*
X498996Y-271811D02*
X504846Y-277661D01*
X504846Y-285961D01*
X498996Y-291811D01*
X490696Y-291811D01*
X484846Y-285961D01*
X484846Y-277661D01*
X490696Y-271811D01*
X498996Y-271811D01*
G37*
G36*
X448196Y-271811D02*
X454046Y-277661D01*
X454046Y-285961D01*
X448196Y-291811D01*
X439896Y-291811D01*
X434046Y-285961D01*
X434046Y-277661D01*
X439896Y-271811D01*
X448196Y-271811D01*
G37*
G36*
X752996Y-221011D02*
X758846Y-226861D01*
X758846Y-235161D01*
X752996Y-241011D01*
X744696Y-241011D01*
X738846Y-235161D01*
X738846Y-226861D01*
X744696Y-221011D01*
X752996Y-221011D01*
G37*
G36*
X803796Y-221011D02*
X809646Y-226861D01*
X809646Y-235161D01*
X803796Y-241011D01*
X795496Y-241011D01*
X789646Y-235161D01*
X789646Y-226861D01*
X795496Y-221011D01*
X803796Y-221011D01*
G37*
G36*
X752996Y-322611D02*
X758846Y-328461D01*
X758846Y-336761D01*
X752996Y-342611D01*
X744696Y-342611D01*
X738846Y-336761D01*
X738846Y-328461D01*
X744696Y-322611D01*
X752996Y-322611D01*
G37*
G36*
X803796Y-322611D02*
X809646Y-328461D01*
X809646Y-336761D01*
X803796Y-342611D01*
X795496Y-342611D01*
X789646Y-336761D01*
X789646Y-328461D01*
X795496Y-322611D01*
X803796Y-322611D01*
G37*
G36*
X752996Y-297211D02*
X758846Y-303061D01*
X758846Y-311361D01*
X752996Y-317211D01*
X744696Y-317211D01*
X738846Y-311361D01*
X738846Y-303061D01*
X744696Y-297211D01*
X752996Y-297211D01*
G37*
G36*
X803796Y-297211D02*
X809646Y-303061D01*
X809646Y-311361D01*
X803796Y-317211D01*
X795496Y-317211D01*
X789646Y-311361D01*
X789646Y-303061D01*
X795496Y-297211D01*
X803796Y-297211D01*
G37*
G36*
X803796Y-271811D02*
X809646Y-277661D01*
X809646Y-285961D01*
X803796Y-291811D01*
X795496Y-291811D01*
X789646Y-285961D01*
X789646Y-277661D01*
X795496Y-271811D01*
X803796Y-271811D01*
G37*
G36*
X752996Y-271811D02*
X758846Y-277661D01*
X758846Y-285961D01*
X752996Y-291811D01*
X744696Y-291811D01*
X738846Y-285961D01*
X738846Y-277661D01*
X744696Y-271811D01*
X752996Y-271811D01*
G37*
G36*
X346596Y-221011D02*
X352446Y-226861D01*
X352446Y-235161D01*
X346596Y-241011D01*
X338296Y-241011D01*
X332446Y-235161D01*
X332446Y-226861D01*
X338296Y-221011D01*
X346596Y-221011D01*
G37*
G36*
X397396Y-221011D02*
X403246Y-226861D01*
X403246Y-235161D01*
X397396Y-241011D01*
X389096Y-241011D01*
X383246Y-235161D01*
X383246Y-226861D01*
X389096Y-221011D01*
X397396Y-221011D01*
G37*
G36*
X346596Y-322611D02*
X352446Y-328461D01*
X352446Y-336761D01*
X346596Y-342611D01*
X338296Y-342611D01*
X332446Y-336761D01*
X332446Y-328461D01*
X338296Y-322611D01*
X346596Y-322611D01*
G37*
G36*
X397396Y-322611D02*
X403246Y-328461D01*
X403246Y-336761D01*
X397396Y-342611D01*
X389096Y-342611D01*
X383246Y-336761D01*
X383246Y-328461D01*
X389096Y-322611D01*
X397396Y-322611D01*
G37*
G36*
X346596Y-297211D02*
X352446Y-303061D01*
X352446Y-311361D01*
X346596Y-317211D01*
X338296Y-317211D01*
X332446Y-311361D01*
X332446Y-303061D01*
X338296Y-297211D01*
X346596Y-297211D01*
G37*
G36*
X397396Y-297211D02*
X403246Y-303061D01*
X403246Y-311361D01*
X397396Y-317211D01*
X389096Y-317211D01*
X383246Y-311361D01*
X383246Y-303061D01*
X389096Y-297211D01*
X397396Y-297211D01*
G37*
G36*
X397396Y-271811D02*
X403246Y-277661D01*
X403246Y-285961D01*
X397396Y-291811D01*
X389096Y-291811D01*
X383246Y-285961D01*
X383246Y-277661D01*
X389096Y-271811D01*
X397396Y-271811D01*
G37*
G36*
X346596Y-271811D02*
X352446Y-277661D01*
X352446Y-285961D01*
X346596Y-291811D01*
X338296Y-291811D01*
X332446Y-285961D01*
X332446Y-277661D01*
X338296Y-271811D01*
X346596Y-271811D01*
G37*
X615906Y-412850D02*
G54D28*
D03*
X583406Y-412750D02*
G54D28*
D03*
X615906Y-383481D02*
G54D28*
D03*
X583406Y-383381D02*
G54D28*
D03*
X631774Y-430262D02*
G54D29*
D03*
X631774Y-468262D02*
G54D29*
D03*
G54D30*
X583406Y-383381D02*
X583406Y-365125D01*
X577850Y-359569D01*
X577850Y-287338D01*
X583406Y-281781D01*
X596416Y-281781D01*
X596446Y-281811D01*
G54D30*
X615906Y-383481D02*
X615906Y-315075D01*
X608012Y-307181D01*
X596476Y-307181D01*
X596446Y-307211D01*
X544988Y-376971D02*
G54D29*
D03*
X544988Y-414971D02*
G54D29*
D03*
G36*
X785926Y-465324D02*
X778614Y-472636D01*
X768238Y-472636D01*
X760926Y-465324D01*
X760926Y-454948D01*
X768238Y-447636D01*
X778614Y-447636D01*
X785926Y-454948D01*
X785926Y-465324D01*
G37*
G36*
X735126Y-465324D02*
X727814Y-472636D01*
X717438Y-472636D01*
X710126Y-465324D01*
X710126Y-454948D01*
X717438Y-447636D01*
X727814Y-447636D01*
X735126Y-454948D01*
X735126Y-465324D01*
G37*
G54D30*
X659606Y-478631D02*
X659606Y-372269D01*
X651669Y-364331D01*
X635794Y-364331D01*
X628650Y-357188D01*
X628650Y-288925D01*
X635794Y-281781D01*
X647216Y-281781D01*
X647246Y-281811D01*
X722000Y-106399D02*
G54D31*
D03*
X722100Y-73899D02*
G54D31*
D03*
X722000Y-158786D02*
G54D31*
D03*
X722100Y-126286D02*
G54D31*
D03*
G36*
X744694Y-138306D02*
X737382Y-130994D01*
X737382Y-120618D01*
X744694Y-113306D01*
X755070Y-113306D01*
X762382Y-120618D01*
X762382Y-130994D01*
X755070Y-138306D01*
X744694Y-138306D01*
G37*
G36*
X744694Y-87506D02*
X737382Y-80194D01*
X737382Y-69818D01*
X744694Y-62506D01*
X755070Y-62506D01*
X762382Y-69818D01*
X762382Y-80194D01*
X755070Y-87506D01*
X744694Y-87506D01*
G37*
G54D30*
X722100Y-73899D02*
X749882Y-73418D01*
G54D30*
X722000Y-158786D02*
X740400Y-158786D01*
X749881Y-149305D01*
X749882Y-124218D01*
G36*
X10000Y-21700D02*
X21700Y-10000D01*
X38300Y-10000D01*
X50000Y-21700D01*
X50000Y-38300D01*
X38300Y-50000D01*
X21700Y-50000D01*
X10000Y-38300D01*
X10000Y-21700D01*
G37*
G36*
X800000Y-21700D02*
X811700Y-10000D01*
X828300Y-10000D01*
X840000Y-21700D01*
X840000Y-38300D01*
X828300Y-50000D01*
X811700Y-50000D01*
X800000Y-38300D01*
X800000Y-21700D01*
G37*
G36*
X10000Y-531700D02*
X21700Y-520000D01*
X38300Y-520000D01*
X50000Y-531700D01*
X50000Y-548300D01*
X38300Y-560000D01*
X21700Y-560000D01*
X10000Y-548300D01*
X10000Y-531700D01*
G37*
G36*
X800000Y-531700D02*
X811700Y-520000D01*
X828300Y-520000D01*
X840000Y-531700D01*
X840000Y-548300D01*
X828300Y-560000D01*
X811700Y-560000D01*
X800000Y-548300D01*
X800000Y-531700D01*
G37*
G36*
X422944Y-376320D02*
X431719Y-385095D01*
X431719Y-397545D01*
X422944Y-406320D01*
X410494Y-406320D01*
X401719Y-397545D01*
X401719Y-385095D01*
X410494Y-376320D01*
X422944Y-376320D01*
G37*
G36*
X422944Y-528720D02*
X431719Y-537495D01*
X431719Y-549945D01*
X422944Y-558720D01*
X410494Y-558720D01*
X401719Y-549945D01*
X401719Y-537495D01*
X410494Y-528720D01*
X422944Y-528720D01*
G37*
G36*
X297094Y-387791D02*
X302066Y-382819D01*
X309122Y-382819D01*
X314094Y-387791D01*
X314094Y-394847D01*
X309122Y-399819D01*
X302066Y-399819D01*
X297094Y-394847D01*
X297094Y-387791D01*
G37*
G36*
X297094Y-413191D02*
X302066Y-408219D01*
X309122Y-408219D01*
X314094Y-413191D01*
X314094Y-420247D01*
X309122Y-425219D01*
X302066Y-425219D01*
X297094Y-420247D01*
X297094Y-413191D01*
G37*
G36*
X297094Y-438591D02*
X302066Y-433619D01*
X309122Y-433619D01*
X314094Y-438591D01*
X314094Y-445647D01*
X309122Y-450619D01*
X302066Y-450619D01*
X297094Y-445647D01*
X297094Y-438591D01*
G37*
G36*
X297094Y-463991D02*
X302066Y-459019D01*
X309122Y-459019D01*
X314094Y-463991D01*
X314094Y-471047D01*
X309122Y-476019D01*
X302066Y-476019D01*
X297094Y-471047D01*
X297094Y-463991D01*
G37*
G36*
X373294Y-387791D02*
X378266Y-382819D01*
X385322Y-382819D01*
X390294Y-387791D01*
X390294Y-394847D01*
X385322Y-399819D01*
X378266Y-399819D01*
X373294Y-394847D01*
X373294Y-387791D01*
G37*
G36*
X373294Y-413191D02*
X378266Y-408219D01*
X385322Y-408219D01*
X390294Y-413191D01*
X390294Y-420247D01*
X385322Y-425219D01*
X378266Y-425219D01*
X373294Y-420247D01*
X373294Y-413191D01*
G37*
G36*
X373294Y-438591D02*
X378266Y-433619D01*
X385322Y-433619D01*
X390294Y-438591D01*
X390294Y-445647D01*
X385322Y-450619D01*
X378266Y-450619D01*
X373294Y-445647D01*
X373294Y-438591D01*
G37*
G36*
X373294Y-463991D02*
X378266Y-459019D01*
X385322Y-459019D01*
X390294Y-463991D01*
X390294Y-471047D01*
X385322Y-476019D01*
X378266Y-476019D01*
X373294Y-471047D01*
X373294Y-463991D01*
G37*
G54D30*
X305594Y-391319D02*
X381794Y-391319D01*
G54D30*
X381794Y-416719D02*
X381794Y-391319D01*
G36*
X312938Y-521068D02*
X320250Y-513756D01*
X330626Y-513756D01*
X337938Y-521068D01*
X337938Y-531444D01*
X330626Y-538756D01*
X320250Y-538756D01*
X312938Y-531444D01*
X312938Y-521068D01*
G37*
G36*
X352938Y-521068D02*
X360250Y-513756D01*
X370626Y-513756D01*
X377938Y-521068D01*
X377938Y-531444D01*
X370626Y-538756D01*
X360250Y-538756D01*
X352938Y-531444D01*
X352938Y-521068D01*
G37*
G36*
X278048Y-501919D02*
X272783Y-496654D01*
X272783Y-489184D01*
X278048Y-483919D01*
X285518Y-483919D01*
X290783Y-489184D01*
X290783Y-496654D01*
X285518Y-501919D01*
X278048Y-501919D01*
G37*
G36*
X278048Y-451119D02*
X272783Y-445854D01*
X272783Y-438384D01*
X278048Y-433119D01*
X285518Y-433119D01*
X290783Y-438384D01*
X290783Y-445854D01*
X285518Y-451119D01*
X278048Y-451119D01*
G37*
X396009Y-517950D02*
G54D31*
D03*
X396109Y-485450D02*
G54D31*
D03*
G54D30*
X416719Y-391320D02*
X381794Y-391319D01*
G54D32*
X416719Y-543720D02*
X382902Y-543720D01*
X365438Y-526256D01*
X340151Y-434650D02*
G54D31*
D03*
X340051Y-467150D02*
G54D31*
D03*
G54D33*
X372269Y-429419D02*
X390525Y-429419D01*
G54D30*
X340151Y-434650D02*
X345281Y-429419D01*
X369094Y-429419D01*
G54D30*
X381794Y-467519D02*
X397669Y-467519D01*
X402431Y-462756D01*
X402431Y-434181D01*
X397669Y-429419D01*
X392906Y-429419D01*
G36*
X187057Y-509687D02*
X194369Y-516999D01*
X194369Y-527375D01*
X187057Y-534687D01*
X176681Y-534687D01*
X169369Y-527375D01*
X169369Y-516999D01*
X176681Y-509687D01*
X187057Y-509687D01*
G37*
G36*
X187057Y-459681D02*
X194369Y-466993D01*
X194369Y-477369D01*
X187057Y-484681D01*
X176681Y-484681D01*
X169369Y-477369D01*
X169369Y-466993D01*
X176681Y-459681D01*
X187057Y-459681D01*
G37*
G54D34*
X181869Y-472181D02*
X76995Y-472281D01*
G54D35*
X76995Y-512281D02*
X76994Y-546894D01*
X84138Y-554038D01*
X337344Y-553244D01*
G36*
X83219Y-367588D02*
X91994Y-376363D01*
X91994Y-388813D01*
X83219Y-397588D01*
X70769Y-397588D01*
X61994Y-388813D01*
X61994Y-376363D01*
X70769Y-367588D01*
X83219Y-367588D01*
G37*
G36*
X83219Y-418388D02*
X91994Y-427163D01*
X91994Y-439613D01*
X83219Y-448388D01*
X70769Y-448388D01*
X61994Y-439613D01*
X61994Y-427163D01*
X70769Y-418388D01*
X83219Y-418388D01*
G37*
G36*
X134019Y-392988D02*
X142794Y-401763D01*
X142794Y-414213D01*
X134019Y-422988D01*
X121569Y-422988D01*
X112794Y-414213D01*
X112794Y-401763D01*
X121569Y-392988D01*
X134019Y-392988D01*
G37*
X164306Y-407988D02*
G54D28*
D03*
X196806Y-408088D02*
G54D28*
D03*
G54D33*
X294481Y-404019D02*
X319881Y-404019D01*
G54D30*
X319881Y-404019D02*
X334962Y-404019D01*
X341312Y-410369D01*
X341312Y-428625D01*
G54D30*
X76995Y-472281D02*
X76994Y-433388D01*
X108275Y-510568D02*
G54D31*
D03*
X108375Y-478068D02*
G54D31*
D03*
G54D30*
X76994Y-382588D02*
X102394Y-382588D01*
X127794Y-407988D01*
G54D30*
X322264Y-525462D02*
X297656Y-525462D01*
X292894Y-530225D01*
X270670Y-530224D01*
G54D30*
X305594Y-467519D02*
X280976Y-467519D01*
X275433Y-473062D01*
X275433Y-500062D01*
G36*
X71807Y-524781D02*
X64495Y-517469D01*
X64495Y-507093D01*
X71807Y-499781D01*
X82183Y-499781D01*
X89495Y-507093D01*
X89495Y-517469D01*
X82183Y-524781D01*
X71807Y-524781D01*
G37*
G36*
X71807Y-484781D02*
X64495Y-477469D01*
X64495Y-467093D01*
X71807Y-459781D01*
X82183Y-459781D01*
X89495Y-467093D01*
X89495Y-477469D01*
X82183Y-484781D01*
X71807Y-484781D01*
G37*
G54D36*
X76994Y-472281D02*
X48419Y-472281D01*
X42862Y-477838D01*
G36*
X270670Y-549276D02*
X278606Y-557212D01*
X338931Y-557212D01*
X345281Y-550862D01*
X345281Y-473075D01*
X339725Y-467519D01*
X275431Y-467519D01*
X270669Y-472281D01*
X270670Y-549276D01*
G37*
G54D30*
X270670Y-549276D02*
X278606Y-557212D01*
X338931Y-557212D01*
X345281Y-550862D01*
X345281Y-473075D01*
X339725Y-467519D01*
X275431Y-467519D01*
X270669Y-472281D01*
X270670Y-549276D01*
G36*
X253767Y-468044D02*
X259032Y-473309D01*
X259032Y-480779D01*
X253767Y-486044D01*
X246297Y-486044D01*
X241032Y-480779D01*
X241032Y-473309D01*
X246297Y-468044D01*
X253767Y-468044D01*
G37*
G36*
X253767Y-544244D02*
X259032Y-549509D01*
X259032Y-556979D01*
X253767Y-562244D01*
X246297Y-562244D01*
X241032Y-556979D01*
X241032Y-549509D01*
X246297Y-544244D01*
X253767Y-544244D01*
G37*
G54D37*
X181869Y-522187D02*
X242194Y-522187D01*
X250031Y-514350D01*
X250032Y-477044D01*
G54D38*
X250032Y-480219D02*
X250032Y-424656D01*
X257969Y-416719D01*
X305594Y-416719D01*
G54D38*
X281783Y-442119D02*
X305594Y-442119D01*
G36*
X651396Y-221011D02*
X657246Y-226861D01*
X657246Y-235161D01*
X651396Y-241011D01*
X643096Y-241011D01*
X637246Y-235161D01*
X637246Y-226861D01*
X643096Y-221011D01*
X651396Y-221011D01*
G37*
G36*
X702196Y-221011D02*
X708046Y-226861D01*
X708046Y-235161D01*
X702196Y-241011D01*
X693896Y-241011D01*
X688046Y-235161D01*
X688046Y-226861D01*
X693896Y-221011D01*
X702196Y-221011D01*
G37*
G36*
X651396Y-322611D02*
X657246Y-328461D01*
X657246Y-336761D01*
X651396Y-342611D01*
X643096Y-342611D01*
X637246Y-336761D01*
X637246Y-328461D01*
X643096Y-322611D01*
X651396Y-322611D01*
G37*
G36*
X702196Y-322611D02*
X708046Y-328461D01*
X708046Y-336761D01*
X702196Y-342611D01*
X693896Y-342611D01*
X688046Y-336761D01*
X688046Y-328461D01*
X693896Y-322611D01*
X702196Y-322611D01*
G37*
G36*
X651396Y-297211D02*
X657246Y-303061D01*
X657246Y-311361D01*
X651396Y-317211D01*
X643096Y-317211D01*
X637246Y-311361D01*
X637246Y-303061D01*
X643096Y-297211D01*
X651396Y-297211D01*
G37*
G36*
X702196Y-297211D02*
X708046Y-303061D01*
X708046Y-311361D01*
X702196Y-317211D01*
X693896Y-317211D01*
X688046Y-311361D01*
X688046Y-303061D01*
X693896Y-297211D01*
X702196Y-297211D01*
G37*
G36*
X702196Y-271811D02*
X708046Y-277661D01*
X708046Y-285961D01*
X702196Y-291811D01*
X693896Y-291811D01*
X688046Y-285961D01*
X688046Y-277661D01*
X693896Y-271811D01*
X702196Y-271811D01*
G37*
G36*
X651396Y-271811D02*
X657246Y-277661D01*
X657246Y-285961D01*
X651396Y-291811D01*
X643096Y-291811D01*
X637246Y-285961D01*
X637246Y-277661D01*
X643096Y-271811D01*
X651396Y-271811D01*
G37*
G36*
X549796Y-221011D02*
X555646Y-226861D01*
X555646Y-235161D01*
X549796Y-241011D01*
X541496Y-241011D01*
X535646Y-235161D01*
X535646Y-226861D01*
X541496Y-221011D01*
X549796Y-221011D01*
G37*
G36*
X600596Y-221011D02*
X606446Y-226861D01*
X606446Y-235161D01*
X600596Y-241011D01*
X592296Y-241011D01*
X586446Y-235161D01*
X586446Y-226861D01*
X592296Y-221011D01*
X600596Y-221011D01*
G37*
G36*
X549796Y-322611D02*
X555646Y-328461D01*
X555646Y-336761D01*
X549796Y-342611D01*
X541496Y-342611D01*
X535646Y-336761D01*
X535646Y-328461D01*
X541496Y-322611D01*
X549796Y-322611D01*
G37*
G36*
X600596Y-322611D02*
X606446Y-328461D01*
X606446Y-336761D01*
X600596Y-342611D01*
X592296Y-342611D01*
X586446Y-336761D01*
X586446Y-328461D01*
X592296Y-322611D01*
X600596Y-322611D01*
G37*
G36*
X549796Y-297211D02*
X555646Y-303061D01*
X555646Y-311361D01*
X549796Y-317211D01*
X541496Y-317211D01*
X535646Y-311361D01*
X535646Y-303061D01*
X541496Y-297211D01*
X549796Y-297211D01*
G37*
G36*
X600596Y-297211D02*
X606446Y-303061D01*
X606446Y-311361D01*
X600596Y-317211D01*
X592296Y-317211D01*
X586446Y-311361D01*
X586446Y-303061D01*
X592296Y-297211D01*
X600596Y-297211D01*
G37*
G36*
X600596Y-271811D02*
X606446Y-277661D01*
X606446Y-285961D01*
X600596Y-291811D01*
X592296Y-291811D01*
X586446Y-285961D01*
X586446Y-277661D01*
X592296Y-271811D01*
X600596Y-271811D01*
G37*
G36*
X549796Y-271811D02*
X555646Y-277661D01*
X555646Y-285961D01*
X549796Y-291811D01*
X541496Y-291811D01*
X535646Y-285961D01*
X535646Y-277661D01*
X541496Y-271811D01*
X549796Y-271811D01*
G37*
G36*
X288101Y-267630D02*
X282251Y-273480D01*
X273951Y-273480D01*
X268101Y-267630D01*
X268101Y-259330D01*
X273951Y-253480D01*
X282251Y-253480D01*
X288101Y-259330D01*
X288101Y-267630D01*
G37*
G36*
X288101Y-242230D02*
X282251Y-248080D01*
X273951Y-248080D01*
X268101Y-242230D01*
X268101Y-233930D01*
X273951Y-228080D01*
X282251Y-228080D01*
X288101Y-233930D01*
X288101Y-242230D01*
G37*
G36*
X288101Y-216830D02*
X282251Y-222680D01*
X273951Y-222680D01*
X268101Y-216830D01*
X268101Y-208530D01*
X273951Y-202680D01*
X282251Y-202680D01*
X288101Y-208530D01*
X288101Y-216830D01*
G37*
G36*
X288101Y-191430D02*
X282251Y-197280D01*
X273951Y-197280D01*
X268101Y-191430D01*
X268101Y-183130D01*
X273951Y-177280D01*
X282251Y-177280D01*
X288101Y-183130D01*
X288101Y-191430D01*
G37*
G36*
X288101Y-166030D02*
X282251Y-171880D01*
X273951Y-171880D01*
X268101Y-166030D01*
X268101Y-157730D01*
X273951Y-151880D01*
X282251Y-151880D01*
X288101Y-157730D01*
X288101Y-166030D01*
G37*
G36*
X286601Y-140008D02*
X281629Y-144980D01*
X274573Y-144980D01*
X269601Y-140008D01*
X269601Y-132952D01*
X274573Y-127980D01*
X281629Y-127980D01*
X286601Y-132952D01*
X286601Y-140008D01*
G37*
G36*
X286601Y-114608D02*
X281629Y-119580D01*
X274573Y-119580D01*
X269601Y-114608D01*
X269601Y-107552D01*
X274573Y-102580D01*
X281629Y-102580D01*
X286601Y-107552D01*
X286601Y-114608D01*
G37*
G36*
X288101Y-89830D02*
X282251Y-95680D01*
X273951Y-95680D01*
X268101Y-89830D01*
X268101Y-81530D01*
X273951Y-75680D01*
X282251Y-75680D01*
X288101Y-81530D01*
X288101Y-89830D01*
G37*
G36*
X59501Y-267630D02*
X53651Y-273480D01*
X45351Y-273480D01*
X39501Y-267630D01*
X39501Y-259330D01*
X45351Y-253480D01*
X53651Y-253480D01*
X59501Y-259330D01*
X59501Y-267630D01*
G37*
G36*
X59501Y-242230D02*
X53651Y-248080D01*
X45351Y-248080D01*
X39501Y-242230D01*
X39501Y-233930D01*
X45351Y-228080D01*
X53651Y-228080D01*
X59501Y-233930D01*
X59501Y-242230D01*
G37*
G36*
X59501Y-216830D02*
X53651Y-222680D01*
X45351Y-222680D01*
X39501Y-216830D01*
X39501Y-208530D01*
X45351Y-202680D01*
X53651Y-202680D01*
X59501Y-208530D01*
X59501Y-216830D01*
G37*
G36*
X59501Y-191430D02*
X53651Y-197280D01*
X45351Y-197280D01*
X39501Y-191430D01*
X39501Y-183130D01*
X45351Y-177280D01*
X53651Y-177280D01*
X59501Y-183130D01*
X59501Y-191430D01*
G37*
G36*
X59501Y-166030D02*
X53651Y-171880D01*
X45351Y-171880D01*
X39501Y-166030D01*
X39501Y-157730D01*
X45351Y-151880D01*
X53651Y-151880D01*
X59501Y-157730D01*
X59501Y-166030D01*
G37*
G36*
X59501Y-140630D02*
X53651Y-146480D01*
X45351Y-146480D01*
X39501Y-140630D01*
X39501Y-132330D01*
X45351Y-126480D01*
X53651Y-126480D01*
X59501Y-132330D01*
X59501Y-140630D01*
G37*
G36*
X59501Y-115230D02*
X53651Y-121080D01*
X45351Y-121080D01*
X39501Y-115230D01*
X39501Y-106930D01*
X45351Y-101080D01*
X53651Y-101080D01*
X59501Y-106930D01*
X59501Y-115230D01*
G37*
G36*
X59501Y-89830D02*
X53651Y-95680D01*
X45351Y-95680D01*
X39501Y-89830D01*
X39501Y-81530D01*
X45351Y-75680D01*
X53651Y-75680D01*
X59501Y-81530D01*
X59501Y-89830D01*
G37*
G54D30*
X721306Y-126286D02*
X722000Y-106399D01*
G36*
X670244Y-201431D02*
X676094Y-195581D01*
X684394Y-195581D01*
X690244Y-201431D01*
X690244Y-209731D01*
X684394Y-215581D01*
X676094Y-215581D01*
X670244Y-209731D01*
X670244Y-201431D01*
G37*
G36*
X738506Y-201431D02*
X744356Y-195581D01*
X752656Y-195581D01*
X758506Y-201431D01*
X758506Y-209731D01*
X752656Y-215581D01*
X744356Y-215581D01*
X738506Y-209731D01*
X738506Y-201431D01*
G37*
G54D30*
X748846Y-281811D02*
X766732Y-281811D01*
X773112Y-275431D01*
X773112Y-183356D01*
G54D30*
X748846Y-231011D02*
X748846Y-205921D01*
X748506Y-205581D01*
G54D30*
X748846Y-307211D02*
X737424Y-307211D01*
X729456Y-299244D01*
X729456Y-175419D01*
X722312Y-168275D01*
X722000Y-158786D01*
G54D30*
X545646Y-307211D02*
X560358Y-307211D01*
X564356Y-303212D01*
X564356Y-269875D01*
X569912Y-264319D01*
X710406Y-264319D01*
X716756Y-257969D01*
X716756Y-184150D01*
X703262Y-170656D01*
X703262Y-79375D01*
X708819Y-73819D01*
X722020Y-73819D01*
X722100Y-73899D01*
G36*
X212212Y-267083D02*
X207240Y-272055D01*
X200184Y-272055D01*
X195212Y-267083D01*
X195212Y-260027D01*
X200184Y-255055D01*
X207240Y-255055D01*
X212212Y-260027D01*
X212212Y-267083D01*
G37*
G36*
X212212Y-241683D02*
X207240Y-246655D01*
X200184Y-246655D01*
X195212Y-241683D01*
X195212Y-234627D01*
X200184Y-229655D01*
X207240Y-229655D01*
X212212Y-234627D01*
X212212Y-241683D01*
G37*
G36*
X212212Y-216283D02*
X207240Y-221255D01*
X200184Y-221255D01*
X195212Y-216283D01*
X195212Y-209227D01*
X200184Y-204255D01*
X207240Y-204255D01*
X212212Y-209227D01*
X212212Y-216283D01*
G37*
G36*
X212212Y-190883D02*
X207240Y-195855D01*
X200184Y-195855D01*
X195212Y-190883D01*
X195212Y-183827D01*
X200184Y-178855D01*
X207240Y-178855D01*
X212212Y-183827D01*
X212212Y-190883D01*
G37*
G36*
X137012Y-267497D02*
X131454Y-273055D01*
X123570Y-273055D01*
X118012Y-267497D01*
X118012Y-259613D01*
X123570Y-254055D01*
X131454Y-254055D01*
X137012Y-259613D01*
X137012Y-267497D01*
G37*
G36*
X137012Y-242097D02*
X131454Y-247655D01*
X123570Y-247655D01*
X118012Y-242097D01*
X118012Y-234213D01*
X123570Y-228655D01*
X131454Y-228655D01*
X137012Y-234213D01*
X137012Y-242097D01*
G37*
G36*
X137012Y-216697D02*
X131454Y-222255D01*
X123570Y-222255D01*
X118012Y-216697D01*
X118012Y-208813D01*
X123570Y-203255D01*
X131454Y-203255D01*
X137012Y-208813D01*
X137012Y-216697D01*
G37*
G36*
X137012Y-191297D02*
X131454Y-196855D01*
X123570Y-196855D01*
X118012Y-191297D01*
X118012Y-183413D01*
X123570Y-177855D01*
X131454Y-177855D01*
X137012Y-183413D01*
X137012Y-191297D01*
G37*
G36*
X211712Y-165275D02*
X207032Y-169955D01*
X200392Y-169955D01*
X195712Y-165275D01*
X195712Y-158635D01*
X200392Y-153955D01*
X207032Y-153955D01*
X211712Y-158635D01*
X211712Y-165275D01*
G37*
G36*
X135512Y-165275D02*
X130832Y-169955D01*
X124192Y-169955D01*
X119512Y-165275D01*
X119512Y-158635D01*
X124192Y-153955D01*
X130832Y-153955D01*
X135512Y-158635D01*
X135512Y-165275D01*
G37*
G36*
X211712Y-139875D02*
X207032Y-144555D01*
X200392Y-144555D01*
X195712Y-139875D01*
X195712Y-133235D01*
X200392Y-128555D01*
X207032Y-128555D01*
X211712Y-133235D01*
X211712Y-139875D01*
G37*
G36*
X213212Y-115097D02*
X207654Y-120655D01*
X199770Y-120655D01*
X194212Y-115097D01*
X194212Y-107213D01*
X199770Y-101655D01*
X207654Y-101655D01*
X213212Y-107213D01*
X213212Y-115097D01*
G37*
G36*
X136012Y-140083D02*
X131040Y-145055D01*
X123984Y-145055D01*
X119012Y-140083D01*
X119012Y-133027D01*
X123984Y-128055D01*
X131040Y-128055D01*
X136012Y-133027D01*
X136012Y-140083D01*
G37*
G36*
X135512Y-114475D02*
X130832Y-119155D01*
X124192Y-119155D01*
X119512Y-114475D01*
X119512Y-107835D01*
X124192Y-103155D01*
X130832Y-103155D01*
X135512Y-107835D01*
X135512Y-114475D01*
G37*
G36*
X213212Y-89697D02*
X207654Y-95255D01*
X199770Y-95255D01*
X194212Y-89697D01*
X194212Y-81813D01*
X199770Y-76255D01*
X207654Y-76255D01*
X213212Y-81813D01*
X213212Y-89697D01*
G37*
G36*
X135512Y-89075D02*
X130832Y-93755D01*
X124192Y-93755D01*
X119512Y-89075D01*
X119512Y-82435D01*
X124192Y-77755D01*
X130832Y-77755D01*
X135512Y-82435D01*
X135512Y-89075D01*
G37*
G54D30*
X748846Y-281811D02*
X766732Y-281811D01*
X773112Y-275431D01*
X773112Y-104775D01*
X766762Y-98425D01*
X736974Y-98425D01*
X729800Y-105599D01*
X25725Y-493344D02*
G54D31*
D03*
X25825Y-460844D02*
G54D31*
D03*
G54D30*
X25825Y-460844D02*
X26194Y-117475D01*
X32544Y-111125D01*
X49456Y-111125D01*
X49501Y-111080D01*
G54D36*
X127512Y-263555D02*
X167452Y-263555D01*
X170656Y-260350D01*
X170656Y-150019D01*
X179388Y-141288D01*
X179388Y-61912D01*
X184944Y-56356D01*
X460375Y-56356D01*
X466725Y-62706D01*
X466725Y-184150D01*
X460375Y-190500D01*
X398462Y-190500D01*
X393700Y-195262D01*
X393700Y-230558D01*
X393246Y-231011D01*
G54D36*
X127512Y-238155D02*
X158720Y-238155D01*
X161131Y-235744D01*
X161131Y-145256D01*
X169862Y-136525D01*
X169862Y-51594D01*
X174625Y-46831D01*
X471488Y-46831D01*
X477044Y-52388D01*
X477044Y-198438D01*
X495300Y-216694D01*
X495300Y-230558D01*
X494846Y-231011D01*
G54D36*
X127512Y-212755D02*
X148402Y-212755D01*
X151606Y-209550D01*
X151606Y-140494D01*
X160338Y-131762D01*
X160338Y-42069D01*
X165100Y-37306D01*
X481806Y-37306D01*
X487362Y-42862D01*
X487362Y-188119D01*
X493712Y-194469D01*
X590550Y-194469D01*
X596106Y-200025D01*
X596106Y-230671D01*
X596446Y-231011D01*
G54D36*
X127794Y-187325D02*
X138906Y-187325D01*
X142081Y-184150D01*
X142081Y-135731D01*
X150812Y-127000D01*
X150812Y-33338D01*
X156369Y-27781D01*
X492919Y-27781D01*
X497681Y-32544D01*
X497681Y-178594D01*
X504031Y-184944D01*
X690562Y-184944D01*
X697706Y-192088D01*
X697706Y-230981D01*
G54D36*
X127512Y-161955D02*
X116711Y-161955D01*
X111125Y-156369D01*
X111125Y-104775D01*
X117475Y-98425D01*
G54D36*
X137319Y-98425D02*
X141288Y-94456D01*
X141288Y-23812D01*
X146844Y-18256D01*
X502444Y-18256D01*
X508000Y-23812D01*
X508000Y-169862D01*
X513556Y-175419D01*
X667544Y-175419D01*
X671512Y-171450D01*
X671512Y-57944D01*
X676275Y-53181D01*
X793750Y-53181D01*
X799306Y-58738D01*
X799306Y-230671D01*
X799646Y-231011D01*
G54D33*
X117475Y-98425D02*
X137319Y-98425D01*
G36*
X643118Y-127080D02*
X648968Y-132930D01*
X648968Y-141230D01*
X643118Y-147080D01*
X634818Y-147080D01*
X628968Y-141230D01*
X628968Y-132930D01*
X634818Y-127080D01*
X643118Y-127080D01*
G37*
G36*
X617718Y-127080D02*
X623568Y-132930D01*
X623568Y-141230D01*
X617718Y-147080D01*
X609418Y-147080D01*
X603568Y-141230D01*
X603568Y-132930D01*
X609418Y-127080D01*
X617718Y-127080D01*
G37*
G36*
X592318Y-127080D02*
X598168Y-132930D01*
X598168Y-141230D01*
X592318Y-147080D01*
X584018Y-147080D01*
X578168Y-141230D01*
X578168Y-132930D01*
X584018Y-127080D01*
X592318Y-127080D01*
G37*
G36*
X566918Y-127080D02*
X572768Y-132930D01*
X572768Y-141230D01*
X566918Y-147080D01*
X558618Y-147080D01*
X552768Y-141230D01*
X552768Y-132930D01*
X558618Y-127080D01*
X566918Y-127080D01*
G37*
G36*
X432269Y-82197D02*
X437241Y-77225D01*
X444297Y-77225D01*
X449269Y-82197D01*
X449269Y-89253D01*
X444297Y-94225D01*
X437241Y-94225D01*
X432269Y-89253D01*
X432269Y-82197D01*
G37*
G54D30*
X278101Y-85680D02*
X440769Y-85725D01*
G36*
X527281Y-82197D02*
X532253Y-77225D01*
X539309Y-77225D01*
X544281Y-82197D01*
X544281Y-89253D01*
X539309Y-94225D01*
X532253Y-94225D01*
X527281Y-89253D01*
X527281Y-82197D01*
G37*
G36*
X442588Y-107597D02*
X447560Y-102625D01*
X454616Y-102625D01*
X459588Y-107597D01*
X459588Y-114653D01*
X454616Y-119625D01*
X447560Y-119625D01*
X442588Y-114653D01*
X442588Y-107597D01*
G37*
G36*
X527281Y-107597D02*
X532253Y-102625D01*
X539309Y-102625D01*
X544281Y-107597D01*
X544281Y-114653D01*
X539309Y-119625D01*
X532253Y-119625D01*
X527281Y-114653D01*
X527281Y-107597D01*
G37*
G54D36*
X203994Y-85725D02*
X203994Y-69850D01*
X207962Y-65881D01*
X451644Y-65881D01*
X456406Y-70644D01*
X456406Y-92869D01*
X450850Y-98425D01*
X450850Y-111125D01*
G36*
X442509Y-132997D02*
X447481Y-128025D01*
X454537Y-128025D01*
X459509Y-132997D01*
X459509Y-140053D01*
X454537Y-145025D01*
X447481Y-145025D01*
X442509Y-140053D01*
X442509Y-132997D01*
G37*
G36*
X527281Y-132997D02*
X532253Y-128025D01*
X539309Y-128025D01*
X544281Y-132997D01*
X544281Y-140053D01*
X539309Y-145025D01*
X532253Y-145025D01*
X527281Y-140053D01*
X527281Y-132997D01*
G37*
G36*
X426634Y-155222D02*
X431606Y-150250D01*
X438662Y-150250D01*
X443634Y-155222D01*
X443634Y-162278D01*
X438662Y-167250D01*
X431606Y-167250D01*
X426634Y-162278D01*
X426634Y-155222D01*
G37*
G36*
X515296Y-155222D02*
X520268Y-150250D01*
X527324Y-150250D01*
X532296Y-155222D01*
X532296Y-162278D01*
X527324Y-167250D01*
X520268Y-167250D01*
X515296Y-162278D01*
X515296Y-155222D01*
G37*
G54D39*
X644679Y-42097D02*
X644679Y-50430D01*
X645346Y-52097D01*
X646679Y-52930D01*
X648013Y-52930D01*
X649346Y-52097D01*
X650013Y-50430D01*
X650013Y-42097D01*
X649346Y-40430D01*
X648013Y-39597D01*
X646679Y-39597D01*
X645346Y-40430D01*
X644679Y-42097D01*
G54D39*
X640013Y-39597D02*
X640013Y-52930D01*
X635346Y-52930D01*
G54D39*
X626012Y-52930D02*
X630679Y-52930D01*
X630679Y-39597D01*
X626012Y-39597D01*
G54D39*
X630679Y-46264D02*
X626012Y-46264D01*
G54D39*
X621345Y-52930D02*
X621345Y-39597D01*
X618011Y-39597D01*
X616678Y-40430D01*
X616011Y-42097D01*
X616011Y-50430D01*
X616678Y-52097D01*
X618011Y-52930D01*
X621345Y-52930D01*
G54D39*
X611345Y-47097D02*
X606011Y-47097D01*
G54D39*
X601345Y-52930D02*
X601345Y-39597D01*
X598011Y-39597D01*
X596678Y-40430D01*
X596011Y-42097D01*
X596011Y-50430D01*
X596678Y-52097D01*
X598011Y-52930D01*
X601345Y-52930D01*
G54D39*
X591345Y-52930D02*
X591345Y-45430D01*
G54D39*
X591345Y-42930D02*
X591345Y-42930D01*
G54D39*
X586678Y-52097D02*
X585344Y-52930D01*
X584011Y-52930D01*
X582678Y-52097D01*
X582678Y-50430D01*
X583344Y-49597D01*
X586011Y-48764D01*
X586678Y-47930D01*
X586678Y-46264D01*
X585344Y-45430D01*
X584011Y-45430D01*
X582678Y-46264D01*
G54D39*
X578011Y-45430D02*
X578011Y-56264D01*
G54D39*
X578011Y-50430D02*
X577344Y-52597D01*
X576011Y-52930D01*
X574677Y-52597D01*
X574011Y-50930D01*
X574011Y-47597D01*
X574677Y-45930D01*
X576011Y-45430D01*
X577344Y-45930D01*
X578011Y-47930D01*
G54D39*
X569344Y-52930D02*
X569344Y-39597D01*
G54D39*
X564677Y-46264D02*
X563343Y-45430D01*
X561743Y-45430D01*
X560677Y-47097D01*
X560677Y-52930D01*
G54D39*
X560677Y-50430D02*
X561343Y-48764D01*
X562677Y-48430D01*
X564010Y-48764D01*
X564677Y-50430D01*
X564410Y-52097D01*
X563343Y-52930D01*
X562677Y-52930D01*
X562410Y-52930D01*
X561343Y-52097D01*
X560677Y-50430D01*
G54D39*
X556010Y-45430D02*
X553343Y-52930D01*
X550676Y-45430D01*
G54D39*
X553343Y-52930D02*
X554010Y-55430D01*
X554676Y-56264D01*
X555343Y-56264D01*
G54D40*
X780256Y-73185D02*
X773145Y-73185D01*
G54D40*
X776701Y-68740D02*
X776701Y-77629D01*
G54D40*
X708819Y-478791D02*
X701708Y-478791D01*
G54D40*
X705263Y-474346D02*
X705263Y-483235D01*
G54D40*
X61912Y-455772D02*
X54801Y-455772D01*
G54D40*
X58357Y-451328D02*
X58357Y-460217D01*
X78906Y-115518D02*
G54D31*
D03*
X79006Y-83018D02*
G54D31*
D03*
G54D41*
X817526Y-223157D02*
X839748Y-223157D01*
G54D41*
X817526Y-214268D02*
X839748Y-214268D01*
G54D41*
X828637Y-223157D02*
X828637Y-214268D01*
G54D41*
X817526Y-206490D02*
X839748Y-206490D01*
X839748Y-200934D01*
X838359Y-198712D01*
X835582Y-197601D01*
X832804Y-197601D01*
X830026Y-198712D01*
X828637Y-200934D01*
X827248Y-198712D01*
X824470Y-197601D01*
X821693Y-197601D01*
X818915Y-198712D01*
X817526Y-200934D01*
X817526Y-206490D01*
G54D41*
X828637Y-206490D02*
X828637Y-200934D01*
G54D41*
X820859Y-183156D02*
X826415Y-183156D01*
X829193Y-184267D01*
X830026Y-186490D01*
X829193Y-188712D01*
X826415Y-189823D01*
X820859Y-189823D01*
X818082Y-188712D01*
X817526Y-186490D01*
X818082Y-184267D01*
X820859Y-183156D01*
G54D41*
X818915Y-175378D02*
X817526Y-173156D01*
X817526Y-170934D01*
X818915Y-168711D01*
X821693Y-168711D01*
X823082Y-169822D01*
X824470Y-174267D01*
X825859Y-175378D01*
X828637Y-175378D01*
X830026Y-173156D01*
X830026Y-170934D01*
X828637Y-168711D01*
G54D41*
X818915Y-154266D02*
X817526Y-156044D01*
X817526Y-158266D01*
X818915Y-160489D01*
X821693Y-160933D01*
X826415Y-160933D01*
X829193Y-159822D01*
X830026Y-157600D01*
X829193Y-155377D01*
X827248Y-154266D01*
X824470Y-154266D01*
X824470Y-160933D01*
G54D41*
X817526Y-129599D02*
X817526Y-138488D01*
X818915Y-138488D01*
X821693Y-137377D01*
X830026Y-130710D01*
X832804Y-129599D01*
X835582Y-129599D01*
X838359Y-130710D01*
X839748Y-132932D01*
X839748Y-135155D01*
X838359Y-137377D01*
X835582Y-138488D01*
G54D41*
X835582Y-112932D02*
X821693Y-112932D01*
X818915Y-114043D01*
X817526Y-116265D01*
X817526Y-118488D01*
X818915Y-120710D01*
X821693Y-121821D01*
X835582Y-121821D01*
X838359Y-120710D01*
X839748Y-118488D01*
X839748Y-116265D01*
X838359Y-114043D01*
X835582Y-112932D01*
G54D41*
X817526Y-96265D02*
X817526Y-105154D01*
X818915Y-105154D01*
X821693Y-104043D01*
X830026Y-97376D01*
X832804Y-96265D01*
X835582Y-96265D01*
X838359Y-97376D01*
X839748Y-99598D01*
X839748Y-101821D01*
X838359Y-104043D01*
X835582Y-105154D01*
G54D41*
X817526Y-81820D02*
X839748Y-81820D01*
X825859Y-88487D01*
X823082Y-88487D01*
X823082Y-79598D01*
G54D42*
X820970Y-506086D02*
X836970Y-502086D01*
X820970Y-498086D01*
G54D42*
X826970Y-504486D02*
X826970Y-499686D01*
G54D42*
X836970Y-492486D02*
X836970Y-486086D01*
X834970Y-486886D01*
X831970Y-488486D01*
X827970Y-490086D01*
X824970Y-490886D01*
X820970Y-490886D01*
G54D42*
X836970Y-480486D02*
X836970Y-474086D01*
X834970Y-474886D01*
X831970Y-476486D01*
X827970Y-478086D01*
X824970Y-478886D01*
X820970Y-478886D01*
G54D42*
X836970Y-462726D02*
X820970Y-462726D01*
X830970Y-458726D01*
X820970Y-454726D01*
X836970Y-454726D01*
G54D42*
X836970Y-449126D02*
X820970Y-449126D01*
X820970Y-443526D01*
G54D42*
X820970Y-437926D02*
X836970Y-433926D01*
X820970Y-429926D01*
G54D42*
X826970Y-436326D02*
X826970Y-431526D01*
G54D42*
X820970Y-424326D02*
X836970Y-424326D01*
X820970Y-417926D01*
X836970Y-417926D01*
G54D42*
X820970Y-406566D02*
X836970Y-406566D01*
X836970Y-400966D01*
G54D42*
X828970Y-406566D02*
X828970Y-400966D01*
G54D42*
X821970Y-390566D02*
X820970Y-391846D01*
X820970Y-393446D01*
X821970Y-395046D01*
X823970Y-395366D01*
X827370Y-395366D01*
X829370Y-394566D01*
X829970Y-392966D01*
X829370Y-391366D01*
X827970Y-390566D01*
X825970Y-390566D01*
X825970Y-395366D01*
G54D42*
X820970Y-384966D02*
X829970Y-384966D01*
G54D42*
X827970Y-384966D02*
X829970Y-383366D01*
X829970Y-381766D01*
G54D42*
X820970Y-376166D02*
X829970Y-376166D01*
G54D42*
X827970Y-376166D02*
X829370Y-375366D01*
X829970Y-373766D01*
X829370Y-372166D01*
X827970Y-371366D01*
X820970Y-371366D01*
G54D42*
X820970Y-365766D02*
X836970Y-365766D01*
G54D42*
X827370Y-365766D02*
X829370Y-364966D01*
X829970Y-363366D01*
X829370Y-361766D01*
X827370Y-360966D01*
X823370Y-360966D01*
X821370Y-361766D01*
X820970Y-363366D01*
X821370Y-364966D01*
X823370Y-365766D01*
G54D42*
X821970Y-350566D02*
X820970Y-351846D01*
X820970Y-353446D01*
X821970Y-355046D01*
X823970Y-355366D01*
X827370Y-355366D01*
X829370Y-354566D01*
X829970Y-352966D01*
X829370Y-351366D01*
X827970Y-350566D01*
X825970Y-350566D01*
X825970Y-355366D01*
G54D42*
X820970Y-340166D02*
X836970Y-340166D01*
G54D42*
X827370Y-340166D02*
X829370Y-340966D01*
X829970Y-342566D01*
X829370Y-344166D01*
X827370Y-344966D01*
X823370Y-344966D01*
X821370Y-344166D01*
X820970Y-342566D01*
X821370Y-340966D01*
X823370Y-340166D01*
G54D42*
X820970Y-334566D02*
X829970Y-334566D01*
G54D42*
X832970Y-334566D02*
X832970Y-334566D01*
G54D42*
X821970Y-324166D02*
X820970Y-325446D01*
X820970Y-327046D01*
X821970Y-328646D01*
X823970Y-328966D01*
X827370Y-328966D01*
X829370Y-328166D01*
X829970Y-326566D01*
X829370Y-324966D01*
X827970Y-324166D01*
X825970Y-324166D01*
X825970Y-328966D01*
G54D42*
X820970Y-318566D02*
X829970Y-318566D01*
G54D42*
X827970Y-318566D02*
X829370Y-317766D01*
X829970Y-316166D01*
X829370Y-314566D01*
X827970Y-313766D01*
X820970Y-313766D01*
G54D42*
X829970Y-303366D02*
X820970Y-303366D01*
G54D42*
X822970Y-303366D02*
X821370Y-304166D01*
X820970Y-305766D01*
X821370Y-307366D01*
X822970Y-308166D01*
X829970Y-308166D01*
G54D42*
X820970Y-297766D02*
X829970Y-297766D01*
G54D42*
X827970Y-297766D02*
X829370Y-296966D01*
X829970Y-295366D01*
X829370Y-293766D01*
X827970Y-292966D01*
X820970Y-292966D01*
G54D42*
X817970Y-287366D02*
X816970Y-285766D01*
X816970Y-284646D01*
X817970Y-283046D01*
X819970Y-282566D01*
X829970Y-282566D01*
G54D42*
X827370Y-282566D02*
X829370Y-283366D01*
X829970Y-284966D01*
X829370Y-286566D01*
X827370Y-287366D01*
X823370Y-287366D01*
X821370Y-286566D01*
X820970Y-284966D01*
X821370Y-283366D01*
X823370Y-282566D01*
G54D42*
X836970Y-271206D02*
X820970Y-267206D01*
X836970Y-263206D01*
G54D42*
X820970Y-257606D02*
X820970Y-257606D01*
G54D42*
X830970Y-252006D02*
X836970Y-248006D01*
X820970Y-248006D01*
G54D42*
X820970Y-242406D02*
X836970Y-242406D01*
G54D42*
X827370Y-242406D02*
X829370Y-241606D01*
X829970Y-240006D01*
X829370Y-238406D01*
X827370Y-237606D01*
X823370Y-237606D01*
X821370Y-238406D01*
X820970Y-240006D01*
X821370Y-241606D01*
X823370Y-242406D01*
G54D30*
X203712Y-263555D02*
X213489Y-263555D01*
X264319Y-212725D01*
X278850Y-212725D01*
X278895Y-212680D01*
G54D30*
X205299Y-238155D02*
X215077Y-238155D01*
X265906Y-187325D01*
X280438Y-187325D01*
X280482Y-187280D01*
G54D30*
X278101Y-161880D02*
X266847Y-161917D01*
X216017Y-212746D01*
X203712Y-212755D01*
G54D39*
X756667Y-529346D02*
X758000Y-529346D01*
X759333Y-528512D01*
X760000Y-526846D01*
X760000Y-525179D01*
X759333Y-523512D01*
X758000Y-522679D01*
X756667Y-522679D01*
X755333Y-523512D01*
X754667Y-525179D01*
X754667Y-526846D01*
X755333Y-528512D01*
X756667Y-529346D01*
X755333Y-530179D01*
X754667Y-531846D01*
X754667Y-533512D01*
X755333Y-535179D01*
X756667Y-536012D01*
X758000Y-536012D01*
X759333Y-535179D01*
X760000Y-533512D01*
X760000Y-531846D01*
X759333Y-530179D01*
X758000Y-529346D01*
G54D39*
X744667Y-522679D02*
X750000Y-522679D01*
X750000Y-528512D01*
X749333Y-528512D01*
X748000Y-527679D01*
X746667Y-527679D01*
X745333Y-528512D01*
X744667Y-530179D01*
X744667Y-533512D01*
X745333Y-535179D01*
X746667Y-536012D01*
X748000Y-536012D01*
X749333Y-535179D01*
X750000Y-533512D01*
G54D39*
X740000Y-528512D02*
X734667Y-536012D01*
G54D39*
X740000Y-536012D02*
X734667Y-528512D01*
G54D39*
X724667Y-522679D02*
X730000Y-522679D01*
X730000Y-528512D01*
X729333Y-528512D01*
X728000Y-527679D01*
X726667Y-527679D01*
X725333Y-528512D01*
X724667Y-530179D01*
X724667Y-533512D01*
X725333Y-535179D01*
X726667Y-536012D01*
X728000Y-536012D01*
X729333Y-535179D01*
X730000Y-533512D01*
G54D39*
X720000Y-522679D02*
X714667Y-522679D01*
X715333Y-524346D01*
X716667Y-526846D01*
X718000Y-530179D01*
X718667Y-532679D01*
X718667Y-536012D01*
G54D39*
X710000Y-536012D02*
X710000Y-528512D01*
G54D39*
X710000Y-529846D02*
X708667Y-528512D01*
X707333Y-529012D01*
X706667Y-530179D01*
X706667Y-536012D01*
G54D39*
X706667Y-529846D02*
X705333Y-528512D01*
X704000Y-529012D01*
X703333Y-530179D01*
X703333Y-536012D01*
G54D39*
X698666Y-536012D02*
X698666Y-528512D01*
G54D39*
X698666Y-529846D02*
X697333Y-528512D01*
X695999Y-529012D01*
X695333Y-530179D01*
X695333Y-536012D01*
G54D39*
X695333Y-529846D02*
X693999Y-528512D01*
X692666Y-529012D01*
X691999Y-530179D01*
X691999Y-536012D01*
G36*
X171113Y-387324D02*
X165263Y-393174D01*
X156963Y-393174D01*
X151113Y-387324D01*
X151113Y-379024D01*
X156963Y-373174D01*
X165263Y-373174D01*
X171113Y-379024D01*
X171113Y-387324D01*
G37*
G36*
X171113Y-362324D02*
X165263Y-368174D01*
X156963Y-368174D01*
X151113Y-362324D01*
X151113Y-354024D01*
X156963Y-348174D01*
X165263Y-348174D01*
X171113Y-354024D01*
X171113Y-362324D01*
G37*
X139232Y-359994D02*
G54D31*
D03*
X139332Y-327494D02*
G54D31*
D03*
G54D30*
X419100Y-136524D02*
X419100Y-117474D01*
X425450Y-111125D01*
X451088Y-111125D01*
G54D36*
X278101Y-263480D02*
X302463Y-263480D01*
X306388Y-259556D01*
X306388Y-166688D01*
X311150Y-161925D01*
X388144Y-161925D01*
X393700Y-156369D01*
X393700Y-136524D01*
G54D36*
X278101Y-238080D02*
X291351Y-238080D01*
X296862Y-232569D01*
X296862Y-157162D01*
X301625Y-152400D01*
X361950Y-152400D01*
X368300Y-146050D01*
X368300Y-136524D01*
G54D30*
X535781Y-85725D02*
X582612Y-85725D01*
X588169Y-91281D01*
X588168Y-137080D01*
G54D30*
X535781Y-111125D02*
X557212Y-111125D01*
X562769Y-116681D01*
X562768Y-137080D01*
G54D36*
X535781Y-136525D02*
X535781Y-150019D01*
X542131Y-156369D01*
X608012Y-156369D01*
X613569Y-150812D01*
X613568Y-137080D01*
G54D36*
X523796Y-158750D02*
X523875Y-158750D01*
X531019Y-165894D01*
X633412Y-165894D01*
X638969Y-160338D01*
X638968Y-137080D01*
G36*
X34831Y-428408D02*
X41851Y-421388D01*
X51811Y-421388D01*
X58831Y-428408D01*
X58831Y-438368D01*
X51811Y-445388D01*
X41851Y-445388D01*
X34831Y-438368D01*
X34831Y-428408D01*
G37*
G54D30*
X46831Y-433388D02*
X76994Y-433388D01*
G36*
X34038Y-356970D02*
X41058Y-349950D01*
X51018Y-349950D01*
X58038Y-356970D01*
X58038Y-366930D01*
X51018Y-373950D01*
X41058Y-373950D01*
X34038Y-366930D01*
X34038Y-356970D01*
G37*
G54D36*
X42069Y-477838D02*
X14288Y-477044D01*
X9525Y-473075D01*
X9525Y-65088D01*
X15081Y-59531D01*
X67469Y-59531D01*
X86519Y-40481D01*
X103981Y-40481D01*
G54D36*
X26194Y-117475D02*
X26194Y-76994D01*
X34131Y-69056D01*
X77788Y-69056D01*
X89694Y-57150D01*
X127000Y-57150D01*
X131762Y-52388D01*
X131762Y-14288D01*
X137319Y-8731D01*
X512762Y-8731D01*
X517525Y-13494D01*
X517525Y-106362D01*
X522288Y-111125D01*
X535781Y-111125D01*
G54D36*
X78906Y-115518D02*
X67893Y-115518D01*
X63500Y-111125D01*
X49546Y-111125D01*
X49501Y-111080D01*
G54D36*
X49212Y-187325D02*
X71438Y-187325D01*
X77788Y-193675D01*
X77788Y-296862D01*
X83344Y-302419D01*
X310356Y-302419D01*
X315912Y-296862D01*
X315912Y-176212D01*
X320675Y-171450D01*
X422275Y-171450D01*
X434975Y-158750D01*
G54D36*
X49501Y-212680D02*
X61868Y-212680D01*
X67469Y-218281D01*
X67469Y-306388D01*
X73819Y-312738D01*
X319881Y-312738D01*
X325438Y-307181D01*
X325438Y-185738D01*
X330200Y-180975D01*
X444500Y-180975D01*
X450850Y-174625D01*
X450850Y-136684D01*
X451009Y-136525D01*
G54D30*
X76995Y-512281D02*
X106561Y-512281D01*
X108275Y-510568D01*
G54D30*
X25725Y-493344D02*
X68058Y-493344D01*
X76995Y-502281D01*
X76995Y-512281D01*
G54D30*
X647246Y-231011D02*
X647246Y-211591D01*
X653256Y-205581D01*
X680244Y-205581D01*
G36*
X628175Y-379469D02*
X634025Y-373619D01*
X642325Y-373619D01*
X648175Y-379469D01*
X648175Y-387769D01*
X642325Y-393619D01*
X634025Y-393619D01*
X628175Y-387769D01*
X628175Y-379469D01*
G37*
G36*
X682150Y-379549D02*
X688000Y-373699D01*
X696300Y-373699D01*
X702150Y-379549D01*
X702150Y-387849D01*
X696300Y-393699D01*
X688000Y-393699D01*
X682150Y-387849D01*
X682150Y-379549D01*
G37*
G54D30*
X692150Y-383381D02*
X765175Y-383381D01*
X773112Y-391319D01*
X773112Y-460375D01*
G54D38*
X615906Y-383481D02*
X638175Y-383619D01*
G36*
X628175Y-407012D02*
X634025Y-401162D01*
X642325Y-401162D01*
X648175Y-407012D01*
X648175Y-415312D01*
X642325Y-421162D01*
X634025Y-421162D01*
X628175Y-415312D01*
X628175Y-407012D01*
G37*
G36*
X682150Y-407012D02*
X688000Y-401162D01*
X696300Y-401162D01*
X702150Y-407012D01*
X702150Y-415312D01*
X696300Y-421162D01*
X688000Y-421162D01*
X682150Y-415312D01*
X682150Y-407012D01*
G37*
G54D30*
X691356Y-411162D02*
X713581Y-411162D01*
X722312Y-419894D01*
X722312Y-459823D01*
X722626Y-460136D01*
G36*
X491528Y-532019D02*
X486556Y-527047D01*
X486556Y-519991D01*
X491528Y-515019D01*
X498584Y-515019D01*
X503556Y-519991D01*
X503556Y-527047D01*
X498584Y-532019D01*
X491528Y-532019D01*
G37*
G36*
X491528Y-506619D02*
X486556Y-501647D01*
X486556Y-494591D01*
X491528Y-489619D01*
X498584Y-489619D01*
X503556Y-494591D01*
X503556Y-501647D01*
X498584Y-506619D01*
X491528Y-506619D01*
G37*
G36*
X516928Y-532019D02*
X511956Y-527047D01*
X511956Y-519991D01*
X516928Y-515019D01*
X523984Y-515019D01*
X528956Y-519991D01*
X528956Y-527047D01*
X523984Y-532019D01*
X516928Y-532019D01*
G37*
G36*
X516928Y-506619D02*
X511956Y-501647D01*
X511956Y-494591D01*
X516928Y-489619D01*
X523984Y-489619D01*
X528956Y-494591D01*
X528956Y-501647D01*
X523984Y-506619D01*
X516928Y-506619D01*
G37*
G36*
X542328Y-532019D02*
X537356Y-527047D01*
X537356Y-519991D01*
X542328Y-515019D01*
X549384Y-515019D01*
X554356Y-519991D01*
X554356Y-527047D01*
X549384Y-532019D01*
X542328Y-532019D01*
G37*
G36*
X542328Y-506619D02*
X537356Y-501647D01*
X537356Y-494591D01*
X542328Y-489619D01*
X549384Y-489619D01*
X554356Y-494591D01*
X554356Y-501647D01*
X549384Y-506619D01*
X542328Y-506619D01*
G37*
G36*
X567728Y-532019D02*
X562756Y-527047D01*
X562756Y-519991D01*
X567728Y-515019D01*
X574784Y-515019D01*
X579756Y-519991D01*
X579756Y-527047D01*
X574784Y-532019D01*
X567728Y-532019D01*
G37*
G36*
X567728Y-506619D02*
X562756Y-501647D01*
X562756Y-494591D01*
X567728Y-489619D01*
X574784Y-489619D01*
X579756Y-494591D01*
X579756Y-501647D01*
X574784Y-506619D01*
X567728Y-506619D01*
G37*
G36*
X593128Y-532019D02*
X588156Y-527047D01*
X588156Y-519991D01*
X593128Y-515019D01*
X600184Y-515019D01*
X605156Y-519991D01*
X605156Y-527047D01*
X600184Y-532019D01*
X593128Y-532019D01*
G37*
G36*
X588156Y-506619D02*
X588156Y-489619D01*
X605156Y-489619D01*
X605156Y-506619D01*
X588156Y-506619D01*
G37*
G54D30*
X596656Y-498119D02*
X654406Y-498119D01*
X659606Y-492919D01*
X659606Y-478631D01*
G54D30*
X571256Y-498119D02*
X571256Y-488400D01*
X577850Y-481806D01*
X627062Y-481806D01*
X631825Y-477044D01*
X631774Y-465087D01*
G54D33*
X571256Y-523519D02*
X571144Y-523519D01*
X558800Y-511175D01*
X558800Y-484981D01*
G54D30*
X558800Y-484981D02*
X558800Y-473869D01*
X562769Y-469900D01*
X595312Y-469900D01*
X600075Y-465138D01*
X600075Y-346869D01*
X596900Y-343694D01*
X596900Y-333065D01*
X596446Y-332611D01*
G54D33*
X520456Y-498119D02*
X520456Y-498231D01*
X532606Y-510381D01*
X532606Y-534988D01*
G54D30*
X416719Y-543720D02*
X427832Y-543720D01*
X441325Y-557212D01*
X525462Y-557212D01*
X532606Y-550069D01*
X532606Y-537369D01*
G54D30*
X342106Y-501650D02*
X412750Y-501650D01*
X454025Y-542925D01*
X515144Y-542925D01*
X519906Y-538162D01*
X519906Y-524068D01*
X520456Y-523519D01*
G54D36*
X495056Y-523519D02*
X475894Y-523519D01*
X468312Y-515938D01*
X468312Y-368300D01*
X460375Y-360362D01*
X399256Y-360362D01*
X393700Y-354806D01*
X393700Y-333065D01*
X393246Y-332611D01*
G54D30*
X583406Y-383381D02*
X583406Y-412750D01*
G36*
X649288Y-401638D02*
X609600Y-401638D01*
X609600Y-421481D01*
X649288Y-421481D01*
X649288Y-401638D01*
G37*
G54D43*
X649288Y-401638D02*
X609600Y-401638D01*
X609600Y-421481D01*
X649288Y-421481D01*
X649288Y-401638D01*
G54D30*
X596656Y-523519D02*
X664725Y-523519D01*
X670719Y-517525D01*
X670719Y-311944D01*
X665956Y-307181D01*
X647276Y-307181D01*
X647246Y-307211D01*
G54D30*
X545856Y-523519D02*
X545856Y-550618D01*
X552450Y-557212D01*
X766762Y-557212D01*
X773906Y-550069D01*
X773906Y-506412D01*
X779462Y-500856D01*
X793750Y-500856D01*
X798512Y-496094D01*
X798512Y-377031D01*
X792956Y-371475D01*
X752475Y-371475D01*
X748506Y-367506D01*
X748506Y-332951D01*
X748846Y-332611D01*
G36*
X423250Y-126524D02*
X429100Y-132374D01*
X429100Y-140674D01*
X423250Y-146524D01*
X414950Y-146524D01*
X409100Y-140674D01*
X409100Y-132374D01*
X414950Y-126524D01*
X423250Y-126524D01*
G37*
G36*
X397850Y-126524D02*
X403700Y-132374D01*
X403700Y-140674D01*
X397850Y-146524D01*
X389550Y-146524D01*
X383700Y-140674D01*
X383700Y-132374D01*
X389550Y-126524D01*
X397850Y-126524D01*
G37*
G36*
X372450Y-126524D02*
X378300Y-132374D01*
X378300Y-140674D01*
X372450Y-146524D01*
X364150Y-146524D01*
X358300Y-140674D01*
X358300Y-132374D01*
X364150Y-126524D01*
X372450Y-126524D01*
G37*
G36*
X347050Y-126524D02*
X352900Y-132374D01*
X352900Y-140674D01*
X347050Y-146524D01*
X338750Y-146524D01*
X332900Y-140674D01*
X332900Y-132374D01*
X338750Y-126524D01*
X347050Y-126524D01*
G37*
G36*
X321650Y-126524D02*
X327500Y-132374D01*
X327500Y-140674D01*
X321650Y-146524D01*
X313350Y-146524D01*
X307500Y-140674D01*
X307500Y-132374D01*
X313350Y-126524D01*
X321650Y-126524D01*
G37*
G54D30*
X342900Y-136524D02*
X342900Y-94456D01*
X351631Y-85725D01*
X230512Y-101786D02*
G54D31*
D03*
X230612Y-69286D02*
G54D31*
D03*
G54D30*
X230512Y-101786D02*
X245082Y-101786D01*
X261144Y-85725D01*
X278056Y-85725D01*
X278101Y-85680D01*
X218318Y-349213D02*
G54D44*
D03*
X237318Y-349213D02*
G54D44*
D03*
X227818Y-327013D02*
G54D44*
D03*
X259593Y-349213D02*
G54D44*
D03*
X278593Y-349213D02*
G54D44*
D03*
X269093Y-327013D02*
G54D44*
D03*
G54D30*
X227818Y-327013D02*
X268299Y-327013D01*
G54D30*
X237318Y-349213D02*
X259593Y-349213D01*
G54D36*
X76995Y-472280D02*
X103188Y-446088D01*
X173038Y-446088D01*
X180975Y-438150D01*
X180975Y-392906D01*
X185738Y-388144D01*
X218284Y-388144D01*
G54D36*
X269093Y-327013D02*
X311932Y-327013D01*
X318294Y-333375D01*
X318294Y-344488D01*
X324644Y-350838D01*
X353219Y-350838D01*
X359569Y-344488D01*
X359569Y-256381D01*
X365125Y-250825D01*
X235701Y-367606D02*
G54D28*
D03*
X203201Y-367506D02*
G54D28*
D03*
G54D30*
X46038Y-361950D02*
X30956Y-361950D01*
X26194Y-366712D01*
G54D30*
X161113Y-383174D02*
X127586Y-383174D01*
X101600Y-357188D01*
X66675Y-357188D01*
X61912Y-361950D01*
X46038Y-361950D01*
G54D30*
X203201Y-367506D02*
X188780Y-367506D01*
X173113Y-383174D01*
X161113Y-383174D01*
G54D36*
X235701Y-367606D02*
X272156Y-367606D01*
X278606Y-361156D01*
X278593Y-349213D01*
G36*
X267284Y-391879D02*
X262019Y-397144D01*
X254549Y-397144D01*
X249284Y-391879D01*
X249284Y-384409D01*
X254549Y-379144D01*
X262019Y-379144D01*
X267284Y-384409D01*
X267284Y-391879D01*
G37*
G36*
X227284Y-391879D02*
X222019Y-397144D01*
X214549Y-397144D01*
X209284Y-391879D01*
X209284Y-384409D01*
X214549Y-379144D01*
X222019Y-379144D01*
X227284Y-384409D01*
X227284Y-391879D01*
G37*
G54D36*
X258284Y-388144D02*
X258284Y-375128D01*
X264319Y-369094D01*
G54D36*
X49501Y-161880D02*
X67424Y-161880D01*
X87312Y-181769D01*
X87312Y-286544D01*
X92869Y-292100D01*
X183356Y-292100D01*
X188912Y-286544D01*
X188912Y-166688D01*
X193675Y-161925D01*
X203682Y-161925D01*
X203712Y-161955D01*
G54D36*
X49501Y-85680D02*
X61957Y-85680D01*
X65088Y-82550D01*
X78538Y-82550D01*
G36*
X102784Y-247297D02*
X107756Y-242325D01*
X114812Y-242325D01*
X119784Y-247297D01*
X119784Y-254353D01*
X114812Y-259325D01*
X107756Y-259325D01*
X102784Y-254353D01*
X102784Y-247297D01*
G37*
G54D36*
X111284Y-250825D02*
X111284Y-171609D01*
X100806Y-161131D01*
X100806Y-91281D01*
X106362Y-85725D01*
X127482Y-85725D01*
X127512Y-85755D01*
G54D36*
X79006Y-83018D02*
X80494Y-83018D01*
X90488Y-73025D01*
X103632Y-73025D01*
X103668Y-73061D01*
G36*
X102704Y-325878D02*
X107676Y-320906D01*
X114732Y-320906D01*
X119704Y-325878D01*
X119704Y-332934D01*
X114732Y-337906D01*
X107676Y-337906D01*
X102704Y-332934D01*
X102704Y-325878D01*
G37*
G54D36*
X227818Y-327013D02*
X133362Y-327013D01*
X130969Y-329406D01*
X110490Y-329406D01*
G54D36*
X139232Y-359994D02*
X149594Y-359994D01*
X151606Y-357981D01*
X160921Y-357981D01*
X161113Y-358174D01*
G54D30*
X127794Y-407988D02*
X164306Y-407988D01*
G54D36*
X196806Y-408088D02*
X234056Y-408088D01*
X238125Y-404019D01*
X296862Y-404019D01*
G54D36*
X218318Y-349213D02*
X218284Y-388144D01*
G54D36*
X342446Y-231011D02*
X342446Y-245609D01*
X346869Y-250031D01*
X642144Y-250031D01*
X646906Y-245269D01*
X646906Y-231351D01*
X647246Y-231011D01*
G54D36*
X545646Y-231011D02*
X545646Y-243341D01*
X539750Y-249238D01*
G54D36*
X444046Y-231011D02*
X444046Y-244135D01*
X438150Y-250031D01*
X57944Y-329405D02*
G54D28*
D03*
X90444Y-329505D02*
G54D28*
D03*
G54D36*
X90444Y-329505D02*
X110391Y-329505D01*
X110490Y-329406D01*
G54D36*
X57944Y-329405D02*
X50801Y-329405D01*
X46038Y-334169D01*
X46038Y-361950D01*
X103613Y-40154D02*
G54D31*
D03*
X103513Y-72654D02*
G54D31*
D03*
X277925Y-283080D02*
G54D28*
D03*
X245425Y-282980D02*
G54D28*
D03*
G54D30*
X277925Y-283080D02*
X277925Y-263656D01*
X278101Y-263480D01*
G36*
X222481Y-116328D02*
X227453Y-111356D01*
X234509Y-111356D01*
X239481Y-116328D01*
X239481Y-123384D01*
X234509Y-128356D01*
X227453Y-128356D01*
X222481Y-123384D01*
X222481Y-116328D01*
G37*
G36*
X221688Y-279841D02*
X226660Y-274869D01*
X233716Y-274869D01*
X238688Y-279841D01*
X238688Y-286897D01*
X233716Y-291869D01*
X226660Y-291869D01*
X221688Y-286897D01*
X221688Y-279841D01*
G37*
G54D30*
X230188Y-283369D02*
X245036Y-283369D01*
X245425Y-282980D01*
G54D30*
X230981Y-119856D02*
X230981Y-102255D01*
X230512Y-101786D01*
G54D30*
X631774Y-430262D02*
X631774Y-417563D01*
X638175Y-411162D01*
G54D36*
X396109Y-485450D02*
X367181Y-485450D01*
X360362Y-478631D01*
X360362Y-448469D01*
X366712Y-442119D01*
X381794Y-442119D01*
G36*
X415925Y-564356D02*
X357981Y-564356D01*
X354012Y-560388D01*
X354012Y-516731D01*
X357981Y-512762D01*
X411956Y-512762D01*
X420688Y-521494D01*
X420688Y-559594D01*
X415925Y-564356D01*
G37*
G54D45*
X415925Y-564356D02*
X357981Y-564356D01*
X354012Y-560388D01*
X354012Y-516731D01*
X357981Y-512762D01*
X411956Y-512762D01*
X420688Y-521494D01*
X420688Y-559594D01*
X415925Y-564356D01*
G54D36*
X454025Y-542925D02*
X454025Y-377031D01*
X446881Y-369888D01*
X378619Y-369888D01*
X372269Y-363538D01*
X372269Y-315119D01*
X380206Y-307181D01*
X393216Y-307181D01*
X393246Y-307211D01*
G54D30*
X495056Y-498119D02*
X495056Y-332821D01*
X494846Y-332611D01*
G54D30*
X544988Y-376971D02*
X544988Y-333269D01*
X545646Y-332611D01*
G54D30*
X545856Y-498119D02*
X545856Y-415838D01*
X544988Y-414971D01*
G54D36*
X393246Y-307211D02*
X410399Y-307211D01*
X419100Y-315912D01*
X419100Y-345281D01*
X424656Y-350838D01*
X463550Y-350838D01*
X468312Y-346075D01*
X468312Y-315179D01*
X476280Y-307211D01*
X494846Y-307211D01*
G54D30*
X278101Y-136480D02*
X266847Y-136517D01*
X216017Y-187346D01*
X203712Y-187355D01*
M02*
