; Drill file
; Format: 2.4 (00.0000)
M48
INCH
T01C0.0315
T02C0.0394
T03C0.0433
T04C0.0984
%
G05
G90
T01
X003030Y-020170
X003030Y-018590
X006340Y-015090
X006340Y-014100
X004380Y-012970
X005020Y-010380
X004380Y-009880
X005020Y-009380
X005020Y-008380
X005020Y-007380
X005020Y-006380
X005020Y-005380
X005020Y-004380
X005020Y-003380
X008020Y-003380
X008020Y-004380
X008020Y-005380
X008020Y-006380
X008020Y-007380
X008020Y-008380
X008020Y-009380
X008020Y-010380
X009060Y-011160
X010950Y-010370
X010950Y-009370
X010950Y-008370
X010950Y-007370
X010950Y-006370
X010950Y-005370
X010950Y-004370
X010950Y-003370
X009090Y-004720
X013480Y-009090
X015480Y-009090
X017480Y-009090
X019480Y-009090
X019480Y-011090
X019480Y-012090
X019480Y-013090
X017480Y-013090
X017480Y-012090
X017480Y-011090
X015480Y-011090
X015480Y-012090
X015480Y-013090
X013480Y-013090
X013480Y-012090
X013480Y-011090
X012030Y-015410
X012030Y-016410
X012030Y-017410
X011090Y-017410
X012030Y-018410
X011090Y-019410
X012810Y-020720
X014390Y-020720
X015030Y-018410
X015030Y-017410
X015030Y-016410
X015030Y-015410
X010170Y-015280
X008590Y-015280
X001950Y-010370
X001950Y-009370
X001950Y-008370
X001950Y-007370
X001950Y-006370
X001950Y-005370
X001950Y-004370
X001950Y-003370
X017350Y-003380
X017760Y-004380
X017760Y-005370
X017130Y-006250
X020620Y-006250
X021090Y-005370
X021090Y-004380
X021090Y-003380
X021480Y-009090
X023480Y-009090
X025480Y-009090
X026780Y-008090
X027480Y-009090
X029480Y-009090
X029470Y-008090
X031480Y-009090
X031480Y-011090
X031480Y-012090
X031480Y-013090
X029480Y-013090
X029480Y-012090
X029480Y-011090
X027480Y-011090
X027480Y-012090
X027480Y-013090
X025480Y-013090
X025480Y-012090
X025480Y-011090
X023480Y-011090
X023480Y-012090
X023480Y-013090
X021480Y-013090
X021480Y-012090
X021480Y-011090
X025130Y-015100
X025130Y-016190
X027250Y-016190
X027250Y-015110
T02
X003030Y-017060
X003030Y-015060
X005030Y-016060
X007160Y-018590
X007160Y-020560
X009840Y-021780
X009840Y-018780
X019490Y-019610
X019490Y-020610
X020490Y-020610
X020490Y-019610
X021490Y-019610
X021490Y-020610
X022490Y-020610
X022490Y-019610
X023490Y-019610
X023490Y-020610
X028450Y-018120
X030450Y-018120
X029520Y-004950
X029520Y-002950
X025160Y-005400
X024160Y-005400
X023160Y-005400
X022160Y-005400
X016500Y-005370
X015500Y-005370
X014500Y-005370
X013500Y-005370
X012500Y-005370
T03
X001840Y-017060
X001810Y-014250
X016410Y-015410
X016410Y-021410
T04
X001180Y-021260
X001180Y-001180
X032280Y-001180
X032280Y-021260
M30
