%FSLAX34Y34*%
%MOMM*%
%LNSILK_TOP*%
G71*
G01*
%ADD10C,0.150*%
%ADD11C,0.200*%
%ADD12C,0.175*%
%ADD13C,0.100*%
%ADD14C,0.238*%
%LPD*%
G54D10*
G75*
G01X157191Y-72000D02*
G03X157191Y-72000I-47500J0D01*
G01*
G54D10*
X127241Y-64367D02*
X92241Y-64367D01*
G54D10*
X127367Y-64336D02*
X109867Y-94647D01*
G54D10*
X92241Y-64367D02*
X109741Y-94678D01*
G54D11*
X173300Y-147600D02*
X167000Y-141300D01*
X154200Y-141300D01*
X147900Y-147600D01*
X147900Y-160400D01*
X154200Y-166700D01*
X167000Y-166700D01*
X173300Y-160400D01*
X173300Y-147600D01*
G54D11*
X173300Y-173000D02*
X167000Y-166700D01*
X154200Y-166700D01*
X147900Y-173000D01*
X147900Y-185800D01*
X154200Y-192100D01*
X167000Y-192100D01*
X173300Y-185800D01*
X173300Y-173000D01*
G54D11*
X147900Y-147600D02*
X141600Y-141300D01*
X128800Y-141300D01*
X122500Y-147600D01*
X122500Y-160400D01*
X128800Y-166700D01*
X141600Y-166700D01*
X147900Y-160400D01*
X147900Y-147600D01*
G54D11*
X147900Y-173000D02*
X141600Y-166700D01*
X128800Y-166700D01*
X122500Y-173000D01*
X122500Y-185800D01*
X128800Y-192100D01*
X141600Y-192100D01*
X147900Y-185800D01*
X147900Y-173000D01*
G54D11*
X122500Y-147600D02*
X116200Y-141300D01*
X103400Y-141300D01*
X97100Y-147600D01*
X97100Y-160400D01*
X103400Y-166700D01*
X116200Y-166700D01*
X122500Y-160400D01*
X122500Y-147600D01*
G54D11*
X122500Y-173000D02*
X116200Y-166700D01*
X103400Y-166700D01*
X97100Y-173000D01*
X97100Y-185800D01*
X103400Y-192100D01*
X116200Y-192100D01*
X122500Y-185800D01*
X122500Y-173000D01*
G54D11*
X97100Y-147600D02*
X90800Y-141300D01*
X78000Y-141300D01*
X71700Y-147600D01*
X71700Y-160400D01*
X78000Y-166700D01*
X90800Y-166700D01*
X97100Y-160400D01*
X97100Y-147600D01*
G54D11*
X97100Y-173000D02*
X90800Y-166700D01*
X78000Y-166700D01*
X71700Y-173000D01*
X71700Y-185800D01*
X78000Y-192100D01*
X90800Y-192100D01*
X97100Y-185800D01*
X97100Y-173000D01*
G54D11*
X71700Y-147600D02*
X65400Y-141300D01*
X52600Y-141300D01*
X46300Y-147600D01*
X46300Y-160400D01*
X52600Y-166700D01*
X65400Y-166700D01*
X71700Y-160400D01*
X71700Y-147600D01*
G54D11*
X71700Y-173000D02*
X65400Y-166700D01*
X52600Y-166700D01*
X46300Y-173000D01*
X46300Y-185800D01*
X52600Y-192100D01*
X65400Y-192100D01*
X71700Y-185800D01*
X71700Y-173000D01*
G54D11*
X7575Y-126919D02*
X212575Y-126919D01*
G54D11*
X7575Y-206919D02*
X212575Y-206919D01*
G54D11*
X212575Y-206919D02*
X212575Y-126919D01*
G54D11*
X7575Y-206919D02*
X7575Y-126919D01*
G54D12*
X41771Y-197395D02*
X45437Y-193729D01*
X45437Y-203506D01*
G36*
X135390Y-206773D02*
X135390Y-195465D01*
X84400Y-194763D01*
X84400Y-206774D01*
X84379Y-206795D01*
X135368Y-206795D01*
X135390Y-206773D01*
G37*
G54D13*
X135390Y-206773D02*
X135390Y-195465D01*
X84400Y-194763D01*
X84400Y-206774D01*
X84379Y-206795D01*
X135368Y-206795D01*
X135390Y-206773D01*
G54D14*
X24333Y-52000D02*
X11000Y-52000D01*
X19333Y-55333D01*
X11000Y-58667D01*
X24333Y-58667D01*
G54D14*
X11000Y-63334D02*
X24333Y-63334D01*
G54D14*
X13500Y-68001D02*
X11833Y-68668D01*
X11000Y-70001D01*
X11000Y-71334D01*
X11833Y-72668D01*
X13500Y-73334D01*
X15167Y-73334D01*
X16833Y-72668D01*
X17667Y-71334D01*
X17667Y-70001D01*
X18500Y-68668D01*
X20167Y-68001D01*
X21833Y-68001D01*
X23500Y-68668D01*
X24333Y-70001D01*
X24333Y-71334D01*
X23500Y-72668D01*
X21833Y-73334D01*
G54D14*
X11000Y-80668D02*
X24333Y-80668D01*
G54D14*
X24333Y-78001D02*
X24333Y-83334D01*
G54D14*
X19333Y-88001D02*
X24333Y-91334D01*
X11000Y-91334D01*
G54D14*
X21833Y-101334D02*
X13500Y-101334D01*
X11833Y-100668D01*
X11000Y-99334D01*
X11000Y-98001D01*
X11833Y-96668D01*
X13500Y-96001D01*
X21833Y-96001D01*
X23500Y-96668D01*
X24333Y-98001D01*
X24333Y-99334D01*
X23500Y-100668D01*
X21833Y-101334D01*
M02*
