%FSLAX34Y34*%
%MOMM*%
%LNSOLDERMASK_BOTTOM*%
G71*
G01*
%ADD10C,2.540*%
%LPD*%
G36*
X124741Y-30725D02*
X115966Y-39500D01*
X103516Y-39500D01*
X94741Y-30725D01*
X94741Y-18275D01*
X103516Y-9500D01*
X115966Y-9500D01*
X124741Y-18275D01*
X124741Y-30725D01*
G37*
G36*
X91162Y-32208D02*
X91162Y-44617D01*
X82358Y-53421D01*
X69949Y-53421D01*
X61145Y-44617D01*
X61145Y-32208D01*
X69949Y-23404D01*
X82358Y-23404D01*
X91162Y-32208D01*
G37*
G36*
X68466Y-57000D02*
X77241Y-65775D01*
X77241Y-78225D01*
X68466Y-87000D01*
X56016Y-87000D01*
X47241Y-78225D01*
X47241Y-65775D01*
X56016Y-57000D01*
X68466Y-57000D01*
G37*
G36*
X69949Y-90579D02*
X82358Y-90579D01*
X91162Y-99383D01*
X91162Y-111792D01*
X82358Y-120596D01*
X69949Y-120596D01*
X61145Y-111792D01*
X61145Y-99383D01*
X69949Y-90579D01*
G37*
G36*
X128320Y-111792D02*
X128320Y-99383D01*
X137124Y-90579D01*
X149533Y-90579D01*
X158337Y-99383D01*
X158337Y-111792D01*
X149533Y-120596D01*
X137124Y-120596D01*
X128320Y-111792D01*
G37*
G36*
X151016Y-87000D02*
X142241Y-78225D01*
X142241Y-65775D01*
X151016Y-57000D01*
X163466Y-57000D01*
X172241Y-65775D01*
X172241Y-78225D01*
X163466Y-87000D01*
X151016Y-87000D01*
G37*
G36*
X149533Y-53421D02*
X137124Y-53421D01*
X128320Y-44617D01*
X128320Y-32208D01*
X137124Y-23404D01*
X149533Y-23404D01*
X158337Y-32208D01*
X158337Y-44617D01*
X149533Y-53421D01*
G37*
G36*
X112233Y-70572D02*
X112233Y-58162D01*
X121036Y-49359D01*
X133446Y-49359D01*
X142249Y-58162D01*
X142249Y-70572D01*
X133446Y-79375D01*
X121036Y-79375D01*
X112233Y-70572D01*
G37*
G36*
X77233Y-70572D02*
X77233Y-58162D01*
X86036Y-49359D01*
X98446Y-49359D01*
X107249Y-58162D01*
X107249Y-70572D01*
X98446Y-79375D01*
X86036Y-79375D01*
X77233Y-70572D01*
G37*
G36*
X94733Y-100883D02*
X94733Y-88473D01*
X103536Y-79670D01*
X115946Y-79670D01*
X124749Y-88473D01*
X124749Y-100883D01*
X115946Y-109686D01*
X103536Y-109686D01*
X94733Y-100883D01*
G37*
G36*
X165373Y-142500D02*
X172100Y-149227D01*
X172100Y-158773D01*
X165373Y-165500D01*
X155827Y-165500D01*
X149100Y-158773D01*
X149100Y-149227D01*
X155827Y-142500D01*
X165373Y-142500D01*
G37*
G36*
X165373Y-167900D02*
X172100Y-174627D01*
X172100Y-184173D01*
X165373Y-190900D01*
X155827Y-190900D01*
X149100Y-184173D01*
X149100Y-174627D01*
X155827Y-167900D01*
X165373Y-167900D01*
G37*
G36*
X139973Y-142500D02*
X146700Y-149227D01*
X146700Y-158773D01*
X139973Y-165500D01*
X130427Y-165500D01*
X123700Y-158773D01*
X123700Y-149227D01*
X130427Y-142500D01*
X139973Y-142500D01*
G37*
G36*
X139973Y-167900D02*
X146700Y-174627D01*
X146700Y-184173D01*
X139973Y-190900D01*
X130427Y-190900D01*
X123700Y-184173D01*
X123700Y-174627D01*
X130427Y-167900D01*
X139973Y-167900D01*
G37*
G36*
X114573Y-142500D02*
X121300Y-149227D01*
X121300Y-158773D01*
X114573Y-165500D01*
X105027Y-165500D01*
X98300Y-158773D01*
X98300Y-149227D01*
X105027Y-142500D01*
X114573Y-142500D01*
G37*
G36*
X114573Y-167900D02*
X121300Y-174627D01*
X121300Y-184173D01*
X114573Y-190900D01*
X105027Y-190900D01*
X98300Y-184173D01*
X98300Y-174627D01*
X105027Y-167900D01*
X114573Y-167900D01*
G37*
G36*
X89173Y-142500D02*
X95900Y-149227D01*
X95900Y-158773D01*
X89173Y-165500D01*
X79627Y-165500D01*
X72900Y-158773D01*
X72900Y-149227D01*
X79627Y-142500D01*
X89173Y-142500D01*
G37*
G36*
X89173Y-167900D02*
X95900Y-174627D01*
X95900Y-184173D01*
X89173Y-190900D01*
X79627Y-190900D01*
X72900Y-184173D01*
X72900Y-174627D01*
X79627Y-167900D01*
X89173Y-167900D01*
G37*
G36*
X63773Y-142500D02*
X70500Y-149227D01*
X70500Y-158773D01*
X63773Y-165500D01*
X54227Y-165500D01*
X47500Y-158773D01*
X47500Y-149227D01*
X54227Y-142500D01*
X63773Y-142500D01*
G37*
G36*
X70500Y-167900D02*
X70500Y-190900D01*
X47500Y-190900D01*
X47500Y-167900D01*
X70500Y-167900D01*
G37*
M02*
