; Drill file
; Format: 2.4 (00.0000)
M48
INCH
T01C0.0394
T02C0.0551
%
G05
G90
T01
X002320Y-007060
X003320Y-007060
X004320Y-007060
X005320Y-007060
X006320Y-007060
X006320Y-006060
X005320Y-006060
X004320Y-006060
X003320Y-006060
X002320Y-006060
T02
X003000Y-004160
X004320Y-003730
X005010Y-002530
X005640Y-001510
X004320Y-000960
X003000Y-001510
X003630Y-002530
X002450Y-002830
X005640Y-004160
X006190Y-002830
M30
