%FSLAX34Y34*%
%MOMM*%
%LNCOPPER_TOP*%
G71*
G01*
%ADD10C,0.600*%
%ADD11C,0.400*%
%LPD*%
G36*
X121741Y-29480D02*
X114721Y-36500D01*
X104761Y-36500D01*
X97741Y-29480D01*
X97741Y-19520D01*
X104761Y-12500D01*
X114721Y-12500D01*
X121741Y-19520D01*
X121741Y-29480D01*
G37*
G36*
X88160Y-33449D02*
X88160Y-43376D01*
X81117Y-50419D01*
X71190Y-50419D01*
X64147Y-43376D01*
X64147Y-33449D01*
X71190Y-26406D01*
X81117Y-26406D01*
X88160Y-33449D01*
G37*
G36*
X67221Y-60000D02*
X74241Y-67020D01*
X74241Y-76980D01*
X67221Y-84000D01*
X57261Y-84000D01*
X50241Y-76980D01*
X50241Y-67020D01*
X57261Y-60000D01*
X67221Y-60000D01*
G37*
G36*
X71190Y-93581D02*
X81117Y-93581D01*
X88160Y-100624D01*
X88160Y-110551D01*
X81117Y-117594D01*
X71190Y-117594D01*
X64147Y-110551D01*
X64147Y-100624D01*
X71190Y-93581D01*
G37*
G36*
X131322Y-110551D02*
X131322Y-100624D01*
X138365Y-93581D01*
X148292Y-93581D01*
X155335Y-100624D01*
X155335Y-110551D01*
X148292Y-117594D01*
X138365Y-117594D01*
X131322Y-110551D01*
G37*
G36*
X152261Y-84000D02*
X145241Y-76980D01*
X145241Y-67020D01*
X152261Y-60000D01*
X162221Y-60000D01*
X169241Y-67020D01*
X169241Y-76980D01*
X162221Y-84000D01*
X152261Y-84000D01*
G37*
G36*
X148292Y-50419D02*
X138365Y-50419D01*
X131322Y-43376D01*
X131322Y-33449D01*
X138365Y-26406D01*
X148292Y-26406D01*
X155335Y-33449D01*
X155335Y-43376D01*
X148292Y-50419D01*
G37*
G36*
X115234Y-69331D02*
X115234Y-59403D01*
X122277Y-52360D01*
X132205Y-52360D01*
X139248Y-59403D01*
X139248Y-69331D01*
X132205Y-76374D01*
X122277Y-76374D01*
X115234Y-69331D01*
G37*
G36*
X80234Y-69331D02*
X80234Y-59403D01*
X87277Y-52360D01*
X97205Y-52360D01*
X104248Y-59403D01*
X104248Y-69331D01*
X97205Y-76374D01*
X87277Y-76374D01*
X80234Y-69331D01*
G37*
G36*
X97734Y-99642D02*
X97734Y-89714D01*
X104777Y-82671D01*
X114705Y-82671D01*
X121748Y-89714D01*
X121748Y-99642D01*
X114705Y-106685D01*
X104777Y-106685D01*
X97734Y-99642D01*
G37*
G36*
X164128Y-145500D02*
X169100Y-150472D01*
X169100Y-157528D01*
X164128Y-162500D01*
X157072Y-162500D01*
X152100Y-157528D01*
X152100Y-150472D01*
X157072Y-145500D01*
X164128Y-145500D01*
G37*
G36*
X164128Y-170900D02*
X169100Y-175872D01*
X169100Y-182928D01*
X164128Y-187900D01*
X157072Y-187900D01*
X152100Y-182928D01*
X152100Y-175872D01*
X157072Y-170900D01*
X164128Y-170900D01*
G37*
G36*
X138728Y-145500D02*
X143700Y-150472D01*
X143700Y-157528D01*
X138728Y-162500D01*
X131672Y-162500D01*
X126700Y-157528D01*
X126700Y-150472D01*
X131672Y-145500D01*
X138728Y-145500D01*
G37*
G36*
X138728Y-170900D02*
X143700Y-175872D01*
X143700Y-182928D01*
X138728Y-187900D01*
X131672Y-187900D01*
X126700Y-182928D01*
X126700Y-175872D01*
X131672Y-170900D01*
X138728Y-170900D01*
G37*
G36*
X113328Y-145500D02*
X118300Y-150472D01*
X118300Y-157528D01*
X113328Y-162500D01*
X106272Y-162500D01*
X101300Y-157528D01*
X101300Y-150472D01*
X106272Y-145500D01*
X113328Y-145500D01*
G37*
G36*
X113328Y-170900D02*
X118300Y-175872D01*
X118300Y-182928D01*
X113328Y-187900D01*
X106272Y-187900D01*
X101300Y-182928D01*
X101300Y-175872D01*
X106272Y-170900D01*
X113328Y-170900D01*
G37*
G36*
X87928Y-145500D02*
X92900Y-150472D01*
X92900Y-157528D01*
X87928Y-162500D01*
X80872Y-162500D01*
X75900Y-157528D01*
X75900Y-150472D01*
X80872Y-145500D01*
X87928Y-145500D01*
G37*
G36*
X87928Y-170900D02*
X92900Y-175872D01*
X92900Y-182928D01*
X87928Y-187900D01*
X80872Y-187900D01*
X75900Y-182928D01*
X75900Y-175872D01*
X80872Y-170900D01*
X87928Y-170900D01*
G37*
G36*
X62528Y-145500D02*
X67500Y-150472D01*
X67500Y-157528D01*
X62528Y-162500D01*
X55472Y-162500D01*
X50500Y-157528D01*
X50500Y-150472D01*
X55472Y-145500D01*
X62528Y-145500D01*
G37*
G36*
X67500Y-170900D02*
X67500Y-187900D01*
X50500Y-187900D01*
X50500Y-170900D01*
X67500Y-170900D01*
G37*
G54D10*
X59000Y-179400D02*
X49000Y-179000D01*
X44000Y-174000D01*
X44000Y-110000D01*
X48000Y-106000D01*
X76000Y-106000D01*
G54D11*
X84400Y-154000D02*
X84000Y-154000D01*
X72000Y-166000D01*
X72000Y-192000D01*
G54D10*
X72000Y-192000D02*
X67000Y-197000D01*
X40000Y-197000D01*
X35000Y-192000D01*
X35000Y-26000D01*
X41000Y-20000D01*
X90000Y-20000D01*
X94000Y-24000D01*
X109241Y-24000D01*
X109741Y-24500D01*
G54D11*
X135200Y-179400D02*
X135200Y-179200D01*
X123000Y-167000D01*
X123000Y-140916D01*
G54D11*
X92241Y-64367D02*
X103367Y-64367D01*
X128000Y-89000D01*
X156000Y-89000D01*
X161000Y-94000D01*
G54D11*
X97000Y-141000D02*
X97000Y-194000D01*
G54D10*
X97000Y-141000D02*
X97000Y-123000D01*
X110000Y-110000D01*
X110000Y-94937D01*
X109741Y-94678D01*
G54D10*
X97000Y-197000D02*
X97000Y-201000D01*
X101000Y-205000D01*
X178000Y-205000D01*
X183000Y-200000D01*
X183000Y-158000D01*
X179000Y-154000D01*
X160600Y-154000D01*
G54D10*
X135200Y-154000D02*
X135000Y-153800D01*
X135000Y-139000D01*
X141000Y-133000D01*
X155000Y-133000D01*
X161000Y-127000D01*
X161000Y-94000D01*
G54D10*
X123000Y-140916D02*
X123000Y-125916D01*
X143329Y-105588D01*
M02*
