%FSLAX34Y34*%
%MOMM*%
%LNSILK_BOTTOM*%
G71*
G01*
%ADD10C,0.111*%
%LPD*%
G54D10*
X55241Y-104444D02*
X51908Y-101111D01*
X51908Y-110000D01*
G54D10*
X37658Y-76750D02*
X42991Y-76750D01*
X42991Y-76194D01*
X42324Y-75083D01*
X38324Y-71750D01*
X37658Y-70639D01*
X37658Y-69528D01*
X38324Y-68417D01*
X39658Y-67861D01*
X40991Y-67861D01*
X42324Y-68417D01*
X42991Y-69528D01*
G54D10*
X56241Y-35528D02*
X55574Y-34417D01*
X54241Y-33861D01*
X52908Y-33861D01*
X51574Y-34417D01*
X50908Y-35528D01*
X50908Y-36639D01*
X51574Y-37750D01*
X52908Y-38306D01*
X51574Y-38861D01*
X50908Y-39972D01*
X50908Y-41083D01*
X51574Y-42194D01*
X52908Y-42750D01*
X54241Y-42750D01*
X55574Y-42194D01*
X56241Y-41083D01*
G54D10*
X131491Y-21750D02*
X131491Y-12861D01*
X135491Y-18417D01*
X135491Y-19528D01*
X130158Y-19528D01*
G54D10*
X164408Y-35111D02*
X169741Y-35111D01*
X169741Y-39000D01*
X169074Y-39000D01*
X167741Y-38444D01*
X166408Y-38444D01*
X165074Y-39000D01*
X164408Y-40111D01*
X164408Y-42333D01*
X165074Y-43444D01*
X166408Y-44000D01*
X167741Y-44000D01*
X169074Y-43444D01*
X169741Y-42333D01*
G54D10*
X176158Y-69528D02*
X176824Y-68417D01*
X178158Y-67861D01*
X179491Y-67861D01*
X180824Y-68417D01*
X181491Y-69528D01*
X181491Y-72306D01*
X181491Y-72861D01*
X179491Y-71750D01*
X178158Y-71750D01*
X176824Y-72306D01*
X176158Y-73417D01*
X176158Y-75083D01*
X176824Y-76194D01*
X178158Y-76750D01*
X179491Y-76750D01*
X180824Y-76194D01*
X181491Y-75083D01*
X181491Y-72306D01*
G54D10*
X167991Y-101861D02*
X162658Y-101861D01*
X163324Y-102972D01*
X164658Y-104639D01*
X165991Y-106861D01*
X166658Y-108528D01*
X166658Y-110750D01*
G54D10*
X86908Y-86306D02*
X88241Y-86306D01*
X89574Y-85750D01*
X90241Y-84639D01*
X90241Y-83528D01*
X89574Y-82417D01*
X88241Y-81861D01*
X86908Y-81861D01*
X85574Y-82417D01*
X84908Y-83528D01*
X84908Y-84639D01*
X85574Y-85750D01*
X86908Y-86306D01*
X85574Y-86861D01*
X84908Y-87972D01*
X84908Y-89083D01*
X85574Y-90194D01*
X86908Y-90750D01*
X88241Y-90750D01*
X89574Y-90194D01*
X90241Y-89083D01*
X90241Y-87972D01*
X89574Y-86861D01*
X88241Y-86306D01*
G54D10*
X140491Y-87333D02*
X139824Y-88444D01*
X138491Y-89000D01*
X137158Y-89000D01*
X135824Y-88444D01*
X135158Y-87333D01*
X135158Y-84556D01*
X135158Y-84000D01*
X137158Y-85111D01*
X138491Y-85111D01*
X139824Y-84556D01*
X140491Y-83444D01*
X140491Y-81778D01*
X139824Y-80667D01*
X138491Y-80111D01*
X137158Y-80111D01*
X135824Y-80667D01*
X135158Y-81778D01*
X135158Y-84556D01*
G54D10*
X116241Y-118944D02*
X112908Y-115611D01*
X112908Y-124500D01*
G54D10*
X105131Y-117278D02*
X105131Y-122833D01*
X105797Y-123944D01*
X107131Y-124500D01*
X108464Y-124500D01*
X109797Y-123944D01*
X110464Y-122833D01*
X110464Y-117278D01*
X109797Y-116167D01*
X108464Y-115611D01*
X107131Y-115611D01*
X105797Y-116167D01*
X105131Y-117278D01*
M02*
